<?xml version="1.0" encoding="UTF-8"?>
<svg width="154px" height="138px" viewBox="0 0 154 138" version="1.1" xmlns="http://www.w3.org/2000/svg" xmlns:xlink="http://www.w3.org/1999/xlink">
    <!-- Generator: Sketch 60.1 (88133) - https://sketch.com -->
    <title>62</title>
    <desc>Created with Sketch.</desc>
    <g id="Campaign-Page" stroke="none" stroke-width="1" fill="none" fill-rule="evenodd">
        <g id="do_something_v1-copy-14" transform="translate(-213.000000, -1304.000000)" fill="#1FAB8A">
            <g id="62" transform="translate(213.000000, 1304.000000)">
                <path d="M153.293213,71.8428398 C153.237742,71.9963592 153.099368,72.3816748 152.923809,72.8665049 C153.078642,72.9411408 153.246276,73.0206311 153.479744,73.1322816 C153.598002,73.5606796 154.252688,74.0139563 153.854634,74.5934466 C153.496203,75.1146845 154.442877,75.6656553 153.719308,76.0885922 C153.842443,77.1820388 153.068889,77.9708738 152.559282,78.7348301 C152.097222,79.4277913 151.98445,80.2930825 151.285265,80.8950243 C150.677516,81.4186893 150.335543,82.2493932 149.874702,82.9472087 C149.4736,82.9654126 149.101148,82.9811893 148.584836,83.0042476 C148.678102,83.3003641 148.747593,83.5224515 148.857927,83.8725728 C148.718943,84.0279126 148.490961,84.2845874 148.243473,84.5625 C148.396477,85.029733 148.539727,85.4690534 148.70858,85.9848301 C148.468407,86.2572816 148.230062,86.5279126 147.969772,86.8234223 C148.17459,86.8962379 148.366607,86.964199 148.693341,87.0800971 C148.31967,87.3440534 148.012443,87.5612864 147.689367,87.7894417 C147.752153,87.8628641 147.849686,87.976335 148.00269,88.1541262 C146.902402,88.5618932 145.922201,87.5800971 144.708532,88.0546117 C143.958752,88.5928398 143.402208,89.6911408 142.28851,90.0970874 C141.858757,90.2542476 142.226333,91.0382282 141.489963,90.9459951 C141.227845,90.9132282 141.42169,91.753034 140.807236,91.5898058 C140.578035,92.3507282 139.895918,92.6565534 139.357661,93.1359223 C138.91084,93.532767 138.503033,94.0503641 138.143382,94.5679612 C137.84347,94.9987864 137.523442,95.4162621 137.205852,95.8349515 C136.918741,96.214199 136.581644,96.5631068 136.345128,96.9708738 C136.143968,97.318568 136.161036,97.9126214 135.889164,98.0697816 C135.523418,98.2809466 135.273491,98.5091019 135.195465,99 C134.835814,98.7864078 134.616366,98.6565534 134.395699,98.5254854 C133.708705,98.8598301 133.020492,99.1777913 132.336546,98.3416262 L132.336546,96.6043689 C131.021688,95.8671117 129.64709,95.223301 129.031417,93.556432 C129.079573,93.0066748 128.811359,92.2275485 129.342911,91.5843447 C128.571186,90.0503641 129.241112,88.7518204 129.984187,87.4726942 C130.878437,85.9332524 132.051874,84.618932 133.42769,83.4083738 C132.618781,82.2002427 131.773297,81.0746359 131.083864,79.8616505 C130.609613,79.0273058 130.085376,78.1171117 130.059165,77.1626214 C130.032343,76.1735437 129.71963,75.1413835 130.312139,74.1383495 C130.576696,73.6893204 130.322502,73.038835 130.619366,72.4472087 C130.797363,72.0916262 130.907697,71.6966019 131.182006,71.3555825 C131.330134,71.1717233 131.323428,70.8640777 131.445344,70.3762136 C131.719044,70.1231796 132.405429,69.7821602 132.548679,69.2870146 C132.755936,68.5673544 133.681274,68.8416262 133.667864,68 C133.906818,68.1802184 134.012885,68.2603155 134.17808,68.3847087 C134.560895,68.2718447 134.993695,68.1444175 135.445392,68.0121359 C135.609978,68.3228155 135.748352,68.5831311 135.915986,68.8998786 C135.584985,69.4963592 135.223506,70.1480583 134.807774,70.8968447 C135.629484,70.8161408 136.264055,70.753034 136.805969,70.6996359 C137.027246,70.9199029 137.144894,71.0364078 137.275344,71.1662621 C137.053458,71.5995146 136.829743,72.0376214 136.534707,72.6158981 C137.055896,72.6692961 137.460655,72.7105583 137.962338,72.7615291 C137.838593,73.3464806 137.715459,73.9332524 137.594153,74.5103155 C137.38202,74.6984223 137.152819,74.9023058 136.916912,75.1122573 C137.066259,75.2609223 137.127826,75.3404126 137.141237,75.3325243 C137.358246,75.2129854 137.56977,75.0825243 137.827621,74.9271845 C137.914791,75.1589806 137.969043,75.3015777 138.039144,75.4860437 C137.568551,75.723301 137.121121,75.9490291 136.610904,76.2057039 C136.84742,76.2845874 137.03517,76.3470874 137.382629,76.4623786 C136.986404,76.8574029 136.634678,77.2081311 136.176275,77.6662621 C136.76086,78.1256068 137.279001,78.5333738 137.834326,78.970267 C138.652379,79.125 139.309504,78.7815534 139.952608,78.2281553 C141.440587,76.9496359 143.076084,75.8337379 144.542118,74.5485437 C146.042898,73.2324029 147.639381,71.9429612 148.707971,70.1796117 C148.957898,69.7669903 149.396793,69.4684466 149.774122,69.0934466 L151.52361,69.0934466 C151.619313,69.214199 151.783899,69.4223301 151.954581,69.6359223 C151.763174,70.1790049 151.56689,70.7384709 151.310867,71.4654126 C151.841199,71.3203883 152.271561,71.2026699 152.831763,71.0491505 C152.920152,71.2008495 153.057307,71.4368932 153.293213,71.8428398" id="Fill-25"></path>
                <path d="M47.9242061,106.526481 C47.3843952,106.690507 46.9409573,106.825798 46.3675988,107 C46.5072787,106.706071 46.599382,106.512114 46.7158836,106.266076 C46.3340512,105.701565 45.9022025,105.196318 45.1123097,105.308263 C45.0513141,105.079585 45.0122769,104.932321 44.9573809,104.727589 L43.5831504,104.727589 C43.4459103,104.592896 43.3269689,104.528842 43.2958612,104.436653 C43.0854264,103.814075 43.0408996,103.074164 42.6590673,102.585679 C42.1674429,101.957713 42.4120352,101.34172 42.3894668,100.733508 C42.3705582,100.239636 42.5736735,99.7337912 42.6974945,99.238123 C43.1415424,97.4661689 43.8283526,95.7810167 44.7030293,94.1784758 C45.2416203,93.1931257 45.8448666,92.2335168 46.5060588,91.3229958 C47.152002,90.433427 47.9089572,89.6210819 48.6390743,88.7476761 C48.4408387,88.6231605 48.2236944,88.4782912 47.9980107,88.3471906 C45.8161987,87.0804829 43.9052071,85.4857243 42.1332854,83.717362 C41.2970359,82.8828675 41.2921563,81.7628249 41.0481739,80.7319786 C40.949971,80.3195204 41.0323151,79.8651579 41.0323151,79.4299516 C41.4794127,78.5930625 42.3803175,78.5224238 43.2543842,78.1812029 C43.5489929,78.6900411 43.851531,79.2132464 44.1931062,79.8017028 C44.2528819,79.7586012 44.3565744,79.6837721 44.5426109,79.5490796 C44.6566727,79.6604254 44.8573481,79.7675807 44.9134641,79.9250212 C45.2611389,80.8954055 46.0687204,81.3892778 46.9269283,81.8095183 C48.6732318,82.6661623 50.4353943,83.4892828 52.3103985,84.3830421 C52.7489567,83.9280809 53.187515,83.2300747 53.8243089,82.8810716 C54.4110864,82.5590069 54.4415842,81.6377106 55.356518,81.7263083 C55.2259874,81.5688678 55.135104,81.4593179 54.9996938,81.2964897 C55.2802735,81.1037298 55.5645129,80.9085754 55.9603742,80.636796 C56.0854152,80.3662138 56.2763314,79.9537556 56.4629778,79.5496782 C56.7459973,79.5335151 57.0088883,79.5185493 57.3876709,79.4969985 C57.2266425,79.2934633 57.1424686,79.1875052 57.0119381,79.0222825 C57.718267,78.9211135 57.7652336,78.2033523 58.2098914,77.8178326 C58.6795574,77.4101635 59.0119833,76.8504415 59.457251,76.2901209 C59.5560639,76.3613582 59.6591464,76.4355887 59.8555522,76.5774648 C59.9421659,76.3775213 60.0232901,76.1889519 60.1251527,75.9524918 C60.245314,76.0476745 60.3563259,76.1350749 60.5563915,76.2943113 C60.7741457,75.1479289 61.4365577,74.2284284 62.1404468,73.4017161 C62.8656843,72.5492625 63.5177271,71.5704974 64.7047011,71 C64.8535303,71.1203253 65.0529859,71.2813576 65.2786696,71.463342 C64.8096135,72.3475232 64.3551964,73.223922 63.393906,73.6854682 L63.393906,74.991087 C63.6214195,74.9366114 63.8525928,74.9467882 63.9007793,74.8593877 C64.0935254,74.5067928 64.2295455,74.1242663 64.30579,73.9440777 C65.0962928,73.3047375 65.742236,72.7827294 66.557137,72.124233 C66.6034936,72.7342402 66.6327715,73.1323312 66.6620494,73.5142591 C66.4137974,73.6142308 66.2247111,73.6902572 66.0258655,73.7704741 C66.0771017,73.8405142 66.1411471,73.9758052 66.1753046,73.9686216 C66.5790954,73.8872075 66.9786165,73.7842426 67.4696309,73.6651147 C67.6087009,73.9057652 67.7782686,74.1984968 67.9490562,74.4930243 C67.8575628,74.592996 67.7483807,74.7115254 67.6306593,74.8396328 C67.7001942,75.312553 68.2796523,75.7298003 67.8313347,76.2715633 C67.7008042,76.1560271 67.5849126,76.0530622 67.4665811,75.9471041 C67.4116851,76.0482731 67.3049428,76.1554284 67.3269013,76.223074 C67.3878968,76.4146366 67.5019586,76.5900361 67.6300493,76.8378702 C67.5385559,77.6669771 66.8633348,78.2177195 66.2369102,78.7774415 C65.6440331,79.3072318 64.9919903,79.7723698 64.2295455,80.3727988 C64.5430628,80.5493955 64.8157131,80.7038429 65.1225209,80.8774465 C64.9309947,81.2384223 64.8151031,81.4563247 64.6931119,81.6850026 C64.7638668,81.7622263 64.8699991,81.8759665 65.0346872,82.0543592 C64.6729834,82.1112294 64.3680055,82.1597186 63.9306672,82.2297587 C64.0496085,82.5272794 64.1514712,82.7805012 64.2691926,83.0744301 L63.1615128,83.0744301 C62.9559577,83.4880855 62.7766307,83.8490613 62.6058431,84.1926767 C62.7644316,84.360294 62.8754436,84.4776261 63.035252,84.6464406 C62.6955066,84.7080998 62.3911386,84.7637727 61.9483107,84.8451868 C62.0556629,85.1229526 62.1538658,85.3731812 62.2691475,85.6707019 C61.984908,85.7120076 61.6787102,85.7563064 61.2797991,85.8137752 C61.3969106,86.1238672 61.4920637,86.3752931 61.6494323,86.7919417 C61.2163637,86.626719 60.9010165,86.5063937 60.5204041,86.3615245 C60.3410771,86.6967591 60.1580903,87.0391772 59.9799832,87.3720172 C60.0434186,87.4905466 60.0684268,87.62045 60.1434514,87.6605584 C60.2758118,87.7311971 60.4545288,87.7180272 60.5856693,87.7898631 C61.0949825,88.0688262 61.2139239,88.71535 61.7146976,88.9925171 C62.2545085,89.2918336 62.4893415,89.8054609 62.8333566,90.2628166 C63.1432142,90.6746762 63.3731675,91.0218834 63.3384,91.5432928 C63.3262009,91.7216855 63.4884492,91.9108536 63.5890919,92.1341437 C63.5012582,92.2808088 63.3756073,92.4897318 63.2042098,92.7758784 C62.7546723,92.8267622 62.427736,93.4176131 61.6073454,93.1057253 C60.1745591,92.5603705 58.6832171,92.0718859 57.1272197,91.8881055 C57.040606,91.8779287 56.9692412,91.7426376 56.8277314,91.6037548 C56.3727044,92.1072052 55.9207271,92.6070639 55.3534682,93.23503 C55.3461487,93.2942947 55.3156509,93.5511083 55.2821033,93.8282754 C54.9637064,93.8773634 54.6587285,93.9246554 54.1847928,93.9976886 C54.4977001,94.4287045 54.7313132,94.7507691 55.079598,95.2308728 C54.6861765,95.1177312 54.4238955,95.042902 54.0908596,94.9471207 C54.0219346,95.0273376 53.8822547,95.1895672 53.7303757,95.3655653 C53.9231217,95.888172 53.768193,96.2078421 53.1442081,96.5556479 C52.9575616,97.2141444 52.7782346,97.8468996 52.6287954,98.374894 C52.3469959,98.4766616 52.1896272,98.5335318 51.986512,98.6071636 L52.3506556,98.9645476 C51.8535416,99.3380947 51.2832329,99.6404044 50.8977408,100.094168 C50.549456,100.503035 50.4042865,101.077723 50.1334661,101.657199 C50.1596942,101.696709 50.2688763,101.857143 50.4421038,102.111562 C50.0755203,102.482116 49.7156464,102.846085 49.3691915,103.195687 C49.5039917,103.360909 49.6034145,103.482432 49.775422,103.693151 C49.5308298,103.967325 49.2905072,104.23671 49.0227365,104.536625 L49.0227365,105.488451 C48.629925,105.859604 48.2316238,106.236144 47.9242061,106.526481" id="Fill-27"></path>
                <path d="M89.3958155,113.096128 C90.1697005,114.006242 90.1703147,114.008034 91.109418,113.50341 C91.1358284,113.794838 91.1266155,114.048642 91.1911059,114.28274 C91.2371705,114.448758 91.3821204,114.589097 91.4754779,114.730033 C91.3563242,114.846485 91.2770931,114.922925 91.1763652,115.020864 C91.4103733,115.127163 91.6339401,115.229282 92,115.395897 C91.6191994,115.923214 91.2598957,116.420074 90.9012061,116.917531 C91.3636945,117.726123 90.3852828,117.869448 90.2446322,118.302409 C90.0278216,118.971259 89.1912887,119.115181 89.1673352,119.830015 C89.1396964,120.663689 88.2601699,120.766405 87.878141,121.251918 C87.546476,121.67413 86.9568493,121.950031 86.8806892,122.488694 C87.012741,122.708459 87.117154,122.88224 87.2885143,123.168293 C86.7928594,123.440611 86.3610807,123.678889 85.9280736,123.917166 L84.8833288,124.397305 C84.5657903,124.76159 84.2482517,125.125874 83.8238434,125.611985 L83.8238434,125.93148 C82.7545308,126.695283 81.7558506,127.410116 80.5962515,128.239013 C80.9279165,128.403239 81.1287581,128.502969 81.4616515,128.66839 C81.0010056,129.29484 80.534832,129.929053 80.0336493,130.610444 C81.3203867,131.036836 82.530964,131.438743 83.7796214,131.853192 C83.6561683,132.094455 83.5517552,132.298096 83.4104905,132.573997 C83.9669507,132.766888 84.4871734,132.947239 85.0810994,133.153269 L85.0810994,133.861533 C85.4545296,134.195361 85.7818953,134.487386 86.1209306,134.790757 C86.1418132,135.173554 86.1608533,135.539033 86.1798933,135.888388 L86.7873316,136.478409 L85.2463177,137.725337 C84.8833288,138.118286 84.504985,138.045429 84.0983883,137.783264 C83.9749352,137.703838 83.8017324,137.658452 83.6518689,137.661437 C81.9222973,137.698463 80.3591724,137.058278 78.7856062,136.498713 C77.6247787,136.086654 76.507559,135.559337 75.3037378,135.055311 C74.9751438,135.373612 74.4635198,135.614876 74.397801,136.271782 C73.7025329,136.431828 72.9894531,136.596652 72.3224379,136.750129 C71.978489,136.411524 71.7039441,136.141595 71.428785,135.870472 C71.533198,135.758201 71.6412962,135.642346 71.8009868,135.470954 C71.6351543,135.135334 71.4564237,134.774036 71.3495539,134.559048 C70.8317879,134.636683 70.3735989,134.705956 69.9264653,134.772841 C69.6789449,134.29748 69.4566066,133.868102 69.2287404,133.429169 C69.1175712,133.53726 69.0389543,133.6137 69.0100872,133.641768 C68.6397279,133.275692 68.2662977,132.907228 67.7503743,132.398424 C67.9106791,131.268545 67.1668896,129.970856 67.3665028,128.568063 C67.4088822,128.274247 67.1773309,127.849049 66.9334957,127.626895 C65.9452568,126.725142 65.9028774,125.422079 65.4385464,124.313102 C65.2610442,123.889696 65.0718723,123.352227 65.0565174,122.840437 C65.0307213,122.027665 64.9330644,121.192797 65.0761717,120.403315 C65.3021952,119.154596 65.5454162,117.822868 67.0409797,117.331382 C67.5354063,117.168947 68.0795826,117.151032 68.7312429,117.045927 L68.7312429,119.585765 C69.2981444,119.231036 69.6777166,118.993355 70.2440039,118.638626 C70.3226207,118.863168 70.4172067,119.130708 70.5105642,119.398248 C70.5947089,119.336141 70.6788535,119.274033 70.7629982,119.211926 L70.7629982,120.710269 C71.0510554,120.568139 71.2592673,120.465422 71.4558095,120.368081 C72.1664325,120.972435 72.1480067,121.74639 72.0497356,122.542441 C72.2874288,122.624255 72.4809001,122.690543 72.7910683,122.79744 C72.6590165,123.146197 72.5269647,123.492566 72.3672741,123.911194 C72.5607454,123.877155 72.6577881,123.887307 72.7118372,123.844907 C72.8420464,123.744579 72.9317188,123.565423 73.0742119,123.51287 C74.5046708,122.984359 75.2245067,121.505723 76.6604934,120.991545 C76.9491648,119.980506 78.0455019,119.764921 78.6861067,119.08353 C79.3525077,118.375266 80.2928394,117.914237 81.09682,117.323619 C81.8750043,116.751513 82.3135392,115.787652 83.3288026,115.484878 C83.9958178,114.304239 84.9558037,113.409652 86.150412,112.741996 C86.1086467,111.942362 87.2399929,111.843229 87.2135826,111 L88.7238868,111 C88.831985,111.104508 88.989833,111.257985 89.1476809,111.411462 C88.4247741,111.761414 88.1606704,112.440416 87.698182,113.158236 C88.6987048,113.359488 89.2748192,112.175265 90.2176077,112.721692 C89.9449053,112.845907 89.7219527,112.947429 89.3958155,113.096128" id="Fill-29"></path>
                <path d="M85.0380826,95.6397675 C84.9604592,94.8597962 86.0569659,94.7741523 85.5374393,94.0474026 C85.4048072,94.1660806 85.2868441,94.2706885 85.168881,94.3752964 C85.1297637,94.3355332 85.0619197,94.3006639 85.0551964,94.2566185 C84.9317324,93.4393309 84.9812402,92.6642536 85.5606652,91.9980664 C86.1981549,91.2664227 86.8301437,90.5286617 87.4413515,89.7749953 C87.6344931,89.5370276 87.7536787,89.2391092 87.9437643,88.9038745 C87.6418276,88.1165623 87.22804,87.3004983 86.8686498,86.4893281 C86.4829777,85.6182073 86.4915346,84.6736774 86.0722461,83.8117327 C85.8491553,83.3541495 86.4310251,82.550932 86.2947257,81.9905762 C86.1413126,81.3635405 85.7715319,80.8301013 86.3118395,80.2391584 C86.3228413,78.586231 87.44563,77.5560572 88.4278408,76.4084289 L91.2045577,76.4084289 C91.367139,76.5625879 91.5278866,76.7155235 91.7882611,76.9620556 C91.3659166,77.5010004 90.9429608,78.0399453 90.4753868,78.6363939 C90.5273395,78.747731 90.6526371,79.0138388 90.820108,79.3704845 C90.9765772,79.3704845 91.276069,79.4604106 91.3830304,79.3545792 C91.8469371,78.8988313 92.3829663,79.0829657 92.8713213,79.0291324 C93.0516276,79.4200356 93.2019847,79.7467059 93.3694556,80.109469 C93.1188604,80.422681 92.8603195,80.7462926 92.4679242,81.2362981 C93.0614069,81.3121542 93.4593032,81.3629288 93.982497,81.4296087 L93.982497,83.0287027 C95.1083417,83.0654072 95.2318057,81.7006104 96.1797889,81.7061161 C96.6100792,81.0503285 97.2377896,80.5939688 97.8031567,80.0709293 C98.4553154,79.4683633 99.0756913,78.8297044 99.6905663,78.1879869 C100.256545,77.5964322 100.83108,77.0073245 101.339605,76.3686657 C101.862799,75.7104311 102.312648,74.9934693 102.615195,74.5591323 C103.304027,74.3119885 103.692144,74.1725113 104.173775,74 C104.331467,74.2245094 104.590008,74.4526892 104.656018,74.7273614 C104.706748,74.9384125 104.538666,75.2192021 104.425593,75.447382 C104.296628,75.7067607 104.119989,75.9416696 104.121823,76.3980293 C104.607733,76.1930957 105.093643,75.9875503 105.62845,75.7618174 C105.913884,76.3185028 106.219488,76.9143397 106.682783,77.8178829 C106.682783,77.7989189 106.65589,78.1274244 106.691951,78.4485891 C106.720067,78.6981799 106.825806,78.9392063 106.919321,79.2591474 C106.85331,79.374155 106.732291,79.5870412 106.62044,79.7840222 C106.788522,79.9657096 106.900373,80.0862228 107,80.1932777 C106.034292,81.7409854 105.165154,83.3431382 104.105931,84.8412947 C103.216624,86.0990366 103.34131,86.1871275 102.689763,86.5431614 C102.793668,86.6587807 102.898796,86.7750117 102.983143,86.8686083 C101.664156,88.3478008 100.356172,89.8153703 99.0286283,91.3049625 L99.0286283,91.8585892 C100.071349,92.5235529 101.080453,93.1664939 102.135397,93.8387986 C101.982595,94.1385522 101.889081,94.3220749 101.744836,94.606535 C102.143954,94.9497223 102.412275,95.6097921 103.184841,95.3663188 C103.354146,95.702777 103.492279,95.9774492 103.627967,96.2478392 C103.530785,96.383646 103.409766,96.5518751 103.244128,96.7825019 C103.662194,97.2015453 104.037476,97.5777667 104.443318,97.9845752 C104.288682,98.3828194 104.157273,98.7223363 104.011194,99.0985577 C104.118155,99.2820804 104.246509,99.5035311 104.365083,99.7072412 C104.306407,99.8338718 104.288071,99.9647846 104.215337,100.013112 C104.051534,100.120167 103.810718,100.140966 103.690921,100.276773 C102.973974,101.08672 102.845621,101.131989 101.944089,100.823671 C100.776683,100.424203 99.5212618,100.189294 98.4547042,99.6063037 C97.0257005,98.8257207 95.741553,97.7796416 94.2654862,96.7574205 C93.6457215,97.2162271 92.9501671,97.8457098 92.2802834,98.5620599 C91.6324031,99.2551637 90.7785459,99.8045082 89.5915804,100.158095 C89.8006135,99.8124608 89.8861826,99.6711484 90.0713785,99.3628304 C89.3275387,99.5016958 88.7034955,99.6179268 88.0800636,99.7341578 L87.9731023,99.5194363 C88.3483838,99.2264118 88.7230542,98.9339991 89.0983357,98.6415863 L88.5182996,98.061043 L87.3802307,98.061043 C87.2286512,97.6799276 87.0599578,97.2529316 86.8607041,96.751303 L85.4793746,96.751303 C85.289289,96.2723089 85.118762,95.8428659 85.0380826,95.6397675" id="Fill-31"></path>
                <path d="M92.1151164,63.5753674 C91.5576115,63.711056 91.0662208,63.830995 90.3729134,64 C89.6611415,63.4651204 88.8099934,62.7987924 87.9314466,62.1736556 C86.8837422,61.4279741 85.9736272,60.4781538 84.7776123,59.9529662 C84.5006466,59.8312099 84.2099816,59.7433758 83.8252079,59.6028412 C83.3588335,58.8922933 83.3046317,57.5729639 81.9364811,57.7183445 C81.3176267,57.1428795 81.2419823,56.1433875 80.337228,56.0464671 C80.0412024,55.5333946 79.8541761,54.9464202 79.465233,54.5799398 C77.6896749,52.9050336 76.4049118,50.8933289 75.3000275,48.4660778 C75.2041319,47.7167618 75.2035362,46.7178756 75.0445044,45.7159606 C74.7943419,44.1379748 75.6210694,42.782906 76.9647993,41.9081992 C77.3358737,41.6671096 77.5270693,41.137076 78.1435412,41.193411 C78.5723912,41.2327849 79.0250662,41.0007816 79.5944836,40.8584297 C79.7630455,41.0110794 79.9864049,41.2127951 80.2681355,41.4672112 C79.8100999,42.2492379 78.9440612,42.7429264 78.8785424,43.7933015 C79.8976568,44.1391863 80.3545011,42.9876505 81.3801673,42.8549906 C81.5052486,42.9688721 81.7274167,43.169982 81.9358855,43.3601884 C81.5725542,43.9144521 81.3277523,44.2875957 80.8768642,44.9751251 C81.5779148,44.7497851 82.0764529,44.7461505 82.2605011,44.4996092 C82.7256842,43.8756839 83.4779585,43.6255081 83.9145517,42.9313155 C84.3213635,42.2849773 84.9884635,41.8034039 85.6704541,41.3527239 C86.634771,40.7160778 87.4162309,39.8007855 88.3203897,39.0605557 C89.649229,37.9726239 90.8946809,36.7805026 92.3748089,35.8761138 C92.9603083,35.5193255 93.3933277,34.8978232 93.8793577,34.3799046 C94.3213114,33.908629 95.0235532,33.7026731 95.1623339,33 L97.3470863,33 L97.3470863,34.4332109 C97.2863326,34.4949977 97.0766726,34.7082226 96.8241276,34.9656675 C97.1136013,34.912967 97.4024794,34.8711701 97.6859969,34.8057488 C97.9742794,34.739116 98.2577969,34.6494646 98.6949857,34.5277083 C98.6282757,35.5944388 98.6789038,36.5388073 99.4365388,37.2269423 C99.2769113,37.445619 99.1857806,37.5704041 99.0023281,37.823003 C99.2334306,37.952634 99.5014619,38.1016492 100,38.3796897 C99.4865713,38.5226473 99.3120531,38.5711076 99.0738031,38.6377403 C99.1643381,38.8485423 99.2858456,39.0454119 99.3299219,39.2592426 C99.3745938,39.4700446 99.3400475,39.6972018 99.3400475,39.9134555 C98.7378707,40.7542403 98.1350982,41.595025 97.4733588,42.5181921 C97.3518513,42.5321244 97.0957326,42.5605948 96.7192976,42.6023917 C96.8336576,42.7623105 96.9039413,42.8622597 96.9962632,42.9918907 C96.8991763,43.2281343 96.7913682,43.4904252 96.6704563,43.782398 C95.2409564,43.7121307 95.2308307,45.2101571 94.3469233,45.793497 C94.5339495,46.0436728 94.626867,46.1678521 94.6691564,46.2247929 C94.0812745,46.8232765 93.488032,47.4266062 92.8888333,48.0353877 C92.9370789,48.0802134 92.8602433,48.0093403 92.8935983,48.039628 C92.6267583,48.3103994 92.3515796,48.5902572 92.0764008,48.8707207 C91.9870571,48.7998476 91.898309,48.7295803 91.8089652,48.6587072 L91.8089652,49.5285681 C91.6201521,49.3704666 91.5105571,49.2783922 91.264564,49.0730421 C91.3187658,49.4437627 91.355099,49.690304 91.4057271,50.0367946 C91.0001065,50.5710685 90.5122896,51.2137721 89.9839703,51.9103877 C89.7463159,51.7335079 89.5843059,51.6117516 89.4401646,51.5039276 C88.8552609,52.1993317 88.2554665,52.9123026 87.6503116,53.6319368 C87.8832009,53.7500586 88.0982215,53.8584884 88.4115203,54.0165898 C88.119664,54.3927622 87.8689059,54.7162342 87.6336341,55.0197163 C87.6717541,55.1535876 87.6717541,55.2771612 87.7319122,55.346217 C88.7212453,56.4741285 89.8946265,57.4827067 90.6659609,58.7463069 C91.5349777,60.1692199 92.6208021,61.6381702 92.1151164,63.5753674" id="Fill-33"></path>
                <path d="M115.360206,39.4502513 C115.462833,39.3486476 115.541636,39.2706304 115.622882,39.1901942 C115.563017,39.1139914 115.512314,39.0262977 115.440842,38.9615858 C115.008954,38.5715001 114.463443,38.2370545 114.114023,37.854831 C113.771322,37.4810744 113.387693,37.1962211 113.040717,36.8539134 C112.579507,36.398511 112.065151,35.7465538 112.040716,35.160518 C111.997344,34.1118225 111.933202,33.060103 112.184882,31.9612104 C112.619214,30.0640028 113.62288,28.6276407 114.952142,27.3170737 C116.639377,25.6533128 118.321114,23.9841088 120.091428,22.2314446 C119.419466,21.6587141 119.385257,20.5773602 118.321114,20.3668954 C117.873954,19.5062877 117.428627,18.64568 116.981467,17.7850723 C116.569127,16.9909908 116.643042,16.1340118 116.647319,15.2854998 C116.650984,14.6813205 116.64854,14.0771412 116.64854,13.472962 C117.209934,12.7635503 117.771327,12.0541386 118.323558,11.3574274 L121.098759,11.3574274 C120.654043,12.1091739 120.273468,12.7520594 119.900224,13.3834539 C120.926493,14.1212905 121.303402,12.5228462 122.205053,13.0103022 C122.767668,13.7729349 121.720629,14.1321766 121.388925,14.8700131 C122.029121,14.7182123 122.401143,14.6293091 122.856245,14.5210527 C123.126251,15.3048529 122.991248,15.990678 122.565469,16.727305 C122.792714,16.8149986 122.9717,16.883944 123.241706,16.9873621 C123.434132,17.1917791 123.03462,17.2214135 122.966813,17.522596 C123.234376,17.9278013 123.559972,18.4213051 123.962538,19.0315322 C126.711472,16.1757419 130.216669,14.2616004 132.360227,11 L134.031579,11 C133.902684,11.5443056 133.790283,12.0196659 133.636343,12.6698088 C134.100607,12.5077266 134.457969,12.3831411 134.94789,12.2119872 L134.94789,13.4917103 C135.215453,13.5612605 135.365728,13.5999666 135.516003,13.6392776 C135.558153,13.7318096 135.624128,13.8219224 135.635734,13.918083 C135.655893,14.0801652 135.613743,14.2519238 135.645508,14.410982 C135.984544,16.1237305 135.123211,17.4826802 134.219117,18.766032 C133.241718,20.1546162 132.106714,21.434944 130.959492,22.8628391 C131.778063,23.8359367 133.087167,24.3088778 134.239276,25.2172635 C134.260656,25.3672499 134.295476,25.6200496 134.336405,25.9109508 C134.641842,26.2889408 135.135428,26.6548351 135.275319,27.1241476 C135.581978,28.1528852 136.340683,29.1108632 135.825106,30.4389689 C135.699265,30.4958186 135.421928,30.6306855 135.137872,30.7504327 C134.854426,30.8695752 134.565483,30.9723885 134.243552,31.0963692 C133.802501,30.6524577 132.806165,30.7933724 132.939946,29.929136 C131.922841,29.6382349 131.02791,29.3818064 130.160468,29.1332402 C129.961934,28.7915372 129.781726,28.4818878 129.578305,28.1317178 L127.738352,28.1317178 C127.691925,27.935163 127.655884,27.7863861 127.611901,27.6025318 C126.931387,27.0842318 126.359609,27.6944589 125.961929,27.7996914 C125.418251,28.4238285 125.002246,28.9016079 124.542258,29.4283748 C124.410309,29.3291902 124.304628,29.2493587 124.121365,29.1120727 C123.924664,29.3872495 123.71269,29.6835937 123.454291,30.0446497 C123.420082,30.0005005 123.503771,30.1075473 123.627779,30.2660007 C122.855634,30.4577173 122.788438,31.225793 122.448792,31.8577923 C122.181839,31.6951054 122.006519,31.5880586 121.737734,31.4241622 C121.691918,31.7084107 121.647324,31.9866113 121.593568,32.3156139 C121.478723,32.3464578 121.329059,32.3863736 121.061496,32.4583429 C120.990024,33.1266293 120.894116,33.9406686 119.893504,33.7187129 C119.557524,34.1499239 118.994298,34.5508957 119.032783,34.8847365 C119.147627,35.8880732 118.299123,36.367667 118.067601,37.1520719 C117.958255,38.143313 117.973527,38.1427082 118.284462,38.8049467 C117.559354,39.3770724 116.740782,39.7623199 115.800647,40 C115.677861,39.8463849 115.540414,39.6758357 115.360206,39.4502513" id="Fill-35"></path>
                <path d="M18.7779677,20.7762739 C18.3601805,20.8265529 18.1085237,20.8570794 17.79103,20.8953872 C17.9842335,21.103686 18.0943718,21.2216022 18.270347,21.4113456 C17.8537904,22.1649321 17.0643633,22.6168446 16.5290543,23.2758587 L16.7911711,23.5308451 C16.3647698,23.8564615 15.9377531,24.182078 15.5747274,24.4592111 C15.3741403,24.9733738 15.8023876,25.553378 15.096641,25.8718117 C15.7217836,26.2794308 16.2933952,26.643355 16.8551621,27.0204476 C18.6167597,28.2043984 20.5008015,29.2201541 21.9529043,30.8147168 C22.7847869,31.7275202 23.568061,32.6097971 23.5828281,33.9206426 C23.5852893,34.1415111 23.816026,34.3593868 24,34.6832075 C23.4936099,34.9950571 23.0192153,35.2865556 22.4248377,35.6522755 C19.0757718,33.7434689 15.6134912,32.0423626 12.4379393,29.5493619 C12.2102791,29.6756579 11.7131185,29.7822015 11.6214391,30.0306038 C11.2577981,31.0146357 10.5452833,31.7053735 9.81984719,32.4098782 C9.7312443,32.4960707 9.76447039,32.7001796 9.74047377,32.8510166 C9.42974839,32.8845359 9.16578564,32.9120697 8.76276559,32.955166 C8.84029311,33.2131451 8.90612997,33.432218 9.02119066,33.8158947 C8.37512798,34.3420285 7.89273452,35.1249445 7.63861653,36.0970053 C7.49094506,36.661447 6.93471586,37.1241335 6.43632465,37.8058929 L6.43632465,41.3529571 C6.11883099,41.3727095 5.85425295,41.3888707 5.55460292,41.407426 C5.48999665,41.5840011 5.4210833,41.7731459 5.3386334,42 L4.18187356,42 C4.00097601,41.4900272 3.81577137,40.9668861 3.60164774,40.3641366 C3.279847,40.5018053 2.95866156,40.6388755 2.57594633,40.8022822 C2.49718822,40.5652527 2.43504314,40.3796992 2.37289806,40.1941457 C2.2781422,40.1558379 2.17354158,40.0708424 2.08801519,40.086405 C1.37796154,40.2174895 0.891876288,39.6332954 0.804504002,39.2615899 C0.448246583,37.7484312 -0.558380598,36.2520322 0.408252227,34.6275415 C0.426095863,33.0186133 1.45302787,31.7909675 2.03509958,30.3915352 C2.22522659,29.9348342 3.04234206,30.0150412 2.82083485,29.2261397 C2.72977078,28.9017204 3.3352238,28.3875577 3.63302793,27.9655732 C3.90314366,27.5830936 4.15726165,27.1862486 4.46798703,26.8372883 C4.83285862,26.427275 5.27710362,26.0837018 5.63889872,25.6718928 C5.93977934,25.3283196 6.1717466,24.9278832 6.46647424,24.5064973 C4.42737738,23.0166824 3.18016876,20.9001757 1.750832,18.9267247 C1.29243515,17.0173196 0.500546895,15.162982 0.809426384,12.9273619 C1.28135979,12.4000309 1.88496692,11.7248557 2.53410608,11 C3.2527739,11.1436543 4.06065989,10.7102972 4.71718263,11.4387442 C4.28708948,12.0025873 3.86007282,12.5622405 3.42874907,13.1278794 C3.54750154,13.2499855 3.65763984,13.364909 3.76654755,13.4774382 C4.67718828,13.6605974 5.01067968,12.3713 5.96193006,12.6699813 C6.10344855,12.9369389 6.24435174,13.204495 6.39202321,13.4822266 C6.09914146,13.6647873 5.76380417,13.8742832 5.41185384,14.093356 C5.62659276,14.3028518 5.7847243,14.4566817 5.94285583,14.6105115 C6.41786572,14.1322624 6.87933906,14.1262768 7.43741415,14.7805024 C7.38695973,15.1450252 7.67738029,15.6717576 7.11684401,16.0961364 C7.34942657,16.2050742 7.57708675,16.3116178 7.90257928,16.4630534 C7.63492474,16.8132108 7.3974198,17.1232647 7.15437717,17.4410998 C7.38080676,17.5195111 7.57524086,17.5859512 7.98195269,17.7266127 C7.60785164,17.8247765 7.43064588,17.8708656 7.12053579,17.9522697 C7.15314657,18.2174316 7.08792501,18.5801587 7.24298005,18.7830704 C7.88535094,19.6234481 8.59417399,20.4153424 9.35406676,21.3137804 C9.77246926,20.948659 10.0936547,20.676913 10.4043801,20.3949914 C12.2404287,18.7297986 13.7768273,16.7330038 16.0540444,15.5538414 C16.0417384,14.9403178 16.7019529,14.9834141 16.9862205,14.6548049 C17.3080213,14.2830994 17.6655093,13.9407233 17.8962459,13.7007009 L19.0240868,13.7007009 C18.5127743,14.4327393 17.6415127,14.846344 17.9257802,15.901006 C18.6542928,15.4784229 19.367423,15.0648182 20.2362234,14.5614296 C20.1586959,15.0444672 20.0983967,15.4167713 20.030714,15.8399529 C20.3346711,15.9889942 20.7862997,16.212257 21.2711543,16.4504837 C21.1462489,16.7024773 21.0416482,16.9125717 20.9198193,17.1585797 C21.0951791,17.1944933 21.247773,17.2250198 21.4071351,17.257342 C21.4237482,17.3207893 21.4877391,17.4291286 21.4569742,17.4692321 C21.0484165,18.0055415 20.5014168,18.4796007 20.2411458,19.0739704 C19.915038,19.8197756 19.1957549,20.1555676 18.7779677,20.7762739" id="Fill-37"></path>
                <path d="M49.0087809,37.727875 C50.3400041,36.1330826 51.4641617,34.8074787 52.5650398,33.4633306 C53.607719,32.190368 54.4990811,30.815712 55.3095773,29.4069587 C55.2060445,29.2819356 55.1055748,29.1610998 54.9334286,28.9541238 C55.2164591,28.6406687 55.4964264,28.3296064 55.7935471,28 L56.8944252,28 C57.3061058,28.4019882 57.6375332,28.9756588 58.1086379,29.122217 C58.6838881,29.3004797 58.7653666,29.7497254 58.9975495,30.0853138 C59.8025322,31.24761 60.3624668,32.4272539 59.7437206,33.941888 C59.3632836,34.8732803 58.9779457,35.8052708 58.5821932,36.7324757 C58.4633449,37.0118336 58.3763529,37.3043518 58.2250357,37.7296696 L57.381458,38.5539847 L57.381458,39.5804903 C56.7210537,40.7487685 56.1715336,41.7226327 55.5699408,42.7874229 C56.4012661,43.3389602 57.167041,43.8707571 57.9560956,44.3672604 C59.5195017,45.351294 60.8127425,46.5734099 61.5852563,48.2525481 C61.7512763,48.6138589 61.8272412,49.0152489 62,49.5793484 C61.9405759,49.7079607 61.7953849,50.0244068 61.6348785,50.3713609 C61.2905861,50.5280884 60.9187258,50.6973781 60.6283439,50.8289813 C59.8429651,50.5639802 59.148254,50.3659771 58.484174,50.0961904 C57.8194813,49.8270018 57.1854196,49.4860297 56.5378803,49.176762 C56.4276087,48.2322094 55.3248928,48.6138589 54.8709414,47.9713956 C54.4984685,47.4437861 53.6702062,47.2242479 52.943639,46.810894 C50.7663876,48.9799553 48.8488871,51.3494125 47.0894425,53.8450892 C46.9540535,54.0365121 46.9975495,54.3481726 46.9583418,54.6036026 C46.1913416,55.1802643 45.4329181,55.0923294 44.6720441,54.568309 L44.6720441,54.0496725 C43.6832755,53.4712163 42.7563815,52.92925 41.7424954,52.3358389 C41.2573004,51.7807123 41.5041862,50.9085415 41.1880743,50.2337756 C40.8358178,49.4824405 41.1335512,48.7550333 41,48.2022996 C42.1051664,45.7969506 43.4131101,43.6901017 45.2858893,41.8721819 L45.2858893,40.7619288 C44.2033898,40.0255486 43.5307331,38.8776091 42.8494997,37.7518029 C42.6209924,37.3743408 42.5854605,36.8814267 42.4807025,36.4375647 C42.2681233,35.5342877 41.9501736,34.6603223 41.9783541,33.7008147 C42.0328773,31.8655472 43.1000613,30.5560946 44.8944252,29.89748 C46.0259342,29.4823315 47.1249745,29.6911021 48.3416377,29.5744538 C47.686747,30.8982631 46.1178272,30.7852039 45.2007351,31.8948588 C46.7825199,31.8266644 47.7461711,30.37185 49.3591995,30.6494133 C49.2967123,31.0202952 49.234225,31.3917754 49.1680621,31.782996 C49.4639575,31.8846895 49.8983051,32.0348369 50.3161119,32.1796005 L50.3161119,34.2511557 C49.8860527,34.9839467 49.4137227,35.7149431 49.0283847,36.4878132 C48.9040229,36.7360649 49.0087809,37.0937865 49.0087809,37.727875" id="Fill-39"></path>
                <path d="M76.7050363,17.3158482 C76.0749988,18.0803449 75.4998813,18.7791425 74.863673,19.5508063 L74.863673,21.6406295 C74.2718944,21.8705757 73.6961599,22.0951466 73.0457588,22.3477888 C72.2768785,21.6251006 71.9652537,20.6664935 71.7190393,19.7604456 C71.3895192,19.8793009 71.0982579,19.983822 70.6656857,20.1391103 C70.3262923,19.6666753 69.9134666,19.2491885 69.6907011,18.7522657 C69.0242559,17.2632891 69.0773247,15.6733751 69.15014,14.1772313 C69.4296767,13.5608559 69.6789766,13.0101794 69.9899843,12.3227298 C69.5247069,12.255239 69.1124982,12.3179516 68.9415674,12.150718 C67.8542745,11.0869927 66.7811743,10.0047521 65.784592,8.86218806 C65.2477334,8.24581267 64.681255,7.54880677 64.4671287,6.79804721 C64.1548868,5.69908333 64.1474818,4.51889169 64,3.29151627 C64.5121754,2.59451037 64.9287037,1.77805188 65.5791048,1.21543016 C66.1770542,0.698200421 67.0273888,0.454517126 67.9493046,0 C68.164048,0.225168143 68.3732378,0.443169129 68.5848958,0.664753694 C68.46148,0.779428186 66.8181991,2.31140772 66.8181991,2.31140772 C66.9366782,2.42667948 67.0557744,2.54195123 67.2310248,2.71097665 C67.9832439,2.18000987 68.7323777,1.48539303 69.9554279,1.94349373 C69.6518251,2.34604898 69.4154839,2.65901478 69.0001899,3.20909398 C69.5617316,2.99706562 69.8752077,2.87940481 70.3096312,2.71575476 C70.5145014,3.01438625 70.7341814,3.33511647 71.0007595,3.72453193 C70.5367162,4.17427095 70.1720226,4.52725337 69.7320454,4.95369914 C70.0159016,5.00984186 70.1689372,5.04089953 70.4231737,5.09166688 C70.041819,5.71401491 70.2571795,6.57467086 69.2741729,6.89241476 C70.2497745,8.05409125 71.3358333,8.69435716 72.4379361,9.40271105 C76.1478141,6.42535511 79.7768548,3.51250357 83.4546447,0.560829936 L85.0781791,0.560829936 C84.7937058,1.11270093 84.5678549,1.55288374 84.3389187,1.99844192 C84.826411,2.3585915 85.2120853,1.95424446 85.6440404,1.77267652 C86.8917739,2.89971176 87.1855034,4.30686333 86.9287986,5.87647044 C86.4104524,6.52031993 85.8779133,7.18149004 85.3342669,7.85639721 C85.3694404,7.88745488 85.4502777,7.96032096 85.6724261,8.15920954 C85.3731428,8.19623984 85.084967,8.23207562 84.7961741,8.2679114 C84.9090995,8.38497494 85.022025,8.50263575 85.1349504,8.62029655 L84.5086154,8.62029655 C83.355295,10.7208704 81.4059429,12.1501208 79.9786396,14.0637513 C81.9347795,15.1185177 84.1235582,15.9033213 86.1932406,17.09725 C86.2561827,17.3982705 86.3271467,17.739905 86.4104524,18.1436547 C86.6646888,17.8832481 86.8553662,17.6879431 87.0392557,17.4998052 C87.8723121,17.6085071 87.8550339,18.5354592 88.5541843,18.8747046 C89.1663265,19.1721416 89.5236151,19.9617232 90,20.5410683 L90,22.4750058 C89.8383253,22.6314887 89.6797361,22.7849853 89.4575877,23 C87.7248303,22.8208211 86.2919732,21.8652003 84.7141026,21.092342 C84.6820145,21.1204134 84.5647695,21.2231426 84.513552,21.2679374 C83.4095979,21.0039471 82.7511748,19.8572022 81.4775241,20.0286167 C80.8838942,19.2898024 79.9076755,19.2324651 79.1462002,18.7970604 C78.3767029,18.3574749 77.6312717,17.8802618 76.7050363,17.3158482" id="Fill-41"></path>
                <path d="M124.391101,43.7774489 C124.733667,43.9695533 125.003217,44.1205787 125.398719,44.3422841 C125.308666,44.8787266 125.217397,45.4193977 125.106047,46.085118 C125.384116,46.5647748 125.617158,47.295134 126.461098,47.5899357 C126.838955,47.0667835 127.07078,46.4681185 127.797895,46.1757332 C128.308397,45.9697345 128.60837,45.2478328 128.999613,44.7542816 C129.429798,44.211194 130.02731,43.8402755 130.366225,43.1787839 C130.650987,42.6224061 131.263102,42.241822 131.649477,41.7235026 C132.048022,41.1876642 132.34982,40.5805419 132.693603,40.0054369 L134.564023,40.0054369 C134.662595,40.5261727 134.824446,41.0408675 134.206854,41.5785181 C134.73987,41.6026822 135.152409,41.6214094 135.529657,41.6383242 C135.698201,42.4067418 135.850318,43.1026671 136,43.7828858 C135.731059,43.8873954 135.540609,43.9610958 135.316086,44.0480865 C135.339816,44.199112 135.336165,44.3567826 135.390318,44.4908932 C135.852752,45.6247923 135.777302,46.0138339 134.888335,46.8891775 C134.517171,47.254055 134.362013,47.8219108 134.512912,48.1765186 C134.750213,48.7335005 134.037701,48.5190443 134.374182,49.033135 C134.017622,48.7413538 133.905664,48.6495303 133.712173,48.4912556 L133.712173,49.4088863 C133.361697,49.4759416 133.058681,49.5333313 132.69847,49.6015948 L132.69847,50.5023107 C132.273762,50.9414927 131.974397,51.2520011 131.724927,51.5105567 C132.303577,52.0729755 132.8372,52.5912949 133.280771,53.0232277 L133.280771,54.2640529 C133.638548,54.6192648 134.012754,54.9907874 134.396087,55.3725798 C134.276828,55.5828073 134.20077,55.7151056 134.067516,55.9476848 C134.241537,56.2980639 134.455108,56.7293926 134.730743,57.2857704 C134.41069,57.9490742 134.057172,58.6818498 133.7213,59.3777751 L132.338259,59.3777751 C130.727045,58.4625608 129.165116,57.573927 127.607446,56.6883136 C127.331203,57.111789 127.111547,57.4488779 126.925357,57.7346181 C126.638162,57.5956746 126.41668,57.4881445 126.035782,57.3038934 L126.035782,58.8371039 C125.530756,58.6504365 125.177846,58.5199505 124.517054,58.2758933 C124.789646,58.6456036 124.864487,58.7464887 125.008085,58.9410095 C124.703852,59.2249373 124.381974,59.5251759 123.872689,60 C123.770467,59.3868366 123.706579,59.0026278 123.636605,58.5797565 C123.869647,58.5000151 124.058271,58.4353762 124.298006,58.3526143 C124.321736,58.2287734 124.350334,58.0789561 124.385017,57.8959133 C124.175096,57.823421 123.982213,57.758178 123.788721,57.6917268 C123.859912,57.4005497 123.932319,57.1069562 124.055229,56.6091763 C123.747954,56.8888755 123.629304,56.9970097 123.558722,57.0610445 C122.852294,56.9293503 122.1842,56.8055094 121.480206,56.6750234 C121.371899,56.4684206 121.231344,56.1989911 121.065233,55.88365 C121.190577,55.4015767 121.332958,54.8542604 121.477164,54.2960703 C121.801476,54.3492313 122.213406,54.4174948 122.625337,54.4851542 C122.642374,54.424744 122.658802,54.3643338 122.676448,54.3033195 C122.246263,54.0888634 121.816687,53.8744072 121.437614,53.6853233 C121.659703,53.2298305 121.880576,52.7761501 122.110576,52.3037424 C121.01899,50.4630441 119.829441,48.7256471 119.157088,46.72607 C118.753676,45.3487178 119.23132,43.9876763 119.430897,42.6320718 C119.586055,41.577914 120.46407,40.8324524 121.424836,40.2990304 C121.56174,40.2229136 121.691343,40.1353188 121.910391,40 L123.560547,40 C123.82097,40.2585556 124.055229,40.4917389 124.220123,40.6554505 C123.895203,40.9780409 123.564806,41.3054641 123.368881,41.4993808 L123.368881,42.5130637 C123.734568,42.4188238 124.085652,42.3288126 124.487239,42.2255112 C124.697768,42.4206361 124.890651,42.6000544 125.158375,42.8483402 C124.877265,43.1890537 124.64544,43.469961 124.391101,43.7774489" id="Fill-43"></path>
                <path d="M25.7272846,61.1772201 C25.917798,61.3610039 26.0767653,61.5143559 26.3019175,61.7315549 C25.2683205,62.5842401 24.2402904,63.4315549 23.2128789,64.2794665 C23.2357652,64.3367497 23.2592701,64.394033 23.282775,64.4507196 C23.5011232,64.3892594 23.7677182,64.3838891 23.9266855,64.2550018 C24.2235895,64.0151281 24.4574014,63.7042471 24.8650259,63.626676 C25.5856366,63.2346437 26.3062474,62.8420147 27.0070645,62.4601264 C27.6181919,62.9368901 27.1722173,63.3134082 26.9093336,63.8916111 C27.3095354,63.7454194 27.5687079,63.6505441 27.8476739,63.5479115 C27.9695283,63.6654616 28.1284956,63.8188136 28.2880815,63.9727624 C28.2887001,64.6225693 28.2887001,65.272973 28.2887001,65.9311337 C28.0920012,66.1161109 27.891591,66.3058617 27.6794283,66.5051597 C27.7103558,66.580344 27.718397,66.6841699 27.7759221,66.7247455 C28.1594231,67.0022113 28.5423056,67.2832573 28.9468373,67.5302913 C29.3816779,67.7952264 29.9903311,67.8716041 30.0070319,68.5500527 C30.0088876,68.6282204 30.1462057,68.7165321 30.236514,68.7779923 C30.5835205,69.013689 30.9899079,69.1921025 31.2725852,69.4838891 C31.554644,69.7744823 31.7148485,70.1748684 32,70.6450684 C32,70.9201474 32,71.3539488 31.9993815,71.7871534 C31.7204154,72.0556687 31.4426865,72.3241839 31.2101117,72.5485433 C29.0829183,71.8151983 26.9804668,71.0908038 24.878634,70.3664093 C24.4116287,70.6068796 23.9087476,70.865251 23.4052479,71.1236223 C23.3842172,71.0908038 23.3631865,71.0579853 23.3421558,71.0251667 C22.904841,71.4464373 22.4675261,71.8683047 21.9089755,72.4071253 C21.9009343,72.5354159 21.884852,72.7872236 21.8644399,73.1082485 C20.9786763,73.9299052 20.0514699,74.7909442 19.3036429,75.4855037 C18.9281831,76.6090909 19.1186965,77.7631099 17.5667546,78 C17.2457271,77.5047385 16.0927499,77.4253773 16.3556337,76.2707617 C16.0364619,76.1818533 15.6443012,76.0714637 15.2168832,75.9521236 C15.1203894,76.0147771 14.9465768,76.1269568 14.8111144,76.2140751 C14.3768923,75.7713233 13.9977211,75.3834679 13.4465931,74.8207792 C13.3235016,73.8057915 13.1657714,72.5067743 13,71.1397332 C14.4010157,69.6784135 15.7816193,68.2385749 17.2463457,66.7104247 C16.6735684,66.3643384 16.0828531,66.0749386 15.5768793,65.6840997 C15.053586,65.2795367 14.6125598,64.7759214 14.1220497,64.3027378 C14.2575121,63.8808705 14.3954488,63.4506494 14.5439008,62.9858196 C14.2692646,62.8951211 14.0731842,62.8300807 13.8294755,62.7489294 L13.8294755,61.6498069 C13.9234951,61.5585118 14.0428753,61.4439452 14.1808119,61.3102843 C14.6632809,61.2177957 15.1698734,61.1205335 15.7958459,61 C17.4622196,61.9022113 19.2844679,62.8885574 21.0572322,63.8474552 C22.8349448,63.1952615 23.9873034,61.6909793 25.7272846,61.1772201" id="Fill-45"></path>
            </g>
        </g>
    </g>
</svg>