<?xml version="1.0" encoding="UTF-8"?>
<svg width="173px" height="208px" viewBox="0 0 173 208" version="1.1" xmlns="http://www.w3.org/2000/svg" xmlns:xlink="http://www.w3.org/1999/xlink">
    <!-- Generator: Sketch 60.1 (88133) - https://sketch.com -->
    <title>noun_human footprint_952319</title>
    <desc>Created with Sketch.</desc>
    <g id="Campaign-Page" stroke="none" stroke-width="1" fill="none" fill-rule="evenodd">
        <g id="do_something_v1-copy-13" transform="translate(-439.000000, -585.000000)" fill="#1FAB8A">
            <g id="noun_human-footprint_952319" transform="translate(509.500000, 676.500000) rotate(50.000000) translate(-509.500000, -676.500000) translate(442.000000, 559.000000)">
                <g id="Group" transform="translate(0.530750, 0.000000)">
                    <path d="M80.8731,0.0495 C80.8236,0.09405 79.9623,0.2079 78.9525,0.27225 C77.3883,0.38115 76.93785,0.48015 76.04685,0.9108 C75.45285,1.18305 74.9727,1.47015 74.9727,1.54935 C74.9727,1.62855 74.67075,1.91565 74.30445,2.1879 C73.91835,2.46015 73.3887,2.9106 73.1016,3.16305 C72.8145,3.4353 72.4977,3.663 72.369,3.663 C71.9532,3.663 71.37405,4.25205 70.89885,5.16285 C70.6266,5.70735 70.3197,6.0588 70.1613,6.0588 C70.01775,6.0588 69.5871,6.3954 69.18615,6.8112 C67.9536,8.15265 66.4983,11.58795 66.4983,13.2066 C66.4983,13.4937 66.35475,14.26095 66.19635,14.8995 C66.01815,15.5232 65.83005,16.4043 65.7657,16.8498 C65.62215,17.9388 65.4291,18.36945 65.142,18.36945 C64.94895,18.36945 64.89945,18.5922 64.89945,19.45845 C64.89945,20.78505 65.3004,23.88375 65.54295,24.5421 C65.73105,25.02225 66.0033,26.53695 66.40425,29.2545 C66.5181,30.1059 66.9141,31.68495 67.28535,32.80365 C67.6368,33.9075 67.93875,34.9965 67.93875,35.2341 C67.93875,35.47665 68.17635,36.17955 68.48325,36.80325 C68.7852,37.4418 69.2802,38.5605 69.6168,39.3129 C70.54245,41.4414 70.9434,42.2532 72.46305,44.99055 C74.36385,48.411 74.844,49.09905 75.91815,49.9752 C76.41315,50.391 77.1309,51.0147 77.53185,51.381 C78.28425,52.06905 79.2396,52.6779 81.61065,53.94015 C82.4076,54.35595 83.35305,54.9153 83.7342,55.18755 C84.26385,55.539 84.55095,55.638 84.9321,55.57365 C85.3974,55.49445 87.0111,55.89045 87.7932,56.27655 C87.95655,56.35575 88.5159,56.4201 89.0406,56.4201 C89.98605,56.4201 90.0009,56.40525 90.01575,55.96965 C90.01575,55.638 90.2583,55.34595 91.0899,54.69255 C91.67895,54.2124 92.5749,53.57385 93.08475,53.2521 C93.8718,52.7571 94.01535,52.5987 93.951,52.27695 C93.88665,51.98985 94.12425,51.57405 94.8618,50.58405 C95.42115,49.88115 95.9805,49.07925 96.1092,48.807 C97.4358,46.31715 98.1387,44.84205 98.2179,44.3322 C98.28225,44.0154 98.5248,43.5006 98.74755,43.2135 C99.42075,42.31755 99.57915,41.27805 99.6732,37.3923 C99.7227,35.4123 99.8019,33.5115 99.8514,33.14025 C99.94545,32.4522 99.70785,28.4229 99.4356,26.2845 C98.9703,22.671 98.7624,21.2949 98.61885,21.0573 C98.53965,20.89395 98.4753,20.6217 98.4753,20.4633 C98.4753,20.29005 98.3961,19.93365 98.2971,19.69605 C98.20305,19.45845 98.0595,19.107 97.99515,18.9288 C97.91595,18.7506 97.73775,18.0675 97.5942,17.40915 C97.34175,16.1964 97.05465,15.25095 96.5547,13.8105 C96.3963,13.365 96.1587,12.6918 96.03,12.2958 C95.5647,10.93455 95.29245,10.26135 94.4163,8.41005 C93.91635,7.3854 93.52035,6.4746 93.52035,6.3954 C93.52035,6.3162 93.3273,6.0291 93.10455,5.75685 C92.7828,5.37075 92.56005,5.2569 92.09475,5.2569 C91.5057,5.2569 91.15425,5.05395 88.76835,3.2274 C87.9219,2.574 85.6053,1.42065 85.14,1.42065 C85.0608,1.42065 84.37275,1.13355 83.62035,0.79695 C82.31355,0.2079 81.06615,-0.1287 80.8731,0.0495 L80.8731,0.0495 Z M81.89775,1.9998 C82.18485,2.14335 82.6947,2.5245 83.04615,2.84625 C83.3976,3.16305 84.37275,3.7719 85.2192,4.17285 C86.0706,4.58865 87.1101,5.1975 87.5259,5.5143 C88.32285,6.12315 89.2188,6.45975 89.59995,6.3162 C89.72865,6.2667 90.27315,6.6825 90.882,7.3062 C91.7928,8.23185 92.11455,8.72685 93.21345,10.9692 C94.04505,12.64725 94.54005,13.86 94.63905,14.4045 C94.7034,14.8698 94.95585,15.9885 95.1984,16.8993 C95.42115,17.8101 95.5647,18.6714 95.50035,18.81495 C95.42115,19.008 95.34195,18.86445 95.21325,18.3051 C95.0202,17.4735 94.7034,17.1369 94.2381,17.3151 C93.91635,17.424 93.9807,18.018 94.51035,19.56735 C94.9113,20.7009 95.04,21.2454 95.436,23.4828 C95.67855,24.79455 95.8221,25.21035 96.09435,25.41825 C96.43095,25.6608 96.4458,25.8192 96.46065,27.65565 C96.4755,28.74465 96.41115,30.37815 96.33195,31.28895 L96.1884,32.93235 L96.6537,32.8878 L97.11405,32.8383 L97.11405,34.8381 C97.0992,36.93195 96.7824,40.1445 96.525,40.6395 C96.3963,40.8969 96.2874,42.10965 96.17355,44.5896 C96.09435,46.18845 95.6637,47.43585 94.92615,48.21795 C94.33215,48.8268 94.1094,48.76245 94.25295,48.01005 C94.33215,47.54475 94.3173,47.46555 94.04505,47.46555 C93.7134,47.46555 93.47085,48.03975 93.2778,49.30695 C93.13425,50.21775 92.81745,50.71275 92.0502,51.3216 C91.6641,51.6087 91.31265,51.91065 91.26315,51.98985 C91.1988,52.06905 90.882,52.1532 90.5454,52.1829 C90.19395,52.19775 89.33265,52.45515 88.5951,52.7274 C86.9814,53.33625 86.73885,53.33625 85.9716,52.8066 C85.2687,52.3116 85.17465,51.9453 85.7637,51.9453 C86.00625,51.9453 86.16465,51.8463 86.16465,51.7176 C86.16465,51.49485 84.4074,49.8663 83.2887,49.0347 C83.01645,48.84165 82.3779,48.08925 81.87795,47.38635 C79.45245,44.0154 78.77925,42.8472 77.94765,40.67415 C77.7051,40.05045 77.40315,39.29805 77.2893,38.99115 C76.41315,36.85275 75.9825,35.37765 76.1409,35.1252 C76.28445,34.9173 76.23495,34.77375 75.89835,34.46685 C75.66075,34.2441 75.3885,33.76395 75.29445,33.3828 C75.1806,32.9967 74.9727,32.2641 74.79945,31.7691 C74.6361,31.2543 74.49255,30.7098 74.49255,30.5514 C74.49255,30.393 74.3193,29.7198 74.09655,29.0664 C73.34415,26.87355 72.79965,22.7502 72.84915,19.72575 C72.84915,18.8496 72.864,17.2656 72.864,16.1964 C72.864,14.34015 73.05705,13.0779 73.4085,12.64725 C73.50255,12.5334 73.9035,11.63745 74.28465,10.64745 C75.0222,8.77635 75.53205,7.73685 76.28445,6.5538 C76.52205,6.15285 76.72995,5.75685 76.72995,5.643 C76.72995,5.52915 76.8933,5.24205 77.1012,4.9896 C77.58135,4.38075 77.8338,3.96495 77.94765,3.6135 C78.0912,3.2274 78.65055,3.1185 79.8633,3.2472 C80.80875,3.34125 80.88795,3.3264 80.88795,3.0393 C80.88795,2.7324 80.487,2.53935 79.81875,2.53935 C79.30395,2.53935 79.3683,2.35125 79.97715,2.04435 C80.6652,1.6929 81.27405,1.6929 81.89775,1.9998 Z M77.61105,42.8472 C77.913,43.3719 78.1704,43.95105 78.1704,44.10945 C78.1704,44.5104 78.8733,46.10925 79.11585,46.2528 C79.35345,46.4112 79.32375,46.9854 79.0515,47.46555 L78.82875,47.8665 L78.7149,47.1933 C78.60105,46.47555 78.44265,46.2528 77.9328,46.1538 C77.66055,46.10925 77.61105,45.98055 77.61105,45.14895 C77.61105,44.2233 77.5962,44.18865 77.19525,44.18865 C76.8141,44.2035 76.77945,44.13915 76.7943,43.6293 C76.87845,42.1245 76.8933,41.87205 76.9725,41.87205 C77.0022,41.87205 77.2893,42.3027 77.61105,42.8472 L77.61105,42.8472 Z" id="Shape"></path>
                    <path d="M43.47585,18.81495 C41.86215,19.48815 41.5602,19.69605 40.29795,20.94345 C39.4515,21.7899 38.97135,22.42845 38.58525,23.23035 C38.2833,23.85405 38.04075,24.42825 38.04075,24.5223 C38.04075,24.63615 37.8675,24.87375 37.64475,25.08165 C37.4022,25.30935 37.2438,25.62615 37.25865,25.8687 C37.2735,26.09145 37.0854,26.74485 36.84285,27.324 L36.39735,28.3635 L36.42705,31.9572 C36.4419,33.94215 36.5409,35.84295 36.6201,36.17955 C36.71415,36.531 36.7488,37.12005 36.68445,37.521 C36.60525,38.016 36.6498,38.3031 36.81315,38.4813 C37.0854,38.8179 37.62495,40.54545 37.59525,40.99095 C37.5606,41.3919 38.13975,43.164 38.5704,44.03025 C38.74365,44.3817 39.2436,45.17865 39.6594,45.80235 C40.09005,46.42605 40.61475,47.3715 40.84245,47.88135 C41.65425,49.7673 42.11955,50.45535 43.5402,51.91065 C45.2529,53.6679 47.3814,55.15785 48.9753,55.73205 C49.599,55.9548 50.25735,56.27655 50.4504,56.43495 C50.8464,56.80125 51.9849,56.8359 52.7967,56.4993 C53.11845,56.3706 53.61345,56.2617 53.8857,56.2617 C54.4797,56.2617 55.93005,55.6182 55.94985,55.36575 C55.94985,55.10835 56.43,54.19755 56.60325,54.1035 C56.68245,54.03915 56.7468,53.7669 56.7468,53.49465 C56.7468,53.20755 56.925,52.7274 57.1131,52.4205 C57.321,52.11855 57.5784,51.6384 57.6774,51.381 C57.77145,51.1137 57.9942,50.50485 58.1724,50.0247 C58.3605,49.54455 58.50405,49.00005 58.50405,48.8268 C58.50405,48.63375 58.5684,48.42585 58.63275,48.3318 C58.7961,48.1536 59.14755,46.2825 59.14755,45.61425 C59.14755,45.35685 59.30595,44.5401 59.499,43.7877 C59.88015,42.23835 59.8158,41.32755 59.30595,41.184 C58.9842,41.1048 58.84065,40.4316 59.14755,40.4316 C59.43465,40.4316 59.30595,39.6495 58.7466,37.9368 C58.44465,37.01115 58.18725,36.1449 58.18725,36.036 C58.18725,35.9073 58.0437,35.34795 57.88035,34.80345 C57.42,33.2838 57.06855,31.68495 56.925,30.40785 C56.81115,29.5119 56.68245,29.13075 56.36565,28.74465 C56.13795,28.4724 55.94985,28.1556 55.94985,28.0269 C55.94985,27.91305 55.77165,27.4329 55.56375,26.97255 C55.341,26.50725 54.98955,25.5816 54.7668,24.92325 C54.23715,23.4234 53.06895,21.82455 51.9651,21.1167 C51.5196,20.81475 51.1533,20.52765 51.1533,20.44845 C51.1533,20.3841 50.59395,19.90395 49.92075,19.3941 L48.67335,18.44865 L46.59435,18.41895 C44.64405,18.36945 44.451,18.39915 43.47585,18.81495 L43.47585,18.81495 Z M46.0053,20.3049 C47.4903,20.6415 49.37625,21.9483 50.62365,23.5323 C51.03945,24.0768 51.9057,25.02225 52.54425,25.6608 C53.4402,26.53695 53.8362,27.08145 54.2718,28.01205 C54.57375,28.6803 54.83115,29.4624 54.83115,29.78415 C54.83115,30.0861 54.91035,30.53655 55.0044,30.789 C55.2123,31.3335 55.69245,32.9175 56.0934,34.43715 C56.44485,35.76375 56.6676,39.5208 56.6676,43.7877 C56.6676,47.0052 56.39535,49.28715 55.93005,50.1831 C55.7568,50.49 55.4202,51.3513 55.1628,52.08885 C54.8955,52.82145 54.60345,53.5095 54.52425,53.5887 C54.3807,53.73225 53.66295,53.3016 51.1533,51.54435 C50.91075,51.36615 50.57415,50.985 50.4306,50.6781 C50.28705,50.37615 50.0346,49.9455 49.8564,49.72275 C49.68315,49.49505 49.1535,48.807 48.67335,48.2031 C47.92095,47.22795 47.8269,47.0349 47.9061,46.55475 C48.00015,46.0251 47.97045,45.9954 47.58435,46.05975 C47.2527,46.08945 47.08935,45.9657 46.64385,45.30735 C45.6687,43.8867 44.43615,40.78305 44.1837,39.1347 C44.11935,38.75355 44.0055,38.3031 43.9263,38.1447 C43.8273,37.95165 43.8471,37.87245 44.0352,37.87245 C44.1639,37.87245 44.27775,37.8279 44.27775,37.74375 C44.27775,37.50615 43.7679,35.37765 43.62435,35.01135 C43.49565,34.7094 43.52535,34.56585 43.7976,34.27875 C43.9758,34.0857 44.11935,33.7788 44.11935,33.5709 C44.11935,33.26895 44.0352,33.21945 43.68375,33.26895 C43.2531,33.31845 43.23825,33.2838 42.95115,31.9572 C42.7581,31.06125 42.69375,30.294 42.7581,29.6901 C42.82245,29.08125 42.79275,28.7793 42.66405,28.7298 C42.1047,28.53675 41.6691,24.8589 42.0255,23.2452 C42.4413,21.2454 42.5997,20.76525 42.7581,20.81475 C42.8373,20.8494 42.9363,21.1662 42.966,21.5325 C43.0155,22.077 43.07985,22.2057 43.31745,22.2057 C43.52535,22.2057 43.6689,22.06215 43.73325,21.7602 C43.94115,20.81475 44.0055,20.6712 44.4213,20.3346 C44.64405,20.14155 44.93115,20.0178 45.05985,20.06235 C45.18855,20.097 45.60435,20.2059 46.0053,20.3049 L46.0053,20.3049 Z M41.52555,29.49705 L41.7186,30.87315 L41.2731,31.2246 C41.03055,31.39785 40.61475,31.7691 40.3425,32.0364 C39.1941,33.16005 39.0159,33.2838 39.0654,33.01155 C39.08025,32.868 39.38715,32.38785 39.7386,31.94235 C40.07025,31.49685 40.5504,30.87315 40.8078,30.56625 C41.83245,29.2248 40.87215,29.00205 39.70395,30.32865 C39.25845,30.82365 39.05055,30.98205 39.05055,30.789 C39.05055,30.6306 39.2436,30.3435 39.46635,30.1356 C39.6891,29.94255 39.897,29.6901 39.9267,29.5911 C39.96135,29.36835 41.10975,28.12095 41.2533,28.12095 C41.31765,28.12095 41.4315,28.74465 41.52555,29.49705 Z" id="Shape"></path>
                    <path d="M21.36915,36.22905 C21.3048,36.2736 21.2553,36.4518 21.2553,36.6102 C21.2553,36.8676 21.19095,36.88245 20.7603,36.72405 C19.39905,36.25875 15.0381,37.4418 14.6025,38.4021 C14.5233,38.59515 14.1867,38.9268 13.8699,39.1347 C13.5333,39.3426 13.26105,39.6 13.26105,39.69405 C13.26105,39.79305 13.0878,40.2237 12.8601,40.65435 C12.63735,41.085 12.4641,41.61465 12.4641,41.8077 C12.4641,42.0156 12.39975,42.20865 12.32055,42.2532 C11.9196,42.5106 11.02365,46.4409 11.28105,46.84185 C11.3256,46.94085 11.28105,47.1141 11.1672,47.2428 C11.02365,47.41605 11.02365,47.6091 11.1672,48.0744 C11.48895,49.07925 11.80575,51.67305 11.64735,51.975 C11.56815,52.11855 11.5038,52.37595 11.5038,52.5195 C11.5038,52.92045 12.4641,55.49445 12.71655,55.78155 C12.8304,55.9251 13.3254,56.82105 13.83525,57.7764 C14.33025,58.75155 15.08265,60.0336 15.49845,60.6573 C15.91425,61.26615 16.4439,62.17695 16.66665,62.65215 C17.1963,63.756 18.711,65.3895 19.60695,65.835 C19.9782,66.02805 20.64645,66.47355 21.0771,66.85965 C23.3838,68.83965 23.6511,68.96835 25.84395,69.14655 C27.027,69.2406 27.22005,69.2109 27.84375,68.8743 C28.28925,68.63175 28.91295,68.47335 29.6505,68.409 C30.6702,68.3298 30.7692,68.3001 30.8484,67.92885 C30.91275,67.64175 31.0563,67.51305 31.3731,67.48335 C31.61565,67.4487 31.8879,67.2903 31.9671,67.11705 C32.06115,66.9537 32.28885,66.81015 32.4621,66.81015 C32.91255,66.81015 33.4719,66.15675 33.72435,65.34 C33.8382,64.95885 34.06095,64.5084 34.2045,64.33515 C34.97175,63.40455 35.2143,62.65215 34.76385,62.65215 C34.55595,62.65215 34.52625,62.3997 34.6203,60.85035 C34.6698,59.87025 34.749,58.95945 34.7787,58.8357 C34.92225,58.4001 34.47675,54.8856 34.2045,54.1827 C34.0461,53.78175 33.8382,52.99965 33.72435,52.4205 C33.0363,48.5199 31.35825,44.5896 29.50695,42.4611 C28.96245,41.82255 28.28925,41.0256 28.03185,40.6692 C27.22005,39.53565 25.66575,38.0358 25.3143,38.0358 C25.14105,38.0358 24.6906,37.89225 24.3243,37.71405 C23.97285,37.53585 23.5719,37.3923 23.463,37.3923 C23.31945,37.3923 23.31945,37.34775 23.463,37.2042 C23.7501,36.91215 23.68575,36.59535 23.34915,36.59535 C23.19075,36.59535 22.968,36.4815 22.85415,36.3528 C22.6611,36.1152 21.55725,36.02115 21.36915,36.22905 L21.36915,36.22905 Z M22.85415,39.2832 C24.13125,39.8574 25.55685,40.8474 26.38845,41.7285 C26.8488,42.2235 27.3141,42.5403 27.61605,42.60465 C27.97245,42.68385 28.13085,42.7977 28.13085,43.0056 C28.13085,43.1838 28.3536,43.61445 28.611,43.98075 C28.88325,44.3322 29.09115,44.748 29.09115,44.89155 C29.09115,45.0351 29.27925,45.46575 29.5218,45.8667 C29.74455,46.26765 30.096,47.22795 30.3039,48.0249 C30.5118,48.807 30.91275,50.37615 31.2147,51.49485 C31.5216,52.61355 31.82355,54.0837 31.8879,54.77175 C31.95225,55.4598 32.14035,56.3706 32.31855,56.7864 C32.6403,57.52395 32.65515,57.6675 32.4621,60.22665 C32.23935,63.32535 32.2047,63.50355 31.8384,64.28565 C31.61565,64.7955 31.48695,64.8945 31.0563,64.8945 C30.78405,64.8945 30.52665,64.9737 30.49695,65.0826 C30.4623,65.1816 30.0465,65.3103 29.58615,65.37465 C28.91295,65.45385 28.512,65.40435 27.71505,65.11725 C25.9083,64.49355 24.77475,63.58275 23.3343,61.5978 C23.03235,61.16715 22.18095,60.09795 21.4632,59.18715 C19.8,57.13785 19.2753,56.2419 18.6021,54.3411 C18.1368,53.0145 18.09225,52.8066 18.2952,52.58385 C18.6516,52.19775 18.58725,51.8166 18.1863,51.75225 C17.8002,51.70275 17.6418,51.2721 16.9884,48.34665 C16.4736,46.05975 16.7805,41.2632 17.5131,40.15935 C17.6418,39.95145 17.721,39.66435 17.70615,39.53565 C17.67645,39.32775 17.83485,39.2634 18.45855,39.2337 C19.57725,39.1545 20.43855,38.9763 20.5524,38.80305 C20.69595,38.57535 21.8493,38.8179 22.85415,39.2832 L22.85415,39.2832 Z" id="Shape"></path>
                    <path d="M6.08355,62.7165 C5.9895,62.83035 5.48955,62.9739 4.99455,63.0234 C4.4847,63.06795 4.05405,63.19665 4.0194,63.29565 C3.9897,63.37485 3.7323,63.45405 3.46005,63.45405 C2.772,63.45405 1.6533,64.02825 1.2078,64.6371 C0.9999,64.90935 0.6336,65.77065 0.39105,66.5577 C-0.02475,67.8645 -0.0396,68.1219 0.0396,69.67125 C0.15345,71.64135 0.47025,73.3986 1.01475,75.0123 C1.27215,75.7944 1.35135,76.24485 1.2573,76.4379 C0.9999,76.9131 1.1088,77.2695 1.81665,78.21 C2.1978,78.705 2.88585,79.8435 3.35115,80.71965 C3.84615,81.6651 4.39065,82.46205 4.6431,82.6551 C4.9005,82.8333 5.1084,83.0709 5.1084,83.1996 C5.1084,83.45205 7.25175,85.45185 7.8903,85.78845 C8.16255,85.932 8.5437,85.99635 8.8011,85.932 C9.1674,85.86765 9.504,86.0112 10.55835,86.7339 C12.11265,87.8031 13.00365,88.2189 13.6917,88.23375 C14.09265,88.23375 14.2065,88.1694 14.25105,87.86745 C14.2857,87.5952 14.3946,87.53085 14.66685,87.5655 C15.2262,87.6447 16.5726,87.1299 16.82505,86.74875 C16.9389,86.5557 17.08245,86.2191 17.13195,85.99635 C17.1765,85.7736 17.32005,85.34295 17.4339,85.03605 C17.54775,84.7341 17.8002,84.01635 18.0081,83.4372 C18.20115,82.863 18.37935,82.17495 18.37935,81.91755 C18.3942,81.378 18.7308,79.98705 18.90405,79.8237 C18.9684,79.75935 19.0179,79.5366 19.0179,79.3287 C19.0179,79.02675 18.9387,78.94755 18.66645,78.9921 C18.2655,79.0416 18.25065,78.97725 17.8992,75.98745 C17.73585,74.4876 16.5726,71.41365 15.62715,70.00785 C15.0678,69.17625 12.3651,66.02805 11.28105,64.95885 C9.5535,63.2313 6.6726,61.99875 6.08355,62.7165 L6.08355,62.7165 Z M7.8111,65.0232 C8.40015,65.45385 8.3853,65.64195 7.74675,65.7558 C7.1379,65.86965 6.94485,66.33 7.5042,66.33 C7.6824,66.33 8.2566,66.5082 8.78625,66.73095 C9.31095,66.9537 9.90495,67.1319 10.11285,67.1319 C10.7019,67.1319 11.67705,67.5972 12.1275,68.0724 C12.35025,68.31495 12.6522,68.55255 12.7809,68.6169 C12.9888,68.6961 12.97395,68.73075 12.7512,68.88915 C12.4641,69.06735 12.35025,69.5277 12.60765,69.5277 C12.92445,69.5277 15.34005,73.87875 15.34005,74.45295 C15.34005,74.63115 15.4539,75.07665 15.57765,75.46275 C15.7212,75.8439 15.9489,76.69035 16.0776,77.36355 C16.25085,78.14565 16.42905,78.6258 16.63695,78.76935 C16.87455,78.92775 16.9389,79.1703 16.9389,79.9227 C16.9389,80.9919 16.82505,81.3582 16.5231,81.3582 C16.40925,81.3582 16.22115,81.55125 16.1073,81.7938 C15.8994,82.22445 15.8499,82.2393 14.7015,82.22445 C13.068,82.1898 11.90475,81.9522 10.9296,81.4572 C9.95445,80.97705 8.9595,79.9524 9.28125,79.75935 C9.59805,79.55145 9.33075,79.1703 8.8011,79.07625 C8.32095,78.97725 8.3061,78.94755 8.40015,78.32385 C8.49915,77.715 8.47935,77.6853 8.11305,77.6853 C7.77645,77.6853 7.61805,77.5071 7.15275,76.5963 C6.8508,76.0023 6.62805,75.41325 6.65775,75.2697 C6.6924,75.141 6.57855,74.8836 6.3855,74.7252 C6.21225,74.5668 6.0687,74.37375 6.0687,74.2797 C6.0687,74.19555 5.8608,73.8144 5.58855,73.41345 C5.33115,73.0323 5.1084,72.6165 5.1084,72.5175 C5.1084,72.4086 4.9302,71.6067 4.70745,70.7454 C4.455,69.72075 4.34115,68.96835 4.4055,68.5872 C4.46985,68.15655 4.4352,67.92885 4.2471,67.7853 C3.9897,67.56255 4.00455,67.19625 4.34115,66.2508 C4.6134,65.4984 4.95,65.2113 5.50935,65.2113 C5.90535,65.2113 6.0489,65.1321 6.11325,64.8747 C6.1974,64.57275 6.29145,64.54305 6.8211,64.62225 C7.15275,64.6866 7.6032,64.85985 7.8111,65.0232 L7.8111,65.0232 Z" id="Shape"></path>
                    <path d="M64.2609,65.19645 C62.63235,65.32515 61.0632,65.64195 61.0632,65.835 C61.0632,65.89935 60.18705,66.0429 59.1129,66.15675 C57.19725,66.3498 53.24715,67.09725 52.4007,67.43385 C52.173,67.51305 51.9354,67.6566 51.8859,67.74075 C51.84135,67.81995 51.2622,68.0922 50.59395,68.34465 C49.71285,68.68125 49.3911,68.8743 49.3911,69.09705 C49.3911,69.25545 49.50495,69.4188 49.6485,69.48315 C49.8069,69.5475 49.599,69.67125 49.03965,69.8643 C47.84175,70.2801 46.67355,70.83945 46.67355,70.99785 C46.67355,71.0622 46.53,71.12655 46.3716,71.12655 C46.02015,71.12655 43.0452,72.5175 42.90165,72.7452 C42.85215,72.8244 42.64425,72.88875 42.45615,72.88875 C42.24825,72.88875 41.8968,73.0323 41.6691,73.20555 C41.44635,73.38375 41.2236,73.5273 41.1741,73.5273 C41.00085,73.5273 38.13975,75.3192 37.7685,75.65085 C37.38735,76.0023 37.2735,76.56165 37.5804,76.56165 C37.6893,76.56165 37.49625,76.73985 37.17945,76.9626 C36.8577,77.18535 36.55575,77.36355 36.4914,77.36355 C36.4419,77.36355 36.2043,77.5368 35.93205,77.7645 C35.38755,78.22485 35.1648,78.27435 35.1648,77.9229 C35.1648,77.4576 34.5906,77.70015 33.59565,78.5763 C32.67,79.4079 31.2939,81.02655 31.15035,81.47205 C31.12065,81.5859 30.39795,82.368 29.5713,83.2293 C26.8983,85.9815 24.13125,90.57015 22.7601,94.5351 C22.5522,95.139 22.374,95.92605 22.374,96.26265 C22.374,96.9012 22.05225,98.1288 21.6216,99.07425 C21.03255,100.4355 20.5821,104.19255 20.5524,108.30105 C20.53755,109.52865 20.4732,110.66715 20.394,110.8107 C20.30985,110.98395 20.35935,111.2067 20.51775,111.44925 C20.69595,111.68685 20.77515,112.15215 20.77515,112.85505 C20.77515,114.02325 21.47805,119.58705 21.7503,120.6117 C21.84435,120.96315 21.97305,121.61655 22.05225,122.06205 C22.1166,122.5125 22.26015,123.0372 22.35915,123.2154 C22.4532,123.3936 22.5324,123.6609 22.5324,123.82425 C22.5324,123.9678 22.869,124.9281 23.2848,125.9478 C23.68575,126.97245 24.0867,128.09115 24.15105,128.4426 C24.30945,129.3534 24.6114,130.09095 25.2054,130.9869 C25.4925,131.4027 25.7301,131.83335 25.7499,131.9472 C25.79445,133.20945 25.87365,133.4817 26.3538,134.1846 C26.83395,134.87265 26.8686,134.98155 26.62605,135.11025 C26.4825,135.18945 26.3736,135.36765 26.3736,135.49635 C26.3736,135.6399 27.2646,136.61505 28.33875,137.68425 C31.48695,140.7879 32.73435,142.2234 32.65515,142.65405 C32.5908,142.9758 32.73435,143.1342 33.4521,143.61435 C33.9471,143.95095 34.9074,144.83205 35.5806,145.5993 C36.26865,146.36655 38.1546,148.203 39.78315,149.69295 C41.41665,151.17795 42.9363,152.58375 43.15905,152.8065 C43.3818,153.0342 44.3916,153.91035 45.39645,154.7766 C47.73285,156.7269 48.0843,157.07835 49.55445,158.77125 C51.3117,160.82055 51.4701,161.05815 51.4701,161.6175 C51.4701,162.0333 51.71265,162.3996 52.7175,163.5183 C54.846,165.91905 57.06855,168.82965 57.06855,169.22565 C57.06855,169.32465 57.2121,169.53255 57.38535,169.69095 C57.56355,169.84935 57.7071,170.05725 57.7071,170.1414 C57.7071,170.2206 57.9447,170.5869 58.23675,170.9532 C59.7069,172.7748 61.62255,176.1804 61.33545,176.47245 C61.07805,176.7249 61.46415,177.77925 62.4096,179.36325 C63.25605,180.81855 63.80055,181.60065 64.3599,182.2392 C64.548,182.4669 64.9638,183.0708 65.2707,183.60045 C65.57265,184.1301 66.3102,185.39235 66.9141,186.3972 C68.19615,188.5752 69.05745,190.28295 69.05745,190.6839 C69.05745,190.8423 69.23565,191.14425 69.44355,191.3373 C69.795,191.65905 71.29485,194.49045 71.29485,194.7924 C71.29485,194.8716 71.4879,195.1587 71.71065,195.4656 C71.9334,195.7527 72.22545,196.31205 72.3492,196.70805 C72.4977,197.09415 72.7056,197.4951 72.82935,197.604 C72.95805,197.703 73.05705,197.8911 73.05705,198.0396 C73.05705,198.16335 73.26495,198.7227 73.53225,199.28205 C73.78965,199.82655 74.1906,200.8809 74.41335,201.61845 C74.6559,202.356 74.943,203.15295 75.0717,203.3955 C75.19545,203.64795 75.29445,203.98455 75.29445,204.16275 C75.29445,204.47955 75.50235,204.93 75.9825,205.56855 C76.12605,205.77645 76.25475,206.11305 76.25475,206.32095 C76.25475,206.52885 76.33395,206.7021 76.41315,206.7021 C76.5072,206.7021 76.57155,206.8308 76.57155,206.9892 C76.57155,207.15255 76.74975,207.64755 76.9725,208.0782 C77.19525,208.50885 77.37345,208.97415 77.37345,209.1177 C77.37345,209.26125 77.5467,209.62755 77.7546,209.9493 C77.9625,210.25125 78.18525,210.71655 78.2496,210.9888 C78.2991,211.24125 78.49215,211.5927 78.6654,211.75605 C78.82875,211.8996 78.9723,212.15205 78.9723,212.3154 C78.9723,212.4738 79.11585,212.8401 79.27425,213.1272 C79.45245,213.41925 79.7049,214.0578 79.8336,214.53795 C79.9623,215.0181 80.10585,215.55765 80.18505,215.73585 C80.34345,216.18135 80.9028,216.77535 81.1602,216.77535 C81.27405,216.77535 81.3681,216.9189 81.3681,217.0773 C81.3681,217.2555 81.43245,217.4139 81.4968,217.44855 C81.56115,217.4634 81.7344,217.7802 81.8631,218.13165 C82.0215,218.56725 82.21455,218.79 82.4868,218.85435 C82.7937,218.93355 82.8729,219.0474 82.83825,219.29985 C82.80855,219.50775 82.8729,219.6513 83.0016,219.6513 C83.12535,219.6513 83.22435,219.8295 83.20455,220.08195 C83.20455,220.43835 83.2887,220.54725 83.5758,220.5819 C83.7837,220.6116 84.00645,220.7898 84.0708,220.9977 C84.15,221.1858 84.42225,221.5719 84.67965,221.84415 C84.9321,222.1164 85.6548,222.9282 86.2785,223.66575 C87.25365,224.7993 89.69895,227.35845 90.73845,228.3336 C90.89685,228.47715 91.4562,229.02165 91.96605,229.51665 C92.48085,230.01165 93.26295,230.6502 93.72825,230.94225 C95.50035,232.04115 98.0892,233.4816 98.9406,233.8182 C100.8909,234.6003 105.6528,235.00125 110.5137,234.7587 C112.89465,234.6498 113.07285,234.61515 113.4738,234.24885 C114.06285,233.70435 114.86475,233.4024 115.4241,233.49645 C115.67655,233.5608 116.1072,233.5113 116.39925,233.41725 C117.08235,233.17965 118.6218,232.155 119.00295,231.67485 C119.29005,231.30855 120.92355,230.0463 121.0968,230.0463 C121.1463,230.0463 121.52745,229.7889 121.9284,229.48695 C122.32935,229.18005 122.8887,228.89295 123.1758,228.8286 C123.4629,228.7791 123.849,228.6207 124.0074,228.4623 C124.1658,228.31875 124.59645,228.06135 124.9677,227.90295 C125.334,227.74455 125.7993,227.43765 125.9874,227.22975 C126.18045,227.02185 126.43785,226.8486 126.5319,226.8486 C126.6309,226.8486 127.0269,226.512 127.42785,226.11105 C127.81395,225.69525 128.3238,225.1854 128.5614,224.94285 C129.5712,223.95285 131.24925,220.88385 131.24925,220.00275 C131.24925,219.76515 131.3928,219.25035 131.571,218.8692 C131.74425,218.4831 131.8878,218.05245 131.8878,217.9089 C131.8878,217.76535 132.00165,217.44855 132.13035,217.206 C132.25905,216.9684 132.49665,215.99325 132.67485,215.0478 C132.8481,214.1073 133.1055,213.0183 133.2342,212.6322 C133.37775,212.25105 133.48665,211.8204 133.48665,211.65705 C133.48665,211.49865 133.6005,211.16205 133.7292,210.92445 C134.00145,210.37995 134.03115,209.8701 133.8084,209.6424 C133.69455,209.5335 133.69455,209.34045 133.79355,209.0682 C134.00145,208.5237 134.0163,204.68745 133.8084,203.1876 C133.58565,201.4452 133.37775,200.83635 132.75405,200.16315 C132.44715,199.82655 132.20955,199.4751 132.20955,199.3959 C132.20955,199.3167 132.03135,199.01475 131.82345,198.7227 C131.61555,198.4554 131.3631,197.87625 131.2641,197.46045 C131.0265,196.50015 130.6602,195.7527 130.0167,194.9211 C129.6504,194.4558 129.492,194.0895 129.492,193.7034 C129.492,192.77775 128.20995,190.64925 126.5319,188.79795 C126.18045,188.397 125.5716,187.67925 125.1756,187.1991 C124.5816,186.46155 122.48775,184.239 119.65635,181.36305 C119.3049,181.0116 117.80505,179.5563 116.3151,178.11585 C114.3648,176.26455 113.5035,175.527 113.23125,175.527 C112.99365,175.527 112.55805,175.22505 112.0185,174.68055 C111.0087,173.67075 109.15245,172.13625 107.9892,171.369 C106.99425,170.7156 105.66765,169.785 104.85585,169.16625 C104.13315,168.6366 101.78685,166.9437 100.1682,165.8052 C99.49995,165.34485 98.8119,164.9736 98.56935,164.9736 C98.3466,164.9736 97.9011,164.80035 97.57935,164.5776 C97.26255,164.3499 96.8913,164.17665 96.7824,164.17665 C96.6537,164.17665 96.5547,164.1123 96.5547,164.0331 C96.5547,163.88955 94.48065,162.5778 94.25295,162.5778 C94.1886,162.5778 93.83715,162.33525 93.47085,162.0333 C93.10455,161.73135 92.40165,161.2809 91.90665,161.02845 C90.9117,160.5285 89.61975,159.7167 87.95655,158.5485 C86.50125,157.52385 86.1498,157.28625 84.4866,156.1824 C81.7542,154.3608 78.1704,151.67295 77.45265,150.9057 C77.19525,150.63345 76.7151,150.29685 76.41315,150.1731 C76.0914,150.0444 75.5172,149.5296 75.0519,148.97025 C74.62125,148.42575 73.99755,147.69315 73.68075,147.32685 C72.7056,146.20815 71.13645,143.3421 71.13645,142.70355 C71.13645,142.5105 70.92855,141.95115 70.67115,141.47595 C70.14645,140.4513 69.4881,138.5802 69.23565,137.31795 C68.6268,134.27865 68.1615,129.49695 68.30505,127.5813 C68.40405,126.1755 68.6763,125.631 69.73065,124.86375 C70.29,124.44795 70.3395,124.4331 71.68095,124.5915 C72.82935,124.7202 73.1016,124.7004 73.32435,124.4925 C73.4877,124.34895 73.7253,124.2846 73.854,124.3341 C74.4777,124.52715 76.36365,125.38845 76.57155,125.56665 C76.70025,125.67555 77.1309,125.8389 77.53185,125.93295 C77.9328,126.03195 79.4673,126.68535 80.9523,127.4031 C82.42245,128.106 83.74905,128.68515 83.8926,128.68515 C84.03615,128.68515 84.7737,128.87325 85.5261,129.08115 C87.36255,129.62565 90.1593,129.8682 92.2581,129.6405 C94.1886,129.4524 96.9705,128.81385 98.07435,128.29905 C98.58915,128.06145 99.0495,127.9476 99.3861,127.9971 C99.73755,128.06145 99.9801,127.98225 100.20285,127.75455 C100.48995,127.46745 101.9106,126.8289 102.9501,126.52695 C103.60845,126.31905 105.01425,125.48745 105.50925,124.97265 C106.00425,124.4925 106.1181,124.0767 105.831,123.7896 C105.71715,123.6807 105.7815,123.5025 106.0389,123.23025 C106.49925,122.7699 108.70695,118.29015 109.2168,116.80515 C109.53855,115.8795 109.5534,115.7013 109.3455,115.5726 C109.1376,115.4439 109.15245,115.19145 109.45935,113.5431 C110.19195,109.593 110.3058,108.33075 109.9692,108.12285 C109.8603,108.0585 109.82565,107.7219 109.89,107.1972 C110.21175,104.68755 110.00385,101.8413 109.25145,98.6733 C109.1376,98.1288 109.0287,97.3962 109.0287,97.04475 C109.0287,96.6933 108.9297,96.1191 108.8208,95.79735 C108.34065,94.47075 108.26145,94.13415 108.34065,93.8322 C108.405,93.6243 108.306,93.3669 108.1179,93.14415 C107.7813,92.77785 107.04375,90.5355 106.7715,89.06535 C106.6923,88.605 106.49925,87.8823 106.3755,87.4665 C105.92505,86.1894 104.3757,83.13525 103.89555,82.6254 C103.63815,82.35315 103.43025,81.96705 103.43025,81.75915 C103.43025,81.52155 102.72735,80.64045 101.24235,79.0416 C98.9703,76.5963 97.3071,75.141 95.70825,74.16585 C95.16375,73.8441 94.74795,73.46295 94.7034,73.2699 C94.55985,72.6957 94.04505,72.34425 91.1988,70.91865 C88.209,69.4188 86.50125,68.65155 84.8034,68.013 C84.1995,67.7853 83.2689,67.419 82.75905,67.19625 C82.2492,66.98835 81.7047,66.81015 81.56115,66.81015 C81.40275,66.81015 81.1305,66.70125 80.9523,66.57255 C80.5068,66.26565 79.30395,65.84985 78.85845,65.84985 C78.5367,65.84985 78.41295,66.0429 78.4575,66.5082 C78.47235,66.5577 77.8536,66.4587 77.0814,66.28545 C76.31415,66.10725 75.3093,65.94885 74.844,65.934 C73.1808,65.84985 71.9037,65.66175 71.3295,65.4192 C70.64145,65.1321 66.7062,65.0034 64.2609,65.19645 L64.2609,65.19645 Z M67.96845,67.69125 C67.93875,68.00805 68.0328,68.00805 72.51255,68.0427 C79.06635,68.10705 78.85845,68.05755 85.04595,70.29495 C87.8427,71.3196 88.78815,71.7651 89.0604,72.26505 C89.1396,72.4383 89.80785,72.96795 90.53055,73.4481 C91.2483,73.92825 92.27295,74.63115 92.79765,75.02715 C93.3273,75.4281 94.2381,76.08645 94.8123,76.48245 C96.0597,77.3487 96.3468,77.6358 97.7229,79.52175 C98.3169,80.30385 99.21285,81.4869 99.70785,82.14525 C100.2177,82.79865 100.683,83.45205 100.74735,83.58075 C101.06415,84.2688 102.44025,86.0904 102.77685,86.25375 C103.47975,86.6052 103.9896,87.65955 104.8707,90.6345 C105.14295,91.56015 105.5439,92.80755 105.7518,93.43125 C105.9597,94.0401 106.31115,95.12415 106.51905,95.82705 C106.7418,96.52995 107.0586,97.51005 107.2368,97.98525 C107.4942,98.70795 107.5734,99.4752 107.6526,102.30165 C107.7021,104.19255 107.8605,106.76655 108.0189,107.99415 L108.29115,110.25135 L107.8605,112.3452 C107.33085,114.88455 107.316,115.34985 107.74665,115.4637 C108.13275,115.55775 108.1971,116.33985 107.82585,116.4834 C107.6823,116.5329 107.2368,117.09225 106.83585,117.71595 C105.9597,119.04255 104.85585,120.49785 103.55895,122.0175 C103.0491,122.60655 102.6333,123.23025 102.6333,123.3936 C102.6333,123.6807 102.3264,123.98265 101.03445,125.02215 C100.51965,125.43795 100.02465,125.6607 99.32175,125.80425 C98.56935,125.9478 98.3169,126.0765 98.3169,126.26955 C98.3169,126.5418 96.7329,127.05165 94.66875,127.41795 C93.5055,127.64565 89.0901,127.51695 88.24365,127.25955 C87.9417,127.1655 86.99625,126.94275 86.16465,126.7794 C84.1995,126.3834 83.9124,126.2547 82.8234,125.4231 C82.3284,125.037 81.7047,124.60635 81.4473,124.47765 C80.68005,124.0965 77.53185,123.12135 76.70025,123.0075 C76.28445,122.958 75.7746,122.7699 75.53205,122.57685 C75.16575,122.28975 74.9727,122.2551 73.88865,122.3343 C69.8247,122.6412 67.716,123.2451 67.23585,124.2846 C67.0923,124.5915 66.89925,124.8786 66.82005,124.9281 C66.53295,125.10135 66.14685,126.01215 65.90925,127.00215 C65.3994,129.2247 66.35475,136.14975 67.617,139.3128 C67.68135,139.491 67.8744,139.9563 68.01795,140.3523 C68.17635,140.75325 68.6565,141.8274 69.10695,142.75305 C69.5376,143.6787 70.14645,144.9756 70.46325,145.629 C70.785,146.28735 71.21565,147.01995 71.42355,147.2625 C71.6463,147.5001 71.9037,147.82185 71.99775,147.9951 C72.7848,149.3415 73.6461,150.26715 74.09655,150.26715 C74.28465,150.26715 75.19545,151.20765 75.6459,151.88085 C76.0122,152.45505 77.8338,154.2816 78.4575,154.6974 C78.7446,154.9053 79.14555,155.0637 79.35345,155.0637 C79.56135,155.0637 80.18505,155.41515 80.7444,155.86065 C83.1105,157.6872 84.45195,158.6772 86.6448,160.2117 C87.9219,161.10765 89.12475,161.96895 89.31285,162.14715 C89.5059,162.3204 89.93655,162.51345 90.27315,162.5778 C91.57005,162.85005 93.5847,163.88955 96.3963,165.74085 C98.01,166.815 99.42075,167.69115 99.52965,167.69115 C99.6435,167.69115 99.81675,167.81985 99.89595,167.9832 C99.9801,168.1416 100.41075,168.44355 100.82655,168.65145 C101.24235,168.85935 101.673,169.06725 101.78685,169.11675 C101.89575,169.16625 102.663,169.7058 103.50945,170.3295 C104.36085,170.93835 105.3657,171.6561 105.7518,171.92835 C107.9397,173.448 111.375,176.1804 113.18175,177.87825 C113.77575,178.4376 114.3351,178.8831 114.44895,178.8831 C114.5727,178.8831 114.8796,179.12565 115.1667,179.41275 C115.43895,179.69985 116.1567,180.37305 116.76555,180.8829 C118.25055,182.1798 118.9881,182.8332 119.1465,183.02625 C119.2257,183.10545 119.54745,183.4569 119.86425,183.7935 C120.53745,184.4964 121.7205,185.9814 123.4134,188.2386 C125.0766,190.4265 125.2053,190.64925 125.0766,191.11455 C124.9974,191.466 125.03205,191.5155 125.3835,191.5155 C125.7201,191.5155 125.89335,191.70855 126.423,192.6639 C126.77445,193.3074 127.09125,194.02515 127.1556,194.2479 C127.2051,194.49045 127.42785,194.7924 127.6506,194.93595 C127.8783,195.0795 128.05155,195.3171 128.05155,195.48045 C128.05155,195.624 128.1654,195.8814 128.2941,196.0398 C128.403,196.21305 128.5614,196.62885 128.6109,197.0001 C128.6901,197.3961 128.898,197.8317 129.17025,198.099 C130.16025,199.09395 131.076,201.3462 131.09085,202.81635 C131.09085,203.28165 131.04135,203.346 130.6899,203.346 C130.4028,203.346 130.28895,203.4252 130.28895,203.64795 C130.28895,204.06375 130.67505,204.336 131.19975,204.27165 C131.6007,204.22215 131.6502,204.27165 131.74425,204.86565 C132.066,206.81595 132.066,209.21175 131.74425,211.44915 C131.3136,214.31025 131.0265,215.27055 130.4325,215.60715 C129.71475,216.0378 128.93265,217.09215 128.10105,218.77515 C127.4427,220.1166 127.19025,220.46805 126.2151,221.29965 C125.60625,221.84415 123.9579,223.4232 122.56695,224.83395 C120.63645,226.7991 120.04245,227.48715 120.1068,227.74455 C120.1563,228.0465 120.04245,228.096 118.87425,228.26925 C118.1565,228.3831 117.117,228.5415 116.5428,228.6207 C114.1569,229.0068 110.65725,229.3236 109.98405,229.2147 C109.58805,229.1652 108.26145,229.02165 107.0289,228.9078 C105.79635,228.81375 104.6925,228.6702 104.54895,228.591 C104.42025,228.52665 103.68765,228.2841 102.93525,228.06135 C102.168,227.8386 101.4651,227.53665 101.35125,227.40795 C101.24235,227.27925 100.9206,227.1654 100.64835,227.1654 C99.99495,227.15055 98.5545,226.23975 98.5545,225.82395 C98.5545,225.5814 98.3169,225.43785 97.4853,225.17055 C96.03,224.6904 95.1192,224.08155 95.1192,223.5717 C95.1192,223.2351 95.04,223.17075 94.6539,223.17075 C94.38165,223.17075 93.96585,222.99255 93.67875,222.7401 C93.21345,222.354 93.1986,222.28965 93.42135,222.13125 C93.5649,222.0174 93.67875,221.7798 93.67875,221.5719 C93.67875,221.2353 93.62925,221.22045 92.97585,221.29965 C92.367,221.3937 92.2383,221.34915 91.8423,220.93335 C91.3275,220.4037 91.3275,220.41855 92.0502,220.1463 C92.43135,219.9879 92.56005,219.8295 92.56005,219.5226 C92.56005,219.14145 92.5254,219.14145 91.88685,219.25035 C90.45135,219.4929 90.53055,219.5226 89.41185,217.97325 L88.37235,216.5328 L88.86735,216.38925 C89.2485,216.28035 89.36235,216.15165 89.36235,215.86455 C89.36235,215.4933 89.31285,215.47845 88.6446,215.52795 C87.9417,215.57745 87.8922,215.5428 87.5556,214.9686 C87.23385,214.3944 87.219,214.3449 87.49125,214.20135 C87.6348,214.1073 87.7635,213.8994 87.7635,213.73605 C87.7635,213.4836 87.64965,213.41925 87.219,213.41925 C86.73885,213.41925 86.61015,213.32025 86.2587,212.7312 C85.8924,212.12235 85.87755,212.04315 86.1003,211.86495 C86.4369,211.62735 86.2785,211.1769 85.8627,211.1769 C85.5261,211.1769 84.96675,210.3156 84.50145,209.08305 C84.3579,208.66725 84.1005,208.22175 83.92725,208.06335 C83.30355,207.504 81.84825,204.1776 81.7839,203.15295 C81.7542,202.81635 81.6552,202.4649 81.56115,202.356 C81.48195,202.24215 81.2097,201.6828 80.96715,201.1086 C80.72955,200.52945 80.4078,199.8117 80.2791,199.50975 C80.13555,199.20285 80.05635,198.78705 80.0712,198.59895 C80.091,198.4059 80.0118,198.198 79.8831,198.1188 C79.76925,198.05445 79.40295,197.38125 79.06635,196.62885 C78.72975,195.8814 78.31395,194.96565 78.15555,194.5845 C77.97735,194.18355 77.8833,193.73805 77.94765,193.5153 C78.012,193.24305 77.94765,193.0995 77.7051,192.9708 C77.418,192.80745 77.06655,192.1689 75.94785,189.73845 C75.7548,189.34245 75.61125,188.95635 75.61125,188.892 C75.61125,188.8128 75.29445,188.0307 74.90835,187.13475 C73.53225,183.9519 72.59175,181.6353 71.55225,178.8039 C70.191,175.1409 70.0029,174.7251 69.6663,174.7251 C69.3594,174.7251 69.26535,175.1904 69.52275,175.46265 C69.7158,175.67055 70.0821,177.111 69.96825,177.2199 C69.9237,177.2694 69.3792,176.32395 68.77035,175.09635 C67.36455,172.31445 66.35475,170.39385 66.11715,170.10675 C65.98845,169.9335 65.98845,169.86915 66.14685,169.81965 C66.24585,169.77015 66.3399,169.58205 66.3399,169.37415 C66.3399,169.1019 66.24585,168.9732 65.98845,168.93855 C65.73105,168.90885 65.3499,168.44355 64.66185,167.3595 C63.4788,165.4686 62.21655,163.8549 61.90965,163.8549 C61.70175,163.8549 61.6077,163.76085 60.489,162.38475 C59.06835,160.6572 58.63275,160.01865 58.89015,160.01865 C59.04855,160.01865 59.14755,159.8751 59.14755,159.6177 C59.14755,159.3009 59.0634,159.2217 58.76145,159.2217 C58.29615,159.2217 57.5487,158.3406 57.5487,157.83075 C57.5487,157.62285 57.42,157.4595 57.17745,157.39515 C56.96955,157.3506 56.4894,156.9348 56.0934,156.4695 C55.7073,156.0042 55.03905,155.2221 54.5886,154.7271 C51.678,151.4997 49.13865,148.6188 49.08915,148.47525 C49.05945,148.39605 49.203,148.21785 49.37625,148.0743 C49.9356,147.69315 49.76235,147.1635 49.0743,147.09915 C48.7674,147.06945 48.4506,146.9754 48.3714,146.89125 C48.2724,146.81205 48.01995,146.7477 47.7774,146.7477 C47.26755,146.7477 47.025,146.49525 47.29725,146.223 C47.60415,145.9161 47.50515,145.2924 47.1537,145.19835 C46.80225,145.1043 46.7379,144.83205 47.01015,144.5598 C47.3319,144.23805 47.0745,143.9658 46.27755,143.7282 C45.6984,143.55 45.39645,143.55 45.05985,143.66385 C44.55,143.87175 44.43615,143.79255 44.43615,143.27775 C44.43615,143.0253 44.3421,142.91145 44.1342,142.91145 C43.9758,142.91145 43.5897,142.6392 43.3026,142.3026 C42.04035,140.8671 40.24845,138.7386 39.6099,137.92185 C39.2238,137.42685 38.50605,136.5309 38.01105,135.91215 C36.34785,133.86285 35.33805,132.19965 34.34805,129.80385 C33.9966,128.97225 33.5808,127.9971 33.4224,127.64565 C32.91255,126.55665 32.67,125.93295 32.2047,124.52715 C31.5018,122.3838 31.2147,121.5522 31.04145,121.2354 C30.70485,120.6117 30.52665,119.2653 30.7197,118.8495 C30.9276,118.38915 30.6702,117.97335 30.19005,117.97335 C30.03165,117.97335 29.8584,117.89415 29.8089,117.81 C29.7594,117.71595 29.79405,117.6516 29.87325,117.6516 C29.9673,117.6516 30.0465,117.53775 30.0465,117.414 C30.0465,117.2853 29.95245,117.17145 29.82375,117.17145 C29.4228,117.17145 29.0565,114.8697 29.4426,114.741 C29.58615,114.69645 29.58615,114.5529 29.40795,114.15195 C29.24955,113.751 29.2347,113.14215 29.32875,111.44925 C29.3931,110.25135 29.4723,108.22185 29.50695,106.9398 C29.53665,105.6627 29.61585,104.0787 29.71485,103.4253 C30.13065,100.2276 30.23955,99.49005 30.3831,99.23265 C30.4623,99.07425 30.52665,98.81685 30.52665,98.65845 C30.52665,98.5149 30.6405,98.21295 30.78405,98.0199 C30.9276,97.812 30.99195,97.5249 30.9276,97.33185 C30.86325,97.1388 30.8781,96.94575 30.9573,96.88635 C31.086,96.78735 32.08095,94.6143 32.4324,93.6243 C32.52645,93.38175 32.67,93.1887 32.76405,93.1887 C32.8482,93.1887 32.9274,93.0798 32.9274,92.9511 C32.9274,92.62935 33.77385,90.85725 34.7985,89.0505 C35.25885,88.23375 35.64495,87.516 35.64495,87.4665 C35.64495,87.32295 36.47655,86.12505 36.81315,85.8033 C36.9567,85.6449 37.08045,85.4073 37.08045,85.2786 C37.08045,85.13505 37.1943,84.9915 37.323,84.942 C37.4517,84.87765 37.5606,84.69945 37.5606,84.5262 C37.5606,84.348 37.7883,83.88765 38.0754,83.47185 C38.6199,82.6848 38.6496,82.64025 39.17925,82.0017 C39.36735,81.774 39.8178,81.1998 40.16925,80.71965 C40.9662,79.65045 44.3718,76.27455 45.5103,75.4281 C45.97065,75.07665 46.5003,74.8044 46.69335,74.8044 C46.88145,74.8044 47.05965,74.6757 47.10915,74.4876 C47.1537,74.3094 47.2527,74.16585 47.3319,74.16585 C47.4111,74.16585 47.47545,74.052 47.47545,73.92825 C47.47545,73.79955 47.5398,73.6857 47.60415,73.6857 C47.73285,73.6857 49.7277,72.37395 51.4701,71.12655 C51.95025,70.7751 52.49475,70.31475 52.67295,70.10685 C52.9749,69.72075 54.02925,69.3396 55.5489,69.04755 C56.68245,68.83965 57.59325,68.55255 57.82095,68.31495 C58.05855,68.0922 58.2516,68.05755 59.7069,68.013 C60.1524,67.9932 61.1919,67.89915 62.0235,67.7853 C63.54315,67.5774 67.0923,67.32495 67.70115,67.35465 C67.9239,67.3695 68.0031,67.4685 67.96845,67.69125 L67.96845,67.69125 Z M49.05945,71.1612 C48.85155,71.33445 48.38625,71.7057 48.0348,72.00765 C45.60435,74.00745 45.26775,74.2302 44.5995,74.2599 C43.65405,74.3094 42.58485,74.61135 41.57505,75.12615 C40.95135,75.4281 40.6494,75.52215 40.69395,75.3786 C40.8078,75.1113 42.966,73.7352 44.9955,72.6462 C45.7974,72.21555 46.46565,71.8146 46.48545,71.7354 C46.51515,71.67105 46.7379,71.6067 46.9656,71.59185 C47.2032,71.59185 47.79225,71.38395 48.2724,71.14635 C49.2327,70.6662 49.68315,70.68105 49.05945,71.1612 L49.05945,71.1612 Z M29.5515,94.18365 C29.2347,94.4361 25.87365,96.99525 25.3341,97.38135 C25.24995,97.4457 24.948,97.6833 24.6906,97.8912 L24.1956,98.2773 L24.1659,97.90605 C24.15105,97.69815 24.2451,97.46055 24.3738,97.3467 C24.5025,97.2378 24.6114,97.0596 24.6114,96.96555 C24.6114,96.75765 28.86345,94.21335 29.106,94.2777 C29.1852,94.29255 29.29905,94.21335 29.3436,94.10445 C29.3931,93.97575 29.53665,93.87675 29.66535,93.87675 C29.8584,93.87675 29.82375,93.95595 29.5515,94.18365 L29.5515,94.18365 Z M27.1557,107.37045 C26.9478,107.613 26.4825,108.07335 26.13105,108.40995 C25.7796,108.74655 25.14105,109.3554 24.6906,109.78605 C23.47785,110.95425 22.27995,111.89475 22.15125,111.78585 C22.10175,111.73635 22.05225,111.44925 22.05225,111.16215 C22.05225,110.682 22.20075,110.53845 23.89365,109.3059 C26.7894,107.21205 26.91315,107.13285 27.04185,107.1972 C27.1062,107.2269 27.1854,107.1972 27.24975,107.0982 C27.29925,107.019 27.3933,106.9398 27.4428,106.9398 C27.50715,106.9398 27.37845,107.13285 27.1557,107.37045 L27.1557,107.37045 Z M28.7694,120.1464 C28.7694,120.483 24.8985,124.24005 24.7401,124.0767 C24.6609,123.9975 24.56685,123.5817 24.51735,123.15105 L24.41835,122.36895 L25.2054,121.98285 C25.6212,121.7601 26.28945,121.32945 26.67555,121.0275 C27.61605,120.2751 28.49715,119.74545 28.6407,119.82465 C28.7199,119.87415 28.7694,120.0177 28.7694,120.1464 Z M71.3295,182.01645 C71.50275,182.4174 71.63145,182.754 71.60175,182.76885 C71.42355,182.89755 68.5476,183.67965 68.27535,183.67965 C68.09715,183.67965 67.8744,183.5361 67.7952,183.3777 C67.65165,183.1203 67.7308564,182.9916 68.211,182.6253 C68.9139,182.0808 70.69095,181.15515 70.8642,181.2492 C70.92855,181.28385 71.13645,181.6353 71.3295,182.01645 L71.3295,182.01645 Z M72.41355,184.25385 C72.5274,184.56075 72.5769,184.833 72.54225,184.8627 C72.3195,185.00625 70.2405,185.4369 69.73065,185.4369 C69.23565,185.4369 69.0723,185.3577 68.92875,185.05575 C68.77035,184.68945 68.7852,184.6548 70.22565,184.19445 C72.1413,183.57075 72.1908,183.57075 72.41355,184.25385 Z M80.586,203.2965 C80.7147,203.44005 80.7939,203.56875 80.75925,203.56875 C80.72955,203.5836 80.85825,203.90535 81.0315,204.3063 C81.46215,205.26165 81.4473,205.36065 80.8731,205.48935 C79.94745,205.6626 79.19505,205.59825 78.9228,205.2963 C78.6654,205.02405 78.6654,204.9894 79.002,204.81615 C79.2099,204.7221 79.64055,204.55875 79.97715,204.4647 C80.4078,204.32115 80.57115,204.19245 80.57115,203.95485 C80.57115,203.6331 80.5068,203.61825 79.2891,203.7123 C77.9625,203.82615 77.61105,203.64795 78.5367,203.36085 C79.8039,202.9797 80.31375,202.94505 80.586,203.2965 L80.586,203.2965 Z M95.0202,226.81395 C95.0697,226.89315 94.92615,227.0565 94.71825,227.1654 C94.09455,227.502 94.22325,228.60585 94.9113,228.6999 C95.0697,228.73455 95.80725,228.68505 96.5547,228.60585 C98.01,228.44745 98.49015,228.591 97.6734,228.94245 C97.4061,229.07115 97.1487,229.3236 97.08435,229.5315 C97.00515,229.85325 96.92595,229.88295 96.5745,229.80375 C95.70825,229.581 92.2383,227.30895 92.2383,226.9575 C92.2383,226.7496 94.8915,226.6209 95.0202,226.81395 L95.0202,226.81395 Z M116.8299,229.8186 C116.92395,230.01165 117.117,230.06115 117.4041,230.01165 C117.64665,229.96215 117.8694,229.98195 117.8991,230.06115 C118.0278,230.2542 117.64665,230.42745 117.1665,230.39775 C116.9388,230.37795 116.19135,230.5413 115.51815,230.76405 C114.65685,231.05115 114.11235,231.13035 113.69655,231.066 C113.31045,231.00165 112.86495,231.066 112.49865,231.22935 C111.90465,231.46695 111.8898,231.46695 111.72645,231.066 C111.5829,230.6502 111.5532,230.6502 110.49885,230.7492 C109.90485,230.81355 109.2168,230.89275 108.9792,230.9373 C108.5634,231.02145 108.5337,230.9868 108.57825,230.6502 C108.62775,230.2839 108.67725,230.2839 111.02355,230.1552 C112.35015,230.076 114.0777,229.93245 114.86475,229.8186 C115.6617,229.69485 116.37945,229.59585 116.4933,229.581 C116.60715,229.581 116.7507,229.67505 116.8299,229.8186 L116.8299,229.8186 Z M106.1181,229.9968 C106.821,230.1057 106.75665,230.29875 105.9597,230.4918 C105.5736,230.58585 104.5341,230.84325 103.653,231.066 C102.36105,231.4026 101.94525,231.4521 101.5938,231.3234 C101.35125,231.22935 101.19285,231.1155 101.24235,231.066 C101.2869,231.00165 101.89575,230.68485 102.5838,230.34825 C103.8807,229.7097 104.23215,229.67505 106.1181,229.9968 Z" id="Shape"></path>
                    <path d="M3.6828,92.664 C2.80665,92.7729 1.97505,93.4164 1.7523,94.10445 C1.63845,94.4361 1.4157,94.8222 1.2573,94.9509 C1.0494,95.1093 0.8217,95.71815 0.6138,96.5943 C0.34155,97.74765 0.31185,98.1486 0.44055,98.83665 C1.0296,101.88585 1.17315,102.465 1.287,102.465 C1.3662,102.465 1.6533,102.9105 1.92555,103.455 C2.6136,104.8311 3.79665,106.53885 4.6926,107.4843 C5.09355,107.91495 5.4252,108.33075 5.4252,108.3951 C5.4252,108.45945 5.79645,108.77625 6.2271,109.098 C7.07355,109.7217 7.02405,109.7217 8.8011,109.39995 C9.1674,109.3554 9.4248,109.37025 9.48915,109.4841 C9.5535,109.57815 9.85545,109.65735 10.1772,109.65735 C10.7019,109.65735 10.73655,109.62765 10.65735,109.21185 C10.5732,108.82575 10.63755,108.74655 11.1969,108.48915 C11.583,108.3159 11.93445,107.9793 12.078,107.6922 C12.22155,107.4051 12.47895,107.0685 12.672,106.92495 C12.97395,106.66755 12.9888,106.50915 12.97395,103.8213 C12.9393,101.61855 12.89475,100.9107 12.71655,100.7226 C12.58785,100.57905 12.3354,99.9999 12.14235,99.44055 C11.67705,98.0694 10.76625,96.29235 10.1277,95.4954 C8.44965,93.4461 5.94,92.34225 3.6828,92.664 Z M6.13305,93.97575 C6.8805,94.31235 8.3061,95.61915 7.9992,95.71815 C7.6032,95.84685 7.85565,96.37155 8.49915,96.73785 C9.0387,97.0299 9.2961,97.36155 9.8406,98.37135 C10.8009,100.1781 11.6622,102.861 11.6622,104.06385 L11.6622,105.0192 L10.9593,105.34095 C10.14255,105.70725 9.504,105.7419 8.99415,105.4548 C8.2269,105.039 6.7716,102.6234 5.7816,100.1781 C5.5539,99.64845 5.1876,99.61875 5.0589,100.0989 L4.96485,100.45035 L4.57875,100.0989 C4.26195,99.792 4.18275,99.49005 4.0194,97.95555 C3.76695,95.5251 4.0194,94.31235 4.78665,94.31235 C4.95,94.31235 5.1084,94.16385 5.1579,93.9906 C5.25195,93.6045 5.2371,93.6045 6.13305,93.97575 L6.13305,93.97575 Z" id="Shape"></path>
                </g>
            </g>
        </g>
    </g>
</svg>