<?xml version="1.0" encoding="UTF-8"?>
<svg width="120px" height="104px" viewBox="0 0 120 104" version="1.1" xmlns="http://www.w3.org/2000/svg" xmlns:xlink="http://www.w3.org/1999/xlink">
    <!-- Generator: Sketch 60.1 (88133) - https://sketch.com -->
    <title>24</title>
    <desc>Created with Sketch.</desc>
    <g id="Campaign-Page" stroke="none" stroke-width="1" fill="none" fill-rule="evenodd">
        <g id="do_something_v1-copy-13" transform="translate(-20.000000, -655.000000)" fill="#222831">
            <g id="24" transform="translate(80.000000, 707.000000) scale(-1, 1) translate(-80.000000, -707.000000) translate(20.000000, 655.000000)">
                <path d="M107.952131,82.4132865 C107.181717,83.0167776 106.820119,83.8911563 106.665208,84.8740557 C106.579882,85.4162451 106.084912,85.4903871 105.712545,85.5856533 C105.390296,85.6684936 105.0929,85.6792628 104.832367,85.94518 C104.724675,86.0553575 104.388344,86.0793811 104.247101,85.9932273 C103.795208,85.7177835 103.311421,85.5164817 102.89432,85.1490853 C101.425563,83.8567776 100.349054,82.2583752 99.3413023,80.6276652 C98.313255,78.963819 97.2371603,77.3177835 96.4497638,75.513109 C96.2049709,74.9514522 96.1950301,74.9560084 96.8113615,74.5198545 C97.3125449,75.4729314 97.7797638,76.4405054 98.3207106,77.3650025 C98.749823,78.0985527 99.2688171,78.7786711 99.791539,79.5461859 C99.9145567,79.2371918 99.9116573,79.0392036 99.7207106,78.7637598 C98.6810656,77.2618664 97.6940242,75.7260084 96.911184,73.9673101 C97.0362727,73.8857125 97.1874561,73.7867184 97.3378112,73.6889669 C97.3726041,73.7187894 97.4500597,73.78589 97.5826041,73.9006238 L97.5826041,73.2743516 C97.9541425,73.2002096 98.2908881,73.1335232 98.729113,73.0465409 C99.0708289,73.2060084 99.2331958,73.8107421 99.795681,73.8857125 C99.7774561,74.4974877 100.31219,74.8023397 100.581006,75.2492628 C100.914438,75.803464 101.366332,76.2860084 101.686095,76.6956533 C102.047279,76.647606 102.317338,76.5970735 102.589882,76.5780202 C103.546687,76.5109196 103.523492,76.5411563 104.119527,77.0667776 C104.781835,77.6508013 105.234971,78.4680202 106.089054,78.8391445 C106.144143,78.8627539 106.205444,78.9464226 106.208344,79.0048249 C106.234853,79.6194995 106.579054,79.8427539 107.156036,79.9918664 C107.640237,80.1173693 107.777752,80.6276652 107.800533,81.129677 C107.81793,81.5144699 107.888758,81.8967776 107.952131,82.4132865" id="Fill-351"></path>
                <path d="M22.5368881,11.0211977 C23.2219769,11.3641563 23.2219769,11.3641563 23.5906159,10.6463456 C24.0590774,10.4856356 24.6252905,10.8091267 25.0490183,10.3787717 C25.5257638,10.4976474 25.9962964,10.6591859 26.4800834,10.7258723 C27.2612668,10.8331504 27.6646988,11.4374699 28.105823,11.946109 C28.4052905,12.2915527 28.7188408,12.6382391 28.9926277,13.0135054 C29.3128053,13.4525587 29.6955272,13.8452214 30.0169473,14.283032 C30.3081307,14.6798368 30.5570656,15.108535 30.8155272,15.528535 C30.887184,15.6453397 30.9791366,15.7874107 30.9687816,15.9100143 C30.9410301,16.2364048 31.054107,16.4563456 31.2860597,16.6903693 C31.7321544,17.1401918 31.6973615,17.8004285 31.8522727,18.3620853 C31.9960005,18.8856356 31.9135745,19.4824995 31.867184,20.0420853 C31.8497875,20.2558131 31.8216218,20.7118486 31.3510893,20.3755172 C31.3179532,20.3514936 31.1535153,20.5267007 31.0404384,20.5929729 C30.9211485,20.6625587 30.7173615,20.7955172 30.675113,20.7586533 C30.1788999,20.3229137 30.0579532,20.634393 29.8309709,21.0651622 C29.4971248,21.6993042 29.2933378,21.6524995 28.3970064,21.4926178 C27.8515035,21.3948664 27.2732786,21.3778841 26.9539295,20.9044522 C26.0903201,19.6245705 25.2055863,18.3533871 25.0858822,16.7172924 C25.038249,16.0616119 24.8551721,15.3773516 24.3142254,14.9059906 C23.848249,14.4996593 23.5388408,13.9189492 22.9026277,13.6923811 C22.7108526,13.624038 22.5704384,13.3953989 22.421326,13.226819 C22.1044621,12.8672924 21.9342254,12.4675882 21.9259414,11.9618486 C21.9172431,11.4366415 22.3322727,11.3190084 22.5368881,11.0211977" id="Fill-353"></path>
                <path d="M95.7507993,53.8002273 C95.1916277,53.2410557 94.7223378,52.6934817 94.175178,52.2395172 C92.6057698,50.9372687 91.8606218,49.0949019 90.9220419,47.380109 C90.5003851,46.610109 90.6209177,45.7452569 90.6391425,44.9122983 C90.6424561,44.7677421 90.8421011,44.6273279 90.9589059,44.4757303 C91.1183733,44.7913516 91.2678999,45.0870912 91.486184,45.5186888 L91.486184,43.9766178 C91.8146455,43.8138368 92.138965,43.7251977 92.3601485,43.5238959 C92.6347638,43.2741326 92.9450005,43.3234226 93.1968348,43.3867954 C93.4900893,43.4605232 93.7402668,43.7053161 94.035178,43.892535 C93.8624561,44.7018841 94.1809769,45.3795172 94.5757106,46.0857303 C94.9290242,45.9900498 95.3461248,46.2410557 95.6998526,45.8782155 C95.774823,45.801174 96.0208585,45.794961 96.126894,45.858748 C96.9934029,46.3802273 98.0566573,46.6569137 98.4948822,47.7272096 C98.5735804,47.9202273 98.6609769,48.1695764 98.8192017,48.2553161 C99.0577816,48.3845468 98.8436396,48.7879788 99.2532845,48.8037184 C99.5904443,48.8165587 99.3750597,49.1603456 99.4355331,49.3475646 C99.5105035,49.5795172 99.6128112,49.8064995 99.6534029,50.044251 C99.690681,50.2621208 99.6612727,50.4915882 99.6612727,50.7177421 C98.7939354,51.4616474 98.2364206,52.4093397 97.808965,53.4651385 C97.115178,53.5778013 96.411036,53.692535 95.7507993,53.8002273" id="Fill-355"></path>
                <path d="M1.67150348,1.13620363 C1.87736147,0.855789433 2.03765733,0.622179966 2.21534964,0.401824936 C2.28037922,0.321884108 2.38061591,0.265552747 2.47381118,0.213363398 C2.73931414,0.0646651727 2.92901828,0.485079374 3.22600053,0.302002451 C3.45878159,0.158688841 3.73132597,0.0298722733 3.99682893,0.00419179989 C4.21718396,-0.0169324605 4.54398869,0.248570498 4.66245023,0.163245054 C4.92629638,-0.0268732889 5.08410704,-0.0840330522 5.31357449,0.173185883 C5.35623721,0.220404818 5.51239106,0.184783516 5.60972834,0.161174048 C6.32960999,-0.0123762474 6.32919579,-0.0144472534 6.71440289,0.685138545 C6.76700644,0.533540912 6.81256857,0.402653338 6.89540881,0.163659256 C7.00931414,0.471824936 7.12114846,0.690937362 7.16836739,0.922890025 C7.22635556,1.20620363 7.2404384,1.49987227 7.25369283,1.7898131 C7.26736147,2.08141073 7.25659224,2.37425097 7.42020171,2.67454683 L7.52955082,1.58851133 C7.56807153,1.58685452 7.60700644,1.58519772 7.64594135,1.58395511 C7.66706561,1.77614446 7.70434372,1.96833381 7.70558633,2.16093736 C7.71179934,3.13762375 7.66582301,4.11679535 7.72132597,5.09016813 C7.77061591,5.94880718 7.62357449,6.72626281 7.1385449,7.43620363 C6.95671059,7.26223914 6.78440289,6.99839298 6.5773023,7.41922139 C6.35073425,7.8789847 5.98789402,7.8441918 5.51901828,7.6333634 C5.44114846,8.13330423 5.40594135,8.72271251 4.57795319,8.53425097 L4.57795319,7.28212079 C4.52286443,7.27135156 4.46736147,7.26016813 4.41227272,7.2489847 C4.28097094,7.67602612 4.15008337,8.10306754 4.01505378,8.542535 C3.64517212,8.29484269 3.34197686,8.03141073 3.40203603,7.51034565 C3.41860408,7.36413263 3.24795319,7.20425097 3.19286443,7.04105571 C2.95469875,6.33111488 2.95842656,6.32945807 2.36901828,6.31247582 C2.25635556,6.30916221 2.14369283,6.31206162 2.03103011,6.31206162 L1.72162183,6.31206162 C1.43582301,6.02626281 1.17818988,5.75164742 0.902746088,5.49649949 C0.315823011,4.95431014 0.129018278,4.23649949 0.034994609,3.49052316 C-0.0113959235,3.1206415 0.0685449049,2.7341918 0.0159413546,2.36596695 C-0.0420468111,1.96004979 0.167124787,1.66016813 0.351858514,1.37436931 C0.720083366,0.804842687 0.92097094,0.78827464 1.67150348,1.13620363" id="Fill-357"></path>
                <path d="M67.5462668,10.0765291 C67.0645508,10.403748 66.6006455,10.7317954 66.1172727,11.0271208 C66.070468,11.0557007 65.9023023,10.885464 65.7208822,10.7587184 C65.6098763,10.9579492 65.5344917,11.1406119 65.4168585,11.2897243 C65.2785153,11.4657598 65.100823,11.6107303 64.9438408,11.7726829 C64.6257343,12.1003161 64.3192254,12.4652273 63.849107,11.9673575 C63.8130715,11.9296652 63.7037224,11.9669433 63.6295804,11.9590735 C63.1014739,11.9019137 62.5982195,12.0336297 62.0667993,11.6086593 C61.6389295,11.2665291 61.094255,11.0300202 60.6920656,10.6100202 C60.3151425,10.2157007 59.924965,9.84540482 59.6619473,9.34504979 C59.2585153,8.57670659 58.8600538,7.81706162 59.0037816,6.91534565 C59.0398171,6.6891918 59.1951425,6.48167701 59.3355567,6.17889594 C59.6196988,6.41167701 59.8118881,6.56907346 60.0363851,6.75339298 C60.2202905,6.14327464 60.1825982,5.43416221 60.7479828,4.89652908 C60.9695804,5.06220955 61.1837224,5.22209121 61.4508822,5.42173618 L61.4508822,4.59789002 C62.1931307,4.47114446 62.8674502,4.21599653 63.6113556,4.26073026 C64.0379828,4.28641073 64.4066218,4.42144032 64.676681,4.68031606 C65.0237816,5.01250541 65.448752,5.25025689 65.7320656,5.67605571 C65.9880419,6.06126281 66.3380419,6.38351133 66.6068585,6.78031606 C67.0479828,7.43268292 67.1970952,8.1952273 67.5197579,8.88942849 C67.6738408,9.22037523 67.5462668,9.68262375 67.5462668,10.0765291" id="Fill-359"></path>
                <path d="M19.7064443,31.6716119 L19.7064443,34.0955172 C19.9313556,33.4829137 19.8924206,32.8640971 19.9114739,32.2485942 C19.9189295,32.0009019 19.8017106,31.6927362 20.1020064,31.5448664 C20.4122431,31.3916119 20.7398763,31.2400143 21.0745508,31.1907243 C21.1896988,31.1737421 21.4088112,31.4462865 21.474255,31.6248072 C21.5446692,31.8165823 21.4904088,32.0539196 21.4904088,32.2958131 C21.6776277,32.2175291 21.7890479,32.126819 21.8888703,32.1380025 C22.0951425,32.1611977 22.3784561,32.3521445 22.4840774,32.275103 C23.0710005,31.8430912 23.714255,32.126819 24.3210597,32.0928545 C24.5956751,32.0775291 25.0111189,32.2610202 25.1428348,32.4838604 C25.4659118,33.032677 26.1178644,33.2004285 26.4595804,33.8461681 C26.4707638,34.1220261 26.5072135,34.4629137 26.7938408,34.8298959 C27.1695212,35.3107835 27.490113,35.9080616 27.3737224,36.6117894 C27.3194621,36.9390084 27.3641958,37.2823811 27.3641958,37.6812569 C26.5941958,38.1381208 25.7931307,38.5821445 25.0252017,39.0775291 C24.2216514,39.596109 23.4905863,39.2477658 22.8067402,38.8894817 C22.3076277,38.6277066 21.6378644,38.505103 21.4692845,37.8080025 C20.3534266,37.3059906 20.1550242,36.1300735 19.5594029,35.2416119 C19.1588703,34.6443338 19.1712964,33.9493042 19.0578053,33.3172332 C18.9641958,32.7949255 19.3328348,32.1897776 19.4968585,31.6214936 C19.5668585,31.6380616 19.6368585,31.6550439 19.7064443,31.6716119" id="Fill-361"></path>
                <path d="M41.5634266,43.8943989 C41.0879236,43.4188959 40.5838408,42.9148131 40.0163851,42.3473575 C40.0163851,41.971677 39.9774502,41.5239255 40.0362668,41.0894285 C40.0586337,40.92789 40.2918289,40.7646948 40.4653792,40.6698427 C40.5312372,40.633393 40.7006455,40.7866474 40.8240774,40.8541622 C40.9881011,40.5294285 41.0841958,40.089961 41.6388112,40.1968249 C41.7419473,40.2171208 41.8881603,40.2233338 41.9585745,40.1665882 C42.2348467,39.9429196 42.5355567,39.7146948 42.8888703,39.8128604 C43.522184,39.9893101 44.2279828,40.0924462 44.7217106,40.5294285 C45.6975686,41.3938664 46.6253792,42.3332746 47.1112372,43.581677 C47.4007638,44.3259965 47.6621248,45.0947539 47.8021248,45.8767658 C47.8630124,46.2188959 47.7706455,46.6886001 47.3808822,46.9611445 C46.7392845,47.4105527 46.1217106,47.8959965 45.4660301,48.3234522 C45.2427757,48.4688368 44.9279828,48.5694877 44.6674502,48.5467066 C43.0259709,48.4046356 41.8562668,47.6321504 41.3712372,45.7781859 C41.3004088,45.5081267 41.1310005,45.2268841 41.1674502,44.9742214 C41.220468,44.6084817 41.420113,44.2634522 41.5634266,43.8943989" id="Fill-363"></path>
                <path d="M44.3797461,84.7053516 C44.3350124,84.4787835 44.2902786,84.2526297 44.2455449,84.0260616 C44.2426455,84.9248782 43.2937106,85.2612096 43.0870242,86.0254107 C43.0132964,86.2987835 42.609036,86.4205587 42.4416988,86.2685468 C42.1687402,86.0216829 41.9827638,86.2018604 41.828681,86.3020971 C41.419036,86.5688427 41.071107,86.5431622 40.6527638,86.2987835 C39.4470242,85.5938131 38.203178,84.9460025 37.4924088,83.6536948 C36.6358408,83.1902036 36.385249,82.2487243 35.8530005,81.5329847 C35.5941248,81.1850557 35.5116988,80.7058249 35.331107,80.238606 C35.6458999,79.7800853 36.103178,79.9014462 36.6561366,80.1773042 C36.6027047,79.9167717 36.6172017,79.6769492 36.5078526,79.5290794 C36.3566692,79.3257066 36.5182076,79.2457658 36.6039473,79.2097303 C36.9932964,79.0469492 37.3958999,78.9276593 37.7164917,78.620322 C37.7947757,78.5449374 38.0163733,78.5747598 38.1538881,78.61618 C38.3995094,78.6907362 38.6099236,78.8477184 38.8828822,78.6257066 C38.9603378,78.5631622 39.2121721,78.688251 39.370397,78.7578368 C40.7302195,79.3551149 41.9608112,80.1039906 42.7660183,81.4294344 C42.874539,81.6083693 43.1189177,81.7980735 43.3015804,81.9683101 C43.8255449,82.4549965 43.9237106,83.164109 44.3292135,83.6889019 C44.5984443,84.0380735 44.5396277,84.3445823 44.3797461,84.7053516" id="Fill-365"></path>
                <path d="M112.94661,32.0399196 C112.976432,31.8315764 113.006255,31.622819 113.039391,31.3933516 C113.121403,31.4529965 113.194302,31.476606 113.213356,31.5225823 C113.502882,32.2308664 113.863651,32.9097421 114.033888,33.6673161 C114.140752,34.1436474 114.277024,34.5996829 113.816018,34.9708072 C113.502054,35.2234699 113.820574,35.9491504 113.114361,35.9085587 C112.781344,36.4432924 112.247853,36.3898604 111.737557,36.3534107 C111.622409,36.7112806 111.550752,37.060038 111.400397,37.371103 C111.230989,37.7215172 110.689628,37.8205113 110.109332,37.6548309 C109.976788,37.6171385 109.848799,37.488322 109.727438,37.4990912 C108.787202,37.581103 108.788859,37.5881445 108.393296,36.8467243 C108.195722,36.4768427 107.957143,36.1235291 107.803888,35.736251 C107.617498,35.2640616 107.327557,34.9691504 106.850811,34.7653634 C106.142941,34.4625823 105.683178,33.8487362 105.560989,33.1184995 C105.450397,32.4574344 105.759805,31.8510439 106.350042,31.3747125 C106.642468,31.756606 106.934066,32.1372569 107.342882,32.670748 C107.342882,32.1248309 107.337083,31.7574344 107.344539,31.3904522 C107.351995,31.0255409 107.391758,31.1000971 107.969154,30.8399788 C108.381699,30.6540025 108.979391,30.8793279 109.216728,30.3069019 C109.624302,30.2911622 110.031462,30.276251 110.439036,30.2605113 C111.19164,30.2306888 111.859332,30.3127007 112.21016,31.1493871 C112.349332,31.480748 112.682764,31.7309255 112.94661,32.0399196" id="Fill-367"></path>
                <path d="M1.58149757,37.528251 C0.690136621,37.3352332 0.377000526,36.7031622 0.295817094,36.1477184 C0.191852597,35.4373634 -0.0487982904,34.7410912 0.00877567412,33.9901445 C0.0833318871,33.0180143 0.0779472718,32.0318013 0.00504786347,31.0596711 C-0.0301592371,30.5878959 0.272621828,30.2387243 0.265580408,29.7976001 C0.263923603,29.6828664 0.423391059,29.4608545 0.498775674,29.4654107 C1.08031414,29.4985468 1.35658633,28.868961 1.96629047,28.8652332 C2.37013662,28.8631622 2.77191177,28.4845823 3.22504786,28.2476593 C3.67155674,28.6941681 4.62132005,28.142038 4.98333189,29.1265942 C4.74640881,29.8183101 5.3366455,30.4259433 5.53670467,31.1346415 C5.56445615,31.2336356 5.66842064,31.3218604 5.66924905,31.4154699 C5.67877567,32.5317421 5.67504786,33.6476001 5.67504786,34.8599669 C5.49445615,34.6996711 5.41617212,34.6304995 5.22191177,34.4577776 C5.28279934,34.7199669 5.27120171,34.9208545 5.36066917,34.9887835 C5.45593544,35.0616829 5.65682301,34.9809137 5.7918526,35.0260616 C5.85315437,35.0463575 5.88587627,35.2083101 5.89250348,35.3085468 C5.89581709,35.3545232 5.79599461,35.4560025 5.7595449,35.4485468 C5.48617212,35.3951149 5.21652715,35.3205587 4.92120171,35.2468309 C4.71948573,35.6833989 4.50410112,36.1493752 4.34339106,36.4977184 C4.03563958,36.4749374 3.85173425,36.4608545 3.66824313,36.4471859 C3.99007745,36.7719196 3.62019579,36.8887243 3.48640881,37.0883693 C3.35013662,37.2909137 3.25031414,37.5178959 3.14220763,37.7196119 C2.4314384,37.6425705 2.16634964,37.184464 1.9762313,36.5776593 C1.84161591,36.902393 1.72025496,37.1935764 1.58149757,37.528251" id="Fill-369"></path>
                <path d="M84.7325922,89.4749196 C84.1481544,89.4583516 83.5951958,89.3005409 83.3127106,89.9483516 C82.8355508,89.3195942 82.7792195,88.8734995 83.2650774,88.3739729 C83.6005804,88.0293575 83.8217638,87.5990025 84.2492195,87.3011918 C84.6232431,87.0402451 84.7607579,86.4632628 85.0830064,86.0958664 C85.3306988,85.8133811 85.7026514,85.6394167 86.0195153,85.417819 C86.1185094,85.5143279 86.2253733,85.619535 86.3939532,85.7848013 C86.2150183,85.911961 86.039397,86.0370498 85.8633615,86.1617243 C85.8828289,86.2068723 85.9027106,86.2520202 85.922178,86.2971681 C86.1798112,86.2565764 86.4370301,86.2159847 86.7265567,86.1704226 C86.8035982,86.2859847 86.8930656,86.5825527 87.0848408,86.6823752 C88.2367343,87.2821385 88.9719414,88.2832628 89.6719414,89.3108959 C89.901823,89.6480557 89.9809354,90.0842096 90.1656692,90.4574048 C90.6217047,91.3798309 90.7393378,91.5500675 90.6005804,92.3884107 C90.5003437,92.9943871 90.389752,93.6405409 89.9138348,94.1342687 C89.7257875,94.3289433 89.5253141,94.6101859 89.5153733,94.859535 C89.4905212,95.4891208 89.1446632,95.5897717 88.6360242,95.557464 C88.4939532,95.5483516 88.3435982,95.5665764 88.205255,95.6038545 C87.318036,95.8424344 87.2264976,95.8175823 86.7841307,95.137464 C86.1288644,94.1305409 85.8157283,92.9790616 85.4346632,91.85989 C85.1654325,91.06918 84.9599887,90.256103 84.7325922,89.4749196" id="Fill-371"></path>
                <path d="M70.3682195,77.0820616 C69.7407047,76.7258486 69.1053201,76.4139551 68.5937816,75.8982746 C67.6407047,74.9356711 66.6176277,74.0339551 65.7382786,73.008393 C64.8137816,71.9302273 63.8350242,70.8673871 63.2770952,69.6032451 C63.3359118,69.1041326 63.9862076,69.6343101 63.9986337,69.0453161 C64.0023615,68.8771504 64.4144917,68.7147835 64.6431307,68.5553161 C65.2105863,68.1593397 65.5274502,68.0930675 65.940823,68.5329492 C66.3488112,68.9674462 66.8205863,69.1231859 67.3544917,69.2362628 C68.1791662,69.4110557 68.7482786,70.0443693 69.4540774,70.4341326 C70.2091662,70.850819 70.7472135,71.5218249 71.3606455,72.104606 C71.6783378,72.4061445 72.0730715,72.6376829 72.3460301,72.9715291 C72.6206455,73.3074462 72.872894,73.7112924 72.9702313,74.124251 C73.0290479,74.3756711 72.8401721,74.7550794 72.6479828,74.9791622 C72.4106455,75.2554344 72.298397,75.6543101 71.8829532,75.7880971 C71.6427165,75.8651385 71.676681,76.1335409 71.6298763,76.3547243 C71.5760301,76.6086297 71.5052017,76.9176238 71.0644917,76.5986888 C70.756326,76.3762628 70.497036,76.6918841 70.3682195,77.0820616" id="Fill-373"></path>
                <path d="M115.845024,70.5486593 C114.557687,70.0184817 114.004314,69.0326829 113.454255,68.0746356 C112.970882,67.2325646 112.530172,66.3557007 112.170645,65.4539847 C111.812361,64.5535113 111.187332,63.7002569 111.466089,62.5670025 C112.280409,63.1344581 112.212894,64.219251 112.994906,64.9445172 C112.851592,63.79718 112.256385,62.9107894 111.959403,61.7021504 C112.37029,61.9274758 112.519403,62.0090735 112.701651,62.1088959 C112.736859,61.9121504 112.773722,61.7058782 112.810172,61.5004344 C113.150645,61.435819 113.486563,61.372032 113.883367,61.2966474 C113.988574,61.4648131 114.126503,61.7133338 114.290527,61.9436297 C114.930054,62.8395468 114.933782,62.8354048 116.095202,63.2483634 C116.224847,63.2947539 116.346208,63.3701385 116.463841,63.4446948 C117.363486,64.0129788 118.182361,64.6533338 118.677332,65.6412036 C118.860409,66.0065291 119.109758,66.677535 119.098574,67.0664699 C119.096089,67.1575942 119.172302,67.2644581 119.238574,67.3414995 C119.407569,67.5374167 119.331356,67.7043397 119.156563,67.8033338 C118.649166,68.0895468 118.429225,68.6528604 117.978574,68.9900202 C117.786385,69.133748 117.752006,69.325109 117.717214,69.5624462 C117.669166,69.8855232 117.035438,70.3042806 116.740527,70.2363516 C116.557864,70.194103 116.439817,69.8586001 116.190882,70.1058782 C116.060409,70.2359374 115.961001,70.3974758 115.845024,70.5486593" id="Fill-375"></path>
                <path d="M79.2642668,44.2238545 C79.067107,44.2565764 78.8604206,44.2905409 78.575036,44.3377598 C78.6876988,44.5490025 78.7680538,44.6989433 78.8521366,44.8563397 C78.3157461,45.3927303 77.7574029,45.9510735 77.1816632,46.5272273 C77.0888822,46.5272273 76.9753911,46.5102451 76.8685272,46.5297125 C75.6014857,46.7641504 74.7577579,46.0450971 74.0540301,45.178174 C73.5043851,44.5009551 73.0317816,43.7549788 72.6639709,42.9410735 C72.4345035,42.4328486 72.2294739,41.9648013 72.3934976,41.2743279 C72.7778763,42.1192983 73.1204206,42.8714877 73.462965,43.6240912 C73.5238526,43.6042096 73.5847402,43.5847421 73.6460419,43.5648604 C73.6182905,43.4215468 73.6141485,43.2678782 73.5586455,43.1361622 C73.3295922,42.5919019 73.0690597,42.0600675 72.8532609,41.511251 C72.7575804,41.2681149 72.5525508,40.9653338 73.0748585,40.8522569 C73.2359828,40.817464 73.3304206,40.4699492 73.4534384,40.2640912 C73.5611307,40.0834995 73.6655094,39.9008368 73.7508348,39.755038 C74.2789414,39.7065764 74.2839118,40.1684107 74.6132017,40.3589433 C74.5365745,40.068174 74.4599473,39.7774048 74.3588822,39.3946829 C74.5278763,39.2608959 74.7536159,39.081961 74.9793556,38.9026119 C75.1218408,39.0442687 75.3107165,39.2700084 75.4859236,38.8537362 C75.6760419,38.4039137 75.9568703,38.2287066 76.4120774,38.524032 C76.4534976,38.5509551 76.5392372,38.5716652 76.5665745,38.5492983 C77.0938526,38.1148013 77.4045035,38.5476415 77.648468,38.8798309 C78.2308348,39.6738545 78.505036,40.6273456 78.8537934,41.5344462 C78.9358053,41.7473456 79.114326,42.2472865 78.5137343,42.2713101 C78.4797698,42.2725527 78.4536751,42.4593575 78.4242668,42.5595942 C78.5493556,42.5898309 78.7415449,42.6867539 78.789178,42.6387066 C79.1259236,42.3011326 79.3073437,42.7418427 79.2742076,42.8192983 C79.0716632,43.2952155 79.5409532,43.7549788 79.2642668,44.2238545" id="Fill-377"></path>
                <path d="M75.173823,20.1192924 C75.3063674,20.2518368 75.439326,20.3847954 75.6410419,20.5860971 C75.6779059,20.266748 75.7085567,20.0033161 75.742107,19.7158604 C76.2068408,19.6185232 76.6860715,19.4959196 77.1727579,19.4238486 C77.4668408,19.3803575 77.7774917,19.3816001 78.0707461,19.426748 C78.2944147,19.4615409 78.1187934,19.8782273 78.535894,19.914677 C78.805539,19.9382865 79.0126396,20.396393 79.2044147,20.7153279 C79.3601544,20.9742036 79.1269591,21.5346178 79.7184384,21.5010675 C79.7387343,21.8676356 79.7590301,22.2346178 79.7801544,22.6011859 C79.7818112,22.6368072 79.7900952,22.6720143 79.7954798,22.7076356 L81.473823,24.3859788 C81.6535863,24.3859788 81.8441189,24.3627835 82.0259532,24.3913634 C82.3063674,24.4365113 82.6083201,24.7144403 82.4645922,24.886748 C82.1448289,25.2698841 82.7180834,25.5345587 82.4906869,25.8472806 C81.6171366,26.1090557 81.3416928,26.1380498 80.6309236,26.0137894 C80.8090301,26.3985823 80.9639414,26.7340853 81.1586159,27.1557421 C81.0451248,27.264677 80.8955982,27.53018 80.7481425,27.5293516 C79.8174325,27.5223101 78.8378467,27.7584048 78.0082017,27.0977539 C77.7832905,26.9184048 77.5115745,26.7779906 77.3367816,26.5588782 C76.9379059,26.0593516 76.5808644,25.5262746 76.2167816,24.9994107 C76.0374325,24.7397066 75.884178,24.4613634 75.7118703,24.1962746 C75.4451248,23.7858013 75.5242372,23.194322 75.0350656,22.9006533 C75.1092076,22.4027835 74.8283792,22.0262746 74.6490301,21.596748 C74.4050656,21.0131385 74.556249,20.4547954 75.173823,20.1192924" id="Fill-379"></path>
                <path d="M40.311752,3.37487819 C40.7520479,3.37487819 41.0531721,3.37446399 41.3538822,3.37487819 C41.7568999,3.37570659 42.1930538,3.3081918 42.2854206,3.89055866 C42.2953615,3.95517405 42.4461307,4.05416813 42.5182017,4.0438131 C42.9953615,3.9729847 43.1192076,4.42404979 43.4112195,4.62245215 C44.2035863,5.16091369 44.3203911,6.04771843 44.5183792,6.86783677 C44.6314561,7.33546991 44.4802727,7.67097286 43.9480242,7.98949358 C43.3507461,8.3469492 42.603113,8.56896103 42.1930538,9.21842849 C41.8310419,9.22546991 41.5348881,9.79168292 41.1119887,9.33854683 C41.0506869,9.27310304 40.9148289,9.25115038 40.814178,9.25280718 C39.3884976,9.28014446 38.4963082,8.46168292 37.7511603,7.37026281 C37.3729946,6.81689002 36.8995627,6.32233381 36.7512786,5.64097286 C36.6903911,5.36138707 36.6547698,5.07475985 36.6348881,4.78937523 C36.6278467,4.69576576 36.6829354,4.5333989 36.7483792,4.50978943 C37.3220479,4.30475985 37.7391485,3.81558825 38.2954206,3.61635748 C38.9813378,3.37115038 39.7148881,3.29742257 40.311752,3.37487819" id="Fill-381"></path>
                <path d="M38.500823,58.1681445 C38.6660893,58.4278486 38.7874502,58.6192096 39.0235449,58.990748 C39.0765627,58.5972569 39.0968585,58.4626415 39.112184,58.3276119 C39.1618881,57.8798604 39.1610597,57.8806888 39.7268585,57.8231149 C39.7976869,57.8156593 39.9066218,57.8251859 39.9318881,57.7850084 C40.1899354,57.3782628 40.5929532,57.2643575 40.9996988,57.386961 C41.4607047,57.5257184 41.9556751,57.6996829 42.3143733,58.0020498 C43.7139591,59.1816948 44.5373911,60.7627007 45.1769177,62.4402155 C45.2854384,62.7264285 45.1922431,63.0892687 45.1922431,63.4123456 C45.0244917,63.3937066 44.8927757,63.3792096 44.7606455,63.3642983 C44.7892254,63.7693871 44.6976869,64.0696829 44.2238408,64.1653634 C44.0817698,64.1943575 43.8875094,64.4064285 43.8734266,64.5493279 C43.8257934,65.0372569 43.32461,64.7995054 43.1498171,65.0534107 C42.8706455,64.6089729 42.3901721,65.1470202 42.0762076,64.8293279 C41.7754976,64.5253042 41.3637816,64.2908664 41.164965,63.9338249 C40.7271544,63.1472569 40.3079828,62.3287954 40.0515922,61.4722273 C39.9207047,61.0340025 39.7264443,60.742819 39.3888703,60.5440025 C38.8408822,60.2221681 38.4150834,59.81418 38.1475094,59.2342983 C37.924255,58.7500971 37.9147283,58.7546533 38.500823,58.1681445" id="Fill-383"></path>
                <path d="M59.6720124,45.0300143 C59.6720124,44.9177658 59.6450893,44.7616119 59.681539,44.6216119 C59.7059769,44.5280025 59.8662727,44.4642155 59.8803556,44.3743338 C59.895681,44.2761681 59.7805331,44.1635054 59.7792905,44.0566415 C59.7784621,43.9617894 59.9118348,43.8453989 59.8857402,43.7753989 C59.838107,43.6465823 59.7312431,43.5272924 59.6214798,43.4378249 C59.5485804,43.37818 59.4272195,43.3773516 59.2772786,43.3367598 C59.3476928,43.5815527 59.4044384,43.7787125 59.4615982,43.9762865 C59.0627224,43.7331504 58.6195272,43.5393042 58.8146159,42.9532096 C58.979468,43.0236238 59.1414206,43.0936238 59.3423082,43.1797776 C59.4069236,42.474393 58.7528999,42.8413752 58.5010656,42.5075291 C58.8697047,42.5510202 59.115326,42.2971149 59.486036,42.3464048 C59.6579295,42.3691859 59.8815982,42.0038604 60.1450301,41.7545113 C60.5107698,42.0531504 60.9208289,42.3874107 61.4004739,42.7788309 C61.4472786,42.4926178 61.4808289,42.2888309 61.5214206,42.0407243 C62.06361,41.9359314 62.619468,41.8286533 63.181539,41.7201326 C63.4702372,42.0887717 63.6959769,42.425103 63.9710064,42.7146297 C64.2095863,42.9648072 64.5376337,43.1317303 64.7675153,43.3881208 C65.4161544,44.1121445 65.7102372,45.0262865 65.9769828,45.9304877 C66.0726632,46.2539788 66.1778703,46.7659314 65.559468,46.8524995 C65.5623674,47.446464 64.9360952,47.535103 64.65361,47.9116119 C64.299468,48.3829729 63.6731958,48.4641563 62.9972195,48.1911977 C61.9849118,47.7823811 61.3197047,46.9920853 60.6731366,46.2224995 C60.3496455,45.8368782 59.9863911,45.4732096 59.6720124,45.0300143" id="Fill-385"></path>
                <path d="M78.2877875,59.6789433 C78.470036,59.7410735 78.6460715,59.8007184 78.8477875,59.8694758 C78.8887934,58.9192983 77.9067224,58.6529669 77.770036,57.778174 C77.9688526,57.8659847 78.1308053,57.9032628 78.2480242,57.9964581 C78.4360715,58.1463989 78.5942964,58.3327894 78.8287343,58.5672273 C78.7487934,58.0908959 78.6957757,57.9815468 78.4240597,57.6555705 C79.0180242,56.9373456 79.0180242,56.9373456 79.7192668,56.9348604 C80.1048881,57.3693575 80.434178,57.9417835 80.9283201,58.243322 C81.473823,58.5767539 81.6345331,59.1458664 82.0367224,59.5538545 C82.4211011,59.9444462 82.676249,60.4762806 82.9309828,60.975393 C83.0709828,61.2487658 83.1898585,61.5979374 83.1442964,61.885393 C83.0863082,62.2486474 82.931397,62.7825527 82.6745922,62.8856888 C82.252107,63.0559255 82.3465449,63.3545646 82.2135863,63.6113693 C82.0313378,63.9621977 81.7819887,64.3034995 81.3247106,64.3788841 C81.0575508,64.4227894 80.7394443,64.6265764 80.5435272,64.5383516 C80.0667816,64.3233811 79.5742964,64.0495942 79.2218112,63.6739137 C78.5566041,62.9648013 77.9618112,62.1848604 77.3926988,61.3945646 C77.2497993,61.1965764 77.3156573,60.8486474 77.2734088,60.4572273 C77.463113,60.6104817 77.5384976,60.6709551 77.6983792,60.7997717 C77.615539,60.2236178 78.1192076,60.0260439 78.2877875,59.6789433" id="Fill-387"></path>
                <path d="M72.3490538,101.107967 C72.0404739,100.938559 71.8917757,100.856961 71.7476337,100.777434 C71.4937283,101.69489 71.4307698,101.742523 70.6806514,101.411991 C70.8786396,101.872997 71.0372786,102.241636 71.2100005,102.642582 C71.0140834,102.756073 70.81361,102.872878 70.6110656,102.990511 C70.2449118,102.624772 69.8733733,102.253233 69.4674561,101.846902 C69.2230774,102.397375 69.8957402,102.651695 69.829468,103.183115 C69.2259769,103.267198 68.8759769,102.856724 68.5284621,102.478973 C68.3387579,102.272701 68.236036,101.984831 68.0405331,101.786014 C67.1690538,100.901281 66.3862135,99.94489 65.6563911,98.9425232 C65.5909473,98.8526415 65.5002372,98.7805705 65.4190538,98.7027007 C64.9791721,98.2831149 64.5181662,97.8776119 64.4854443,97.1937658 C64.9244976,96.9249492 65.1576928,97.3391504 65.4563319,97.5955409 C65.7599414,97.0931149 65.0574561,97.0260143 65.0889354,96.6557184 C65.1158585,96.2092096 65.9653851,96.7787362 65.7495863,96.0489137 L66.9727224,96.0489137 C67.3227224,96.2953634 67.6776928,96.5393279 68.0256218,96.7924048 C68.3747934,97.0463101 68.6055035,97.4112214 69.0329591,97.6179078 C69.4479887,97.8192096 69.7230183,98.2938841 70.0883437,98.6157184 C70.3265094,98.8257184 70.4776928,99.1144167 70.8583437,99.2088545 C71.1337875,99.2767835 71.2808289,99.6947125 71.6991721,99.6408664 C71.8155627,99.6255409 72.0255627,99.8359551 72.0847934,99.9854817 C72.1978703,100.270452 72.2326632,100.585659 72.3490538,101.107967" id="Fill-389"></path>
                <path d="M64.5874206,25.5580853 C64.9759414,25.5837658 65.2443437,25.3828782 65.5997283,25.6392687 C65.4191366,25.7013989 65.288249,25.7465468 65.1453496,25.7958368 C65.2787224,26.2485587 65.4270064,26.6983811 65.5359414,27.1573161 C65.5636928,27.2749492 65.5019769,27.5073161 65.4203792,27.5416948 C64.9672431,27.7330557 64.8301425,28.2205705 64.4772431,28.4877303 C64.3210893,28.6061918 64.0870656,28.6447125 63.8828644,28.6679078 C63.7805567,28.6790912 63.6600242,28.5245942 63.5577165,28.5353634 C63.4330419,28.5486178 63.3187224,28.6575527 63.1874206,28.732109 C62.9935745,28.0470202 63.0035153,28.0192687 62.2401425,27.7591504 C61.7832786,27.6034107 61.6884266,27.1544167 61.3645212,26.8719314 C61.292036,27.0264285 61.222036,27.1755409 61.143752,27.3428782 C61.0298467,27.2235882 60.8380715,27.1150675 60.8384857,27.0073752 C60.8442845,25.6616356 60.8430419,25.6313989 60.2287816,24.8249492 C59.8825094,25.4334107 60.5460597,25.7854817 60.5820952,26.3806888 C60.4176573,26.3550084 60.172036,26.3740616 60.1434561,26.3040616 C59.8547579,25.6024048 59.4148763,24.9396829 59.8659414,24.0980261 C60.0059414,23.8366652 60.0312076,23.6995646 60.3455863,23.69418 C60.5394325,23.6912806 60.7477757,23.5773752 60.9204976,23.4680261 C61.368249,23.1851267 61.7994325,22.876961 62.2778348,22.5509847 C62.387184,22.71418 62.488249,22.8653634 62.4638112,22.8284995 C62.8411485,23.0915172 63.2346396,22.3832332 63.2975982,23.1217539 C63.315823,23.3313397 63.7842845,22.8313989 63.7842845,23.3802155 C63.7842845,23.5922865 64.1740479,23.8047717 64.369965,24.0006888 C64.299965,24.182109 64.2336928,24.3552451 64.1670064,24.5283811 C64.2225094,24.5669019 64.2780124,24.6054226 64.3339295,24.6439433 C64.4320952,24.4571385 64.5302609,24.2703338 64.654107,24.0354817 C64.855823,24.3784403 64.9730419,24.5768427 65.1267106,24.8373752 C64.9597875,25.0602155 64.7738112,25.3091504 64.5874206,25.5580853" id="Fill-391"></path>
                <path d="M26.6178053,59.2989137 C26.3576869,58.9708664 26.1518289,58.7111622 25.9231899,58.4220498 C25.8067993,58.6602155 25.7326573,58.8113989 25.6361485,59.0085587 C25.2016514,58.8047717 24.9092254,58.4684403 24.6602905,58.1176119 C24.1102313,57.3418131 23.6848467,56.4860735 23.1273319,55.709032 C22.7843733,55.2314581 22.7640774,54.6312806 22.8995212,54.0099788 C23.4143733,53.9056001 23.5257934,54.510748 23.9549059,54.6635882 L23.9549059,53.5638841 C24.7659118,53.4495646 25.5475094,53.3393871 26.2640774,53.2387362 C27.0158526,53.9138841 27.510823,54.6432924 27.8616514,55.4857776 C28.0621248,55.9658368 28.4750834,56.3261918 28.6005863,56.8754226 C28.6502905,57.092464 28.3719473,57.3844758 28.7144917,57.5460143 C28.7202905,57.5484995 28.6125982,57.8127598 28.6092845,57.8115172 C28.050113,57.6098013 27.8620656,58.4208072 27.3240183,58.290748 C27.2892254,58.2820498 27.1939591,58.4899788 27.1405272,58.6038841 C27.0812964,58.7289729 27.0547875,58.8722865 26.9818881,58.9874344 C26.9280419,59.0735882 26.8236632,59.1274344 26.6178053,59.2989137" id="Fill-393"></path>
                <path d="M51.6375449,72.960677 C51.7990834,73.3342865 51.9167165,73.6064167 52.0848822,73.9945232 C52.1917461,73.7116238 52.241036,73.5819788 52.2932254,73.444464 C52.3437579,73.4755291 52.4265982,73.4970675 52.4373674,73.5376593 C52.5392609,73.9249374 52.7231662,74.2558841 53.002752,74.5499669 C53.1700893,74.7260025 53.291036,74.9525705 53.4049414,75.1708545 C53.6058289,75.5573042 53.8907993,75.8211504 54.3522195,75.9031622 C54.4247047,75.756535 54.4992609,75.6049374 54.5340538,75.5345232 C54.7477816,75.6944048 54.9801485,75.8687835 55.1532845,75.9984285 C55.1532845,76.1392569 55.1681958,76.1997303 55.1512135,76.2109137 C54.9465982,76.3438723 54.7374266,76.4693752 54.5464798,76.58618 C54.6019828,76.8947598 54.6516869,77.1743456 54.7266573,77.593103 C54.388255,77.4286652 54.203107,77.3383693 53.9363615,77.2083101 C53.7884917,77.5057066 53.6402076,77.8047598 53.4807402,78.12618 C53.3291425,78.1431622 53.1514502,78.1638723 52.9339946,78.1883101 L52.9339946,78.690322 C52.366539,79.1152924 51.9022195,79.0581326 51.4101485,78.6095527 C50.8741721,78.1207954 50.2698526,77.7078368 49.723107,77.1258841 C49.9529887,76.9738723 50.1750005,76.8272451 50.4185508,76.666535 C50.2942905,76.2109137 50.071036,75.8041681 49.7492017,75.406535 C49.4273674,75.0084877 49.2509177,74.492393 49.0193792,74.0442273 C49.350326,73.6362391 49.6116869,73.9381918 49.9152964,74.0657658 C49.9281366,73.9518604 49.9807402,73.8304995 49.9447047,73.7484877 C49.7181366,73.2390202 49.8163023,72.9871859 50.2963615,72.9652332 C50.7470124,72.944109 51.1993201,72.960677 51.6375449,72.960677" id="Fill-395"></path>
                <path d="M19.488036,77.4272983 C19.677326,77.7072983 19.831823,77.9363516 20.0248408,78.2217362 C20.0749591,78.0655823 20.1437165,77.9649314 20.1279769,77.8808486 C20.0509354,77.4728604 19.951113,77.0694285 19.8467343,76.609251 L20.5032431,76.609251 C20.5599887,76.7272983 20.6295745,76.8718545 20.7670893,77.1580675 L20.7670893,76.2352273 C20.8954917,76.1900794 21.0048408,76.1764107 21.081468,76.1196652 C21.2566751,75.9891918 21.5341899,75.693038 21.5627698,75.7162332 C21.8498112,75.9523279 22.2043674,75.8098427 22.4827106,75.9167066 C22.8977402,76.0757598 23.2920597,76.3532746 23.2866751,76.8826238 C23.2850183,77.0408486 23.0754325,77.2168841 23.1069118,77.3498427 C23.1325922,77.4579492 23.4225331,77.4819729 23.5091011,77.6041622 C23.5799295,77.7039847 23.5857283,77.9715587 23.5128289,78.029961 C23.2199887,78.2635705 23.2846041,78.5659374 23.3044857,78.849251 C23.329752,79.2029788 23.1748408,79.4179492 22.8608763,79.5070025 C22.5253733,79.6022687 22.4470893,79.8172391 22.3766751,80.1382451 C22.2768526,80.5917954 21.9657875,80.8933338 21.439752,80.8709669 C21.2579177,80.8635113 21.0694561,80.8676533 20.8930064,80.906174 C20.4440124,81.0043397 19.8782135,80.8966474 19.7382135,80.5673575 C19.3964976,79.7638072 18.9019414,79.0045764 18.993894,78.0589551 C19.0299295,77.6903161 19.2519414,77.5855232 19.488036,77.4272983" id="Fill-397"></path>
                <path d="M55.713036,57.1049314 C55.9938644,57.1873575 56.2871189,57.2730971 56.6474739,57.3787184 C56.8003141,57.0146356 56.8454621,56.6650498 56.5232135,56.3399019 C56.9191899,55.979961 57.1826218,56.5225646 57.5707283,56.463748 C57.6067638,56.2678309 57.6452845,56.0615587 57.6825627,55.8594285 C57.9865863,55.5338664 58.2607875,56.1344581 58.628184,55.8511445 C59.0038644,55.5612036 59.0987165,56.1870616 59.4180656,56.2587184 C59.5974147,56.2988959 59.7651662,56.4857007 59.8931544,56.6430971 C60.3172964,57.1633338 60.3835686,57.8993693 60.954752,58.353748 C61.0914384,58.4622687 61.018539,58.835464 61.0491899,59.1672391 C60.4158763,58.856174 60.3773556,59.8610261 59.7672372,59.6228604 C59.5796041,59.9264699 59.7568822,60.4769433 59.0705508,60.5428013 C58.9980656,60.4193693 58.8845745,60.2259374 58.723036,59.9500794 C58.5855212,60.2371208 58.5188348,60.3762924 58.4504917,60.519606 C58.066113,60.6107303 57.8900774,60.2793693 57.7637461,60.0685409 C57.3441603,59.3664699 56.8007283,58.829251 56.0978289,58.409251 C55.6654029,58.1507894 55.4280656,57.7295468 55.713036,57.1049314" id="Fill-399"></path>
                <path d="M50.2169591,27.0933634 C49.6838822,27.5108782 49.2908053,27.8190439 48.7834088,28.2170912 L47.8344739,28.2170912 C47.4650064,27.6827717 47.3448881,26.9798723 46.8002135,26.538748 C46.7430538,25.7948427 46.2286159,25.3338368 45.7816928,24.8152569 C45.6396218,24.6499906 45.6702727,24.3360261 45.6097993,24.0286888 C45.7729946,23.9831267 45.9345331,23.9864403 46.0190301,23.9073279 C46.8859532,23.0967362 47.7027579,23.5523575 48.3936455,24.1053161 C48.983468,24.5770912 49.4813378,25.2012924 49.8992668,25.836677 C50.1361899,26.1966178 50.1299769,26.7164403 50.2169591,27.0933634" id="Fill-401"></path>
            </g>
        </g>
    </g>
</svg>