<?xml version="1.0" encoding="UTF-8"?>
<svg width="82px" height="105px" viewBox="0 0 82 105" version="1.1" xmlns="http://www.w3.org/2000/svg" xmlns:xlink="http://www.w3.org/1999/xlink">
    <!-- Generator: Sketch 60.1 (88133) - https://sketch.com -->
    <title>Group 17</title>
    <desc>Created with Sketch.</desc>
    <g id="Campaign-Page" stroke="none" stroke-width="1" fill="none" fill-rule="evenodd">
        <g id="do_something_v1-copy-14" transform="translate(-1458.000000, -128.000000)">
            <g id="Group-17" transform="translate(1458.000000, 128.000000)">
                <g id="40" fill="#222831">
                    <path d="M26.4561981,33.9525899 C26.3145413,34.6389213 25.8493933,35.2921166 26.0034762,36.0385071 C26.0366123,36.1992172 25.9442454,36.3027675 25.85892,36.4311698 C25.7586833,36.5819391 25.8001034,37.9318207 25.7669673,38.1211106 C25.6746004,38.6517024 26.2196892,39.1292763 25.9806951,39.5944243 C25.6961389,40.1473828 25.889985,40.5835367 25.9728253,41.1141284 C26.1753697,42.4130633 26.6115235,43.5997497 27.3632987,44.8982704 C27.3231211,44.4343651 27.3401034,44.1319982 27.561701,43.902945 C27.3927069,43.8051935 27.2121152,43.8780929 27.1205768,43.6763769 C27.339275,42.7324124 26.8206951,41.8472645 26.7386833,40.8941876 C26.6612276,40.0053118 26.431346,39.1251343 26.4487424,38.2105781 C26.4760797,36.7919391 26.4561981,35.3720574 26.4561981,33.9525899 L26.4561981,33.9525899 Z M40.0912868,53.3239509 C40.5108726,53.5960811 40.795843,53.9734183 41.1967898,54.2546609 C42.1564939,54.9273237 43.2296892,55.3527083 44.2585649,55.8737734 C44.6959614,56.0949568 45.1863756,56.0001047 45.4282691,55.609513 C46.2380324,54.3010515 47.1008134,53.0199272 47.5717602,51.5304598 C47.7921152,50.8333592 48.0514052,50.1490988 48.2850146,49.455726 C48.5335353,48.7192763 48.613062,47.9405781 48.7882691,47.1871462 C48.9572631,46.4585663 48.8561981,45.677797 49.0235353,44.9123533 C49.2538312,43.859868 48.6714643,42.8140101 48.823062,41.7375012 C48.411346,41.3982704 48.6843046,40.905371 48.545133,40.4982112 C48.2402809,39.6068503 47.9677365,38.7043059 47.6947779,37.8021757 C47.225488,36.2476787 46.4438904,34.8207556 45.5442454,33.5114657 C44.8483874,32.4987438 44.071346,31.4967911 43.0706359,30.6849568 C42.3669081,30.1137734 41.6635945,29.5645426 40.865843,29.1619391 C39.5300442,28.4867911 38.1536537,27.9035959 36.597914,28.0187438 C36.3730028,28.0353118 36.1451921,28.0369686 35.9211093,28.0183296 C34.3314052,27.8866136 33.5725886,28.7924716 32.7619969,29.9244834 C32.3453105,30.5064361 32.2210501,31.2499272 31.6680915,31.7386846 C31.7459614,31.9080929 32.0905768,32.0306964 31.7956655,32.2759035 C31.617559,32.4237734 31.6399259,32.6047793 31.6564939,32.7833 C31.6883874,33.1295722 31.2418785,32.859513 31.2269673,33.1266728 C31.6448963,33.5313473 31.4460797,33.831229 31.0790975,34.1021166 C30.9954288,34.0337734 30.91963,33.9716432 30.77963,33.8573237 C30.68892,34.6339509 30.7249555,35.3505189 30.5588608,36.0683296 C30.3194525,37.106732 30.6831211,38.1844834 30.8268489,39.2224716 C30.9614643,40.1999864 31.1598667,41.2296905 31.6399259,42.1463178 C31.6564939,42.177797 31.5061389,42.297087 31.4286833,42.3803414 C32.1547779,42.8831817 32.3801034,43.7318799 32.7470856,44.4380929 C33.4226478,45.737442 34.0746004,47.0297497 35.115488,48.0785071 C35.2753697,48.2392172 35.1950146,48.455016 35.2824111,48.5722349 C35.4878549,48.8485071 35.4431211,49.1860811 35.5798075,49.4756077 L36.0093342,49.4756077 C36.2764939,49.5762586 36.1439495,49.8678562 36.3411093,50.0327083 C36.507204,50.1714657 36.7495117,50.1254893 36.8940679,50.4460811 C37.1111093,50.9269686 37.5953105,51.3163178 38.0318785,51.6609331 C38.4560205,51.9956077 38.5554288,52.6869095 39.2707543,52.7183888 C39.5159614,52.729158 39.5093342,53.1330041 39.6704584,53.3239509 L40.0912868,53.3239509 Z M40.9963164,62.3812882 C40.6641271,63.0324124 39.9562572,62.7930041 39.4426478,62.9967911 C39.0822927,63.1388621 38.5997484,63.4727083 38.212056,63.241584 C37.7961981,62.9943059 37.5074998,63.3724716 37.1376182,63.2854893 C36.8816418,63.225016 36.5515235,63.1541876 36.305488,63.4478562 C36.2400442,63.5261402 35.9869673,63.5422941 35.8879732,63.4797497 C35.6274407,63.315726 35.4041862,63.0982704 35.1610501,63.4851343 C34.5703992,63.1148385 33.8853105,63.3542467 33.2577957,63.1873237 C32.535843,62.9955485 31.8085058,62.8025308 31.0546596,62.7805781 C30.8401034,62.5664361 30.6267898,62.3535367 30.4143046,62.1406373 C30.1943637,62.4044834 29.9503992,62.4438325 29.6405768,62.2760811 C28.5064939,61.6605781 27.2253697,61.2993947 26.1940087,60.5289805 C25.4157247,59.9478562 24.5318194,59.5162586 23.8508726,58.7748385 C23.1343046,57.9944834 22.2412868,57.3860219 21.4940679,56.6214065 C20.4138312,55.5159035 19.5030028,54.2675012 18.4646004,53.1280337 C18.3465531,52.529513 17.82963,52.2002231 17.5243637,51.7288621 C17.1942454,51.2198089 16.7605768,50.7935959 16.4652513,50.2501639 C16.1790383,49.7233 15.8841271,49.1848385 15.4479732,48.7461994 C15.2731803,48.5701639 15.4227069,48.4127675 15.6115827,48.249158 C15.3170856,47.8689213 14.8179732,47.705726 14.6593342,47.129158 C14.5321744,46.6681521 14.0550146,46.2837734 13.7704584,45.8161402 C12.9308726,44.4351935 12.1467898,43.0289805 11.4385058,41.5788621 C11.1792158,41.047442 11.0363164,40.4393947 10.6941862,39.9742467 C10.345843,39.501229 10.3073223,38.9254893 9.98051759,38.4508148 C9.64874244,37.9690988 9.41513297,37.4078562 9.20637557,36.8561402 C8.57803238,35.1956077 7.78483711,33.6075604 7.15649392,31.9420574 C6.49294362,30.182945 5.78341699,28.4437142 5.19897912,26.6527083 C4.99519214,26.0276787 4.70773652,25.4304006 4.51720398,24.7879746 C4.28856492,24.0171462 4.10258859,23.2309923 3.83625723,22.4738325 C3.5798667,21.7448385 3.22365368,21.0568503 3.16359451,20.2603414 C3.14992587,20.0892763 2.8823519,19.9082704 2.96767735,19.6775604 C3.04264776,19.4754302 2.57128682,19.427797 2.87696729,19.1366136 C3.0219377,18.9990988 2.63383119,18.8582704 2.54270693,18.6789213 C2.40809155,18.4159035 2.48389037,18.1222349 2.41099096,17.8343651 C2.05726315,16.4347793 1.58341699,15.069158 1.33655309,13.6331225 C1.19738149,12.822945 1.09755901,11.9734183 0.737618177,11.1789805 C0.530103384,10.720874 0.781109301,10.0946018 0.474186224,9.59466095 C0.620399242,8.7401639 0.107618177,7.94572603 0.245547171,7.08998639 C0.28365368,6.85430592 -0.0667605213,6.66170237 0.2206951,6.34856627 C0.32921581,6.23051893 -0.0651037165,5.90040059 0.00945249649,5.56075562 C0.0728252776,5.2737142 0.0227069344,4.96099231 0.0227069344,4.65986805 C0.0227069344,4.35874379 0.0330619639,4.05720532 0.0206359284,3.75649527 C-0.0116717639,2.97365503 0.225665514,2.31548935 0.670517585,1.64489763 C1.06939332,1.04430592 1.48442291,0.514128401 2.06720398,0.101584022 C2.27637557,-0.0462858 2.47229273,-0.00817929113 2.67815072,0.0618207089 C2.94448208,0.471465679 2.52323948,0.728270413 2.45365368,1.06128816 C2.39815072,1.32554852 2.07963001,1.47548935 2.1794525,1.85572603 C2.24199688,2.09554852 1.94460043,2.36105148 2.26726315,2.66258994 C2.57625723,2.95170237 1.89075427,3.19566686 2.1102809,3.58087396 C2.19726315,3.59909882 2.30039924,3.62022308 2.41886078,3.64507515 C2.43211522,3.65791538 2.48347617,3.68649527 2.48140516,3.71093313 C2.4246596,4.44696864 2.63797321,5.15028225 2.73448208,5.8672645 C2.76016256,6.05365503 2.58122764,6.10211657 2.50294362,6.24667278 C2.6359022,6.29264911 2.76720398,6.33821124 2.89809155,6.38335917 C2.99998504,6.6380929 3.02525131,6.87915799 2.77341699,7.08128816 C2.79702646,7.13099231 2.80696729,7.20430592 2.84797321,7.23164319 C3.17105013,7.44661361 3.11389037,7.79164319 3.20335782,8.10560769 C3.67596137,9.75868461 3.85158267,11.4912882 4.54122764,13.0847201 C4.54412705,14.0672053 5.08300279,14.8956077 5.33525131,15.8072645 C5.49264776,16.3759627 5.67862409,16.9546018 5.82732232,17.5141876 C5.98099096,18.091584 6.53146433,18.5592172 6.34838741,19.2264953 C6.87607972,20.0677379 6.9742454,21.0763178 7.40667143,21.9506964 C7.71773652,22.5802822 7.82584303,23.273655 8.11288445,23.9193947 C8.38915664,24.5411106 8.59667143,25.231584 8.86134599,25.8669686 C9.26146433,26.8287438 9.55761818,27.8331817 10.0844821,28.7543651 C10.3690383,29.2530633 10.6183874,29.8176195 10.8138904,30.3664361 C11.7218194,32.9079746 13.0157839,35.2598089 14.2546596,37.6406373 C14.6249555,38.3518207 15.1522336,38.9971462 15.293062,39.8052527 C15.3663756,40.2264953 15.7971448,40.3809923 15.86963,40.8204598 C15.9205768,41.127797 16.3372631,41.3576787 16.4739495,41.6728858 C16.6305176,42.0348976 16.8301626,42.3538325 17.0331211,42.6864361 C17.3582691,43.2199272 17.7662572,43.7505189 17.6465531,44.4119982 C17.8370856,44.5718799 17.8428844,44.3631225 17.9331803,44.3473828 C18.6157839,45.0063769 18.6460205,45.1082704 18.3540087,45.7917024 C18.4579732,45.8906964 18.5623519,45.9905189 18.6617602,46.085371 C18.7483282,46.0124716 18.8253697,45.9470278 18.8887424,45.8935959 C19.6044821,46.4544243 20.0642454,47.1225308 19.8935945,48.0461994 C20.1487424,48.1422941 20.1947188,47.8059627 20.4448963,47.9256669 C20.9767306,48.660874 21.4708726,49.4954893 22.1174407,50.1872053 C22.5987424,50.7020574 23.0870856,51.2210515 23.5977957,51.7135367 C24.1395708,52.2366728 24.6651921,52.7763769 25.1974407,53.3090396 C25.7301034,53.8417024 26.2097484,54.4439509 26.8066123,54.8912882 C27.8843637,55.6989805 28.9501034,56.5178562 30.1243637,57.2116432 C31.0708134,57.7704006 32.0549555,58.2082112 33.0436537,58.6393947 C33.711346,58.9305781 34.4593933,59.0747201 35.1867306,59.1757852 C35.5483282,59.2259035 35.8842454,59.2938325 36.2226478,59.4168503 C36.3477365,59.4619982 36.5212868,59.463655 36.6235945,59.3066728 C36.6786833,59.0328858 36.4699259,58.8456669 36.2967898,58.7793947 C35.2840679,58.3921166 34.5703992,57.6088621 33.795843,56.918803 C33.0378549,56.243655 32.3337129,55.5051343 31.6341271,54.7682704 C30.4917602,53.5662586 29.5208726,52.2408148 28.6995117,50.7919391 C28.1805176,49.8765544 27.5944229,49.0042467 27.1176773,48.0573828 C26.3762572,46.585726 25.7582691,45.0738917 25.3473815,43.482945 C25.2906359,43.2613473 25.0305176,43.1317024 25.1079732,42.9067911 C25.2206359,42.5816432 24.6672631,42.3505189 24.9253105,42.1272645 C25.2798667,41.8207556 24.7612868,41.7304598 24.8565531,41.4835959 C24.9418785,41.2611698 24.8930028,40.9993947 24.6680915,40.7769686 C24.5247779,40.6353118 24.7496892,40.4596905 24.8797484,40.3163769 C24.3880915,40.0931225 24.475488,39.5807556 24.4510501,39.2257852 C24.3744229,38.1016432 24.3089791,36.9530633 24.460991,35.8442467 C24.5703401,35.0427675 24.6395117,34.2127083 24.8818194,33.4302822 C25.1187424,32.6656669 25.4588016,31.9317024 25.6692158,31.1612882 C25.8146004,30.6282112 26.1844821,30.2430041 26.3948963,29.765016 C26.5990975,29.3011106 26.9652513,28.922945 27.1607543,28.498803 C27.4469673,27.877087 28.0533578,27.6434775 28.4153697,27.1282112 C28.7508726,26.6510515 29.37963,26.3847201 29.8957247,26.1043059 C30.5273815,25.7609331 31.1876182,25.4059627 31.8880324,25.2025899 C32.5606951,25.0075012 33.20892,24.7469686 33.9051921,24.597442 C34.8214052,24.4002822 35.7152513,24.1666728 36.6629436,24.1695722 C37.0854288,24.1708148 37.4660797,23.8941284 37.925843,23.9425899 C38.5003401,24.0030633 39.0682099,23.9512882 39.6476773,24.1546609 C40.1774407,24.3406373 40.7714052,24.2259035 41.3616418,24.3671462 C43.5548371,24.8919391 43.9454288,24.8579746 46.0226478,25.9572645 C46.329985,26.1196314 46.5134762,26.5263769 46.935133,26.4725308 C48.1644821,27.8095722 49.6543637,28.9084479 50.6285649,30.4782704 C51.8135945,32.3877379 52.7231803,34.4198089 53.3490383,36.5815249 C53.5238312,37.1858444 53.871346,37.738803 53.8746596,38.4006964 C54.2346004,37.2123533 53.393772,36.2033592 53.3225294,34.8075012 C53.8883282,35.795371 54.0316418,36.6428266 54.233772,37.4579746 C54.501346,38.5419391 54.700991,39.6337734 54.7424111,40.7682704 C54.7610501,41.2818799 54.8898667,41.8294538 54.9312868,42.3699864 C54.9681507,42.8562586 54.5916418,43.2398089 54.6811093,43.7484479 C54.7581507,44.1866728 54.781346,44.6692172 54.6819377,45.0975012 C54.3547188,46.501229 54.083417,47.9148976 53.6795708,49.3066136 C53.2450738,50.8035367 52.5724111,52.171229 51.8682691,53.5293947 C51.4093342,54.4141284 50.9048371,55.3075604 50.1203401,55.9640692 C49.800991,56.2304006 49.7612276,56.7473237 49.2778549,56.8562586 C49.249275,56.8628858 49.2998075,57.0679154 49.1838312,57.1449568 C48.9361389,57.3093947 49.1159022,57.552945 49.0181507,57.7505189 C50.233417,58.0802231 51.415133,58.3051343 52.5885649,58.5635959 C53.4703992,58.7578562 54.3625886,58.7578562 55.2423519,58.9347201 C56.1109318,59.1099272 57.0540679,59.0660219 57.9433578,58.9512882 C59.2468489,58.7831225 60.5702217,58.6584479 61.8331211,58.265371 C63.0661981,57.8814065 64.2044229,57.2638325 65.3712276,56.7183296 C65.7369673,56.5472645 65.841346,56.0220574 66.331346,56.0361402 C67.0176773,55.0814065 68.2163756,54.6759035 68.8260797,53.5927675 C69.1914052,52.9428858 69.8698667,52.4773237 70.3263164,51.8415249 C70.9911093,50.9166136 71.579275,49.9428266 72.2382691,49.017087 C72.7730028,48.2661402 73.1553105,47.4273828 73.6250146,46.6441284 C74.3159022,45.4914065 74.7785649,44.1895722 75.2362572,42.9146609 C75.4947188,42.1947793 75.8252513,41.5030633 76.0062572,40.7434183 C76.2618194,39.6677379 76.6917602,38.6322349 76.6105768,37.4964953 C76.5770265,37.0321757 76.3007543,36.6225308 76.3649555,36.1184479 C76.4034762,35.8173237 76.547204,35.6578562 76.7277957,35.4793355 C77.0492158,35.9842467 77.1527661,36.6101047 77.7256063,37.1489805 C77.5777365,36.7004006 78.2553697,36.5492172 77.7964347,36.0430633 C77.5810501,35.8048976 77.8250146,35.2598089 77.4306951,34.9673828 C77.6121152,34.8161994 77.7268489,34.7205189 77.9571448,34.5283296 C78.0822336,34.6964953 78.2644821,34.8824716 78.371346,35.1044834 C78.4624702,35.2941876 78.4214643,35.5725308 78.8526478,35.4408148 C78.5593933,35.0415249 78.6538312,34.6024716 78.6567306,34.1261402 C79.1293342,34.1451935 79.5563756,34.0097497 79.9357839,34.2959627 C80.0799259,34.2056669 79.9084466,33.9840692 80.1167898,33.9206964 C80.2986241,34.1149568 80.5624702,34.2561994 80.681346,34.5407556 C80.7803401,34.7780929 80.901701,35.0063178 81.0168489,35.2469686 C81.2612276,35.0485663 80.9957247,34.7611106 81.2227069,34.5933592 C81.4600442,34.9446018 81.6041862,35.3037142 81.5917602,35.7489805 C81.5627661,36.8404006 81.5499259,37.9343059 81.5959022,39.0244834 C81.6199259,39.5861402 81.399985,40.0902231 81.3183874,40.6199864 C81.1419377,41.7569686 80.8403992,42.8943651 80.4266123,43.968803 C80.0774407,44.8746609 79.9018194,45.8604598 79.3231803,46.6739509 C78.7080915,48.8219982 77.1821744,50.4560219 76.1011093,52.3406373 C75.8372631,52.801229 75.4214052,53.2038325 75.0573223,53.5935959 C73.6846596,55.0623533 72.4470265,56.6624124 70.9260797,57.989513 C68.8277365,59.8206964 66.5322336,61.3652527 63.9621152,62.4463178 C62.9059022,62.8903414 61.7921152,63.2142467 60.6750146,63.5186846 C59.8615235,63.7402822 59.0045413,63.791229 58.2250146,64.1399864 C58.162056,64.1681521 58.0829436,64.1606964 58.011701,64.1698089 C56.7140087,64.3309331 51.7721744,64.5711698 50.7669081,64.3719391 C49.677559,64.1561402 48.5662572,64.0973237 47.4880915,63.8438325 C46.463772,63.6023533 45.4510501,63.3090988 44.4325294,63.0423533 C44.361701,63.0241284 44.2589791,63.0713473 44.2105176,63.0353118 C43.2744229,62.3365544 42.1970856,62.3050751 40.9963164,62.3812882 L40.9963164,62.3812882 Z" id="Fill-231"></path>
                </g>
                <g id="47" transform="translate(44.500000, 93.500000) scale(1, -1) rotate(48.000000) translate(-44.500000, -93.500000) translate(28.000000, 75.000000)" fill="#E0645B">
                    <path d="M18.7835457,1.4752707 C19.0299954,1.12734171 18.8986937,0.7752707 18.9537824,0.450122771 C18.9856759,0.26083283 19.1008238,-0.054788472 19.208102,0.00817010791 C19.9681611,0.455093185 20.9928949,-0.265616874 21.6415339,0.576454132 C24.2754392,3.99278549 27.8247292,6.49746005 30.7009422,9.67231212 C30.9034866,9.89556656 31.1201138,10.1051524 31.3247292,10.3263358 C32.5076878,11.6020754 32.5072735,11.6024896 31.0596404,12.4279926 C29.570173,13.2775192 29.4247883,13.2829038 28.0107055,12.1500636 C25.0727765,9.79657247 22.1472735,7.4265133 19.3468593,4.90899851 C18.4733091,4.12408727 17.680528,3.25509318 17.4866818,2.02491567 C17.4344925,1.69562573 17.4133682,1.34893934 17.4564451,1.020892 C17.4945517,0.733022179 17.5914747,0.367696735 17.9443741,0.339531055 C18.3109422,0.310536972 18.2512972,0.689945256 18.327096,0.922726321 C18.3966818,1.13562573 18.4517706,1.35763756 18.7835457,1.4752707" id="Fill-161"></path>
                    <path d="M7.37806053,15.0314541 C8.85054574,15.1254778 10.1051611,15.8026967 11.3349244,16.5449453 C14.0052795,18.1574305 16.3993623,20.1861879 19.1227351,21.720389 C19.6491848,22.0169571 19.6442144,22.2895015 19.16167,22.7405666 C17.7591848,24.0506849 16.3968771,23.4575488 15.0776463,22.7107441 C12.4296582,21.2113358 9.82433272,19.6373713 7.193741,18.1081405 C6.51196586,17.71175 5.80451024,17.3592648 5.10119663,17.0009808 C4.69486527,16.793466 4.63314929,16.4422234 4.66338598,16.0495606 C4.69486527,15.6432293 4.9508416,15.5400932 5.33149248,15.4435843 C6.00829722,15.2716908 6.66024988,15.0057737 7.37806053,15.0314541" id="Fill-163"></path>
                    <path d="M5.8124629,36.3327027 C4.26997769,36.3327027 2.72790669,36.3397441 1.18583568,36.3285606 C0.695007277,36.3248328 0.176427395,36.321105 0.0231729575,35.6857204 C-0.116412841,35.1054245 0.407965857,35.059034 0.704533904,34.8105133 C1.27654574,34.3308683 1.94589485,34.1092707 2.65832089,33.9995074 C5.75737414,33.5202766 8.8589126,33.315247 11.9691493,33.9270222 C12.3054806,33.9937086 12.6621079,33.9854245 12.8124629,34.3627618 C12.9826996,34.7889748 12.5664274,34.9049512 12.3891493,35.1663121 C11.5624037,36.3865488 10.3471375,36.386963 9.08216704,36.3476139 C7.99323213,36.3140636 6.90222621,36.3409867 5.8124629,36.3409867 L5.8124629,36.3327027 Z" id="Fill-165"></path>
                </g>
            </g>
        </g>
    </g>
</svg>