<?xml version="1.0" encoding="UTF-8"?>
<svg width="155px" height="214px" viewBox="0 0 155 214" version="1.1" xmlns="http://www.w3.org/2000/svg" xmlns:xlink="http://www.w3.org/1999/xlink">
    <!-- Generator: Sketch 60.1 (88133) - https://sketch.com -->
    <title>44</title>
    <desc>Created with Sketch.</desc>
    <g id="Campaign-Page" stroke="none" stroke-width="1" fill="none" fill-rule="evenodd">
        <g id="do_something_v1-copy-14" transform="translate(-173.000000, -552.000000)" fill="#1FAB8A">
            <g id="44" transform="translate(173.000000, 552.000000)">
                <path d="M5.61642054,67.8108902 C5.5229743,67.462696 5.34443455,67.2750869 5.01502349,67.3384894 C4.44808149,67.4471052 4.13067749,67.79426 4.09831063,68.3773555 C4.08056107,68.6969666 4.26954174,68.75881 4.53682931,68.711518 C5.08602176,68.6143354 5.34078023,68.1876676 5.61642054,67.8108902 M2.71645474,170.478298 C3.27661015,168.910384 3.63943216,167.29258 4.11031769,165.70284 C3.18734028,167.159539 2.68774221,168.743043 2.71645474,170.478298 M6.86776492,64.5591719 C9.20444303,62.051134 11.6429201,59.6423575 14.1195066,57.2709989 C11.1099111,59.1205859 8.78524005,61.6400569 6.86776492,64.5591719 M52.919535,39.7365611 C57.7437625,37.5642448 61.7562084,34.309928 65.5859382,30.8030404 C61.5907198,33.7912745 57.6007219,36.7826267 53.3356057,39.3883668 C53.1831682,39.4819116 53.0578772,39.6196302 52.919535,39.7365611 M108.093016,160.430036 C106.6908,165.199257 103.90725,169.243507 102.506079,173.872932 C104.268506,172.635543 108.819182,161.983398 108.093016,160.430036 M51.5089666,207.843176 C52.4496935,207.843176 53.3992953,207.924249 54.3301034,207.828625 C58.1441718,207.438336 61.9081238,206.718041 65.6715538,206.008661 C71.2553583,204.956283 76.4058646,202.594278 81.6900147,200.655824 C84.1279698,199.760913 86.4599495,198.540674 88.1117031,196.388106 C93.5702166,189.272991 97.9648003,181.613237 101.084547,173.158874 C103.574707,166.411701 106.814525,159.942044 109.475916,153.252557 C111.376163,148.477619 112.588876,143.474536 113.132326,138.34049 C113.58494,134.063418 113.330704,129.773872 113.361504,125.487965 C113.386563,121.963408 113.323917,118.441449 113.546831,114.905459 C113.703445,112.415091 113.142245,109.820784 112.927684,107.269612 C112.549201,102.777386 112.617589,98.3407682 113.989004,93.9831434 C115.254443,89.9627993 116.969887,86.1347415 119.099834,82.5181988 C123.411413,75.1957261 128.816156,68.672541 134.485576,62.374383 C137.53067,58.9922217 140.517296,55.5768001 143.035124,51.7856405 C147.668282,44.809803 149.891154,37.105356 149.699564,28.7632459 C149.549736,22.2416199 146.680049,17.1782522 141.028379,13.7378853 C131.204516,7.75829901 120.832505,5.84478982 109.698307,9.48627784 C101.075151,12.3066511 93.3974194,16.7879628 86.3738119,22.4796393 C81.9933235,26.0296613 77.9939287,30.0037528 73.6254474,33.5641687 C67.6756886,38.4144624 61.6309174,43.1202814 54.6234933,46.4182525 C49.2004789,48.9709839 43.5002581,50.7665228 37.7671484,52.4544853 C32.8729667,53.8955936 28.2058751,55.8408041 23.7966742,58.3940552 C18.7077693,61.3407138 14.4102862,65.110566 11.4356678,70.2466908 C11.0822427,70.8583693 11.0686695,70.8505739 10.2636745,70.8672041 C10.0193569,70.872401 10.0042176,71.0745615 9.92225634,71.2367057 C9.17781868,72.7152319 8.69179381,74.2576804 8.67195606,75.9295324 C8.65838286,77.058825 9.09637949,78.6740305 8.70797724,79.2176293 C7.46080923,80.9617186 8.39997007,82.6512401 8.62967033,84.1209316 C8.91522952,85.9440142 9.39498983,87.8356963 9.95618934,89.6624168 C11.3641475,94.2481868 12.9819682,98.7518453 15.2763606,102.964476 C17.3802062,106.828912 19.418274,110.727648 20.0254135,115.104502 C20.200821,116.373072 21.7366804,117.821456 20.0974559,119.176295 C20.0969338,119.176815 20.212306,119.3031 20.2613783,119.378456 C21.1316291,120.713547 21.5711919,122.220656 21.6374917,123.768821 C21.7017034,125.247867 22.2326242,126.63025 22.2963138,128.092146 C22.3991569,130.451552 23.2782824,132.744957 22.7703316,135.168285 C22.5395873,136.271073 22.593358,137.440902 22.5912698,138.580588 C22.5865714,141.117209 21.7231073,143.534301 21.5894635,146.077158 C21.539347,147.029755 20.7035513,148.24012 20.2431067,149.330955 C18.5923971,153.241124 15.6642408,156.219484 13.0952522,159.482116 C10.678179,162.550902 7.96249548,165.559405 7.70825905,169.766838 C7.60593803,171.464155 7.09850927,173.255536 7.97815686,174.848395 C10.3445916,179.129105 11.5891494,183.981998 14.8357537,187.819929 C17.3624566,190.807124 19.0591063,194.426265 22.1376118,197.021612 C25.1482514,199.559792 28.0226369,202.292337 31.5005077,204.167389 C33.2075983,205.087765 34.938703,206.029968 36.9428377,206.470148 C41.7581905,207.528243 46.6022558,207.910217 51.5089666,207.843176 M91.3609178,10.2892033 C91.6266392,10.2091706 91.9142866,10.1691543 92.1549498,10.0418295 C98.16631,6.85923033 104.431385,4.33871985 111.075987,2.79107445 C111.316128,2.73494762 111.645539,2.74326271 111.788058,2.37583984 C111.338576,2.43976206 110.916241,2.48965258 110.49756,2.56188989 C104.980577,3.51708541 99.866614,5.6130068 94.8993459,8.09506 C93.6631408,8.71297484 92.3099975,9.19265136 91.385976,10.3183061 C89.9049313,10.4212053 89.0007476,11.6653501 87.7191245,12.1772476 C87.4946447,12.2666348 87.2524154,12.6730346 87.5948776,13.0181107 C87.7086836,13.1324431 87.8658195,13.2062395 87.9362957,13.071639 C88.6822995,11.6554759 90.4917111,11.5447813 91.3609178,10.2892033 M74.5677405,31.8315127 C76.2873602,30.7666619 77.6556429,29.3120416 79.0213153,27.8558621 C77.5507116,29.1951107 75.7736669,30.199677 74.5954089,31.8606155 C73.3398882,32.3033938 72.5375034,33.318354 71.6411503,34.2132651 C72.7802548,33.6218546 73.7580471,32.8298427 74.5677405,31.8315127 M112.51318,168.008197 C111.515027,170.726191 110.559161,173.428074 108.538843,175.666392 C107.317777,177.018633 106.344161,178.64683 105.538644,180.286981 C105.246821,180.882549 104.710679,181.062363 104.405282,181.594528 C103.692689,182.837114 103.431144,184.240805 102.518608,185.448051 C100.461747,188.169163 98.4315094,190.902228 96.284334,193.559937 C94.8675011,195.313381 93.5415041,197.155692 92.0693342,198.86808 C89.3259823,202.057955 85.8246194,204.197531 81.9379866,205.720751 C77.4468244,207.480951 72.997948,209.390822 68.4070751,210.850639 C59.8517844,213.570712 51.1195202,214.666224 42.0823811,213.593059 C36.6379628,212.946561 31.3355411,211.922766 26.6694936,209.154881 C19.2073673,204.727618 13.0555767,198.831702 8.71058747,191.225477 C8.5477091,190.940685 8.33836863,190.681878 8.14260137,190.416835 C6.36660071,188.012216 4.7633973,185.528084 3.94796137,182.599614 C3.54389773,181.15123 2.9471991,179.760532 2.28837699,178.39374 C0.334358629,174.340655 0.709709737,170.258468 2.28785494,166.19291 C3.87644106,162.100848 6.52947908,158.626702 9.49522268,155.546482 C13.4580742,151.430514 15.3176022,146.657135 15.9096025,141.140075 C16.460361,136.008628 15.5556552,131.038805 14.6373762,126.050273 C14.0740886,122.989282 13.5703141,119.915818 12.9652628,116.863142 C11.9890366,111.94217 9.71500406,107.555962 7.37989209,103.158841 C4.34001795,97.4333845 2.01639099,91.4059864 0.61156508,85.0501425 C-0.56408262,79.7316055 0.0153884934,74.5092118 1.83471897,69.4946952 C2.88298743,66.6057224 4.24552762,63.7702781 6.4537824,61.430101 C8.60356803,59.1512477 10.7726694,56.9196865 13.3364375,55.099722 C19.498147,50.7244277 26.2910102,47.6551215 33.4931574,45.4209618 C41.7159047,42.8703092 49.7240911,39.8524526 56.7497868,34.7142491 C61.95563,30.906979 66.9088029,26.7982871 71.6662086,22.4515758 C78.144278,16.5327936 84.9293104,11.0230097 92.7704421,6.94809781 C100.371433,2.99843191 108.310187,-0.0760711735 116.998599,0.00143358369 C130.075853,0.121931814 141.272696,4.7222532 149.204664,15.4300053 C155.070373,23.3501248 156.021019,32.4255216 154.104588,41.9005622 C153.758472,43.6113912 153.408179,45.3217005 153.006725,47.0200568 C151.97464,51.3828785 150.192375,55.3943879 147.573792,59.0738135 C146.047851,61.2180663 144.402362,63.2713729 142.875378,65.3927592 C141.082672,67.8826078 139.086367,70.1640596 137.022719,72.3883451 C134.632793,74.9644627 132.515374,77.7287092 130.502886,80.5906579 C129.801778,81.5874288 128.690342,82.1923513 128.012205,83.2649974 C125.448436,87.3212004 122.782869,91.3171189 120.952576,95.7786823 C119.964343,98.1869391 118.956794,100.535431 118.762071,103.249267 C118.643566,104.913324 118.745365,106.571664 118.599714,108.225327 C118.381499,110.702183 118.810621,113.143181 119.206332,115.56391 C119.358247,116.493121 118.226451,117.245116 118.470247,117.310078 C119.789457,117.658792 118.861782,118.396756 118.888928,118.933079 C118.904589,119.250092 118.702557,119.598286 118.7746,119.889314 C119.99932,124.83627 119.469965,129.888725 119.574374,134.885052 C119.671475,139.523311 120.078671,144.249398 118.818974,148.795671 C118.359051,150.453492 118.023898,152.156005 117.538917,153.813306 C116.956835,155.801131 115.882987,157.665789 115.703925,159.739884 C115.451777,162.661077 113.968644,165.109351 112.900538,167.720807 C112.842069,167.864243 112.625419,167.944275 112.480291,168.058088 C112.617067,166.502647 113.896602,165.343212 113.941498,163.743598 C112.845201,166.062987 111.476396,168.260248 110.90841,170.817137 C111.443507,169.880651 111.978082,168.944684 112.51318,168.008197" id="Fill-217"></path>
                <path d="M64.7854067,53.8527526 C67.8508811,52.0566873 70.3363867,49.5955092 72.6630541,46.9538378 C70.0469248,49.2653003 67.4752076,51.6263202 64.7854067,53.8527526 L64.7854067,53.8527526 Z M82.5052803,38.4810837 C82.4033939,38.372579 82.3015075,38.2640743 82.1996211,38.1555696 C79.5134776,40.6057929 76.6037065,42.8061424 74.2712917,45.6517818 L82.5052803,38.4810837 Z M20.7542848,168.313182 C19.1800093,169.873459 18.463147,174.711828 19.4961184,175.708193 C19.7908052,173.25797 19.7986426,170.715413 20.7542848,168.313182 L20.7542848,168.313182 Z M32.6718585,70.8399935 C28.9783459,73.3392525 25.681929,76.2062798 24.0862313,80.5694196 C26.6260763,77.0414528 29.4161962,73.7404068 32.6718585,70.8399935 L32.6718585,70.8399935 Z M87.5489183,34.0360437 C93.7242791,29.2065426 100.200074,24.9195647 107.446026,21.8772607 C102.699165,22.5048142 89.5323069,31.1919694 87.5489183,34.0360437 L87.5489183,34.0360437 Z M85.3769093,149.224707 C83.9013852,152.167374 82.9870201,155.318705 82.118112,158.462732 C81.2293491,161.678226 80.029702,164.782086 78.9888933,167.938633 C78.0050364,170.922511 76.5833292,173.762934 75.3544225,176.666477 C80.6138507,168.197896 82.5752945,158.566542 85.3769093,149.224707 L85.3769093,149.224707 Z M32.5417574,101.991267 C32.5663147,101.810252 32.5260826,101.549424 32.6295365,101.465437 C32.8165895,101.313113 32.9132509,101.54525 33.0376046,101.682446 C33.3897658,102.068472 33.2251801,102.651163 33.7079649,103.037711 C34.5988177,103.749773 35.2117036,104.64598 35.6553013,105.777976 C36.0335872,106.743042 37.0660361,107.44467 37.769836,108.294971 C37.9271068,108.484333 38.1240872,108.80463 37.9213593,109.073805 C37.5446409,109.573031 37.8466426,109.736831 38.2615032,109.854204 C38.7740701,109.998182 39.0452447,110.385251 39.2192353,110.831268 C39.8472735,112.437972 40.6832645,113.963819 40.8703175,115.733801 C40.9910137,116.875708 41.1754542,118.240363 41.5991971,119.07345 C42.7789894,121.394824 42.8218339,123.842439 42.7100201,126.167464 C42.6086562,128.272872 42.2032006,130.429403 42.3003845,132.538462 C42.3839836,134.36061 41.4659611,135.845768 41.2104613,137.542718 C40.9011447,139.597004 39.4747351,141.389939 39.1936331,143.525082 C39.020165,144.836528 37.6334649,145.832893 37.6454823,146.871512 C37.672652,149.272699 35.5424425,150.564844 35.1662466,152.730242 C35.0465954,153.41883 34.7639259,154.450146 34.1641024,155.105347 C32.9315382,156.450179 32.5710171,158.311451 31.2945634,159.651067 C29.6873708,161.338106 28.8529473,163.596881 27.1391658,165.2714 C26.1098519,166.277677 25.3052106,167.575559 24.4044303,168.733638 C23.5882942,169.781125 23.6614434,171.405566 23.3918363,172.790565 C23.0010105,174.795293 24.1531106,176.356613 24.6729924,178.117727 C25.915484,182.325413 28.504966,185.803822 31.5364783,188.610337 C37.4568619,194.09191 44.5476328,195.893192 52.4315501,193.024078 C53.2320115,192.732993 54.0314278,192.439822 54.8386816,192.169082 C59.5724805,190.582201 63.6620438,187.959309 67.4605778,184.740164 C72.4315891,180.527261 74.7854262,174.652359 77.5394939,169.091495 C78.5029735,167.146757 78.877602,164.762263 79.6049141,162.602602 C80.1028512,161.124226 80.6389304,159.647937 80.9816867,158.130436 C81.3270555,156.600416 81.7978229,155.113694 82.256573,153.622276 C82.714278,152.133467 83.3590361,150.695258 83.7216471,149.186626 C84.0445486,147.844924 84.705504,146.646156 84.9839935,145.255418 C85.3560095,143.396232 85.9636704,141.54435 86.469445,139.688816 C88.2877253,133.015778 89.6477781,126.255103 90.4670493,119.383836 C90.9210969,115.575739 91.2518358,111.731648 92.0418473,107.988237 C94.5937097,95.8894445 100.173949,85.1996477 107.859841,75.5922894 C111.295242,71.2985301 114.93964,67.170136 118.535969,63.0067909 C123.685673,57.0458155 126.479973,49.9507577 128.585103,42.5077546 C129.894473,37.8801347 129.667711,33.3083321 127.966469,28.8424259 C126.996197,26.2972611 125.550978,24.1720302 122.501701,23.6696744 C119.662466,23.201748 116.892201,23.8731207 114.207625,24.3686949 C112.611405,24.6639528 110.872544,25.4219205 109.270576,26.1955379 C105.42763,28.0521155 101.529822,29.8054049 98.1884709,32.5075885 C97.392712,33.15027 96.4020627,33.2363434 95.6068263,33.8785033 C94.5890073,34.7001132 93.8778924,35.8096778 92.7675919,36.5478225 C92.1301488,36.9708864 91.3662621,37.0120973 90.7784559,37.5546207 C87.0509812,40.9923408 82.8375867,43.8838859 79.4732455,47.7378884 C78.3054706,49.0764604 76.8628637,50.172462 75.59059,51.4244389 C70.8134241,56.1230042 65.2540841,59.6384512 58.9914668,61.9353073 C51.3139347,64.7512122 44.1489696,68.5259227 37.446412,73.1378929 C34.8835772,74.9010938 32.1383918,76.5641366 30.3007792,79.2449323 C29.2354132,80.799992 27.865433,82.3853078 27.6992798,84.1667667 C27.4526624,86.8016566 27.1841003,89.5533977 28.0827906,92.178376 C28.2996258,92.8116677 27.9129799,93.6943115 28.0477835,93.9107992 C28.5676654,94.7417989 28.881162,95.6818249 29.4444109,96.4789169 C30.6607778,98.2019503 32.3379846,99.6745882 32.5417574,101.991267 L32.5417574,101.991267 Z M31.0839982,152.806404 C31.4884088,152.65408 31.5887277,152.250318 31.7282337,151.927412 C33.0564144,148.856939 34.4922289,145.824024 35.3809918,142.585577 C35.9008737,140.690397 36.8131488,138.88442 36.7833666,136.852566 C35.865344,140.446262 34.2654663,143.797387 33.1290411,147.310225 C32.5260826,149.174628 31.3980173,150.850712 31.1143029,152.834052 C29.4909129,154.971803 28.694109,157.539399 27.3816032,159.838863 C28.7698707,157.57435 30.4016206,155.434513 31.0839982,152.806404 L31.0839982,152.806404 Z M91.3427498,144.263748 C91.2863204,143.917889 91.3406598,143.610633 90.9952911,143.436922 C90.9341592,143.969012 90.5051914,144.477106 91.2105587,144.943467 C91.6207168,145.214207 91.235116,145.654486 91.1300946,145.982086 C90.1849023,148.928406 89.2658348,151.887245 88.3530371,154.838259 C87.4846515,157.647904 86.4475002,160.418946 85.7964722,163.296406 C85.4699133,164.740875 84.7682033,166.039279 84.2368266,167.402369 C83.9922992,168.028358 83.7864364,168.625655 83.7864364,169.305896 C83.7859139,170.68933 83.689775,170.725325 82.4086188,169.998135 C82.3015075,169.937623 82.1395342,169.974139 81.9665886,169.963184 C81.9665886,170.117073 81.9190416,170.269396 81.973381,170.360686 C82.7905622,171.714908 82.6176166,173.338827 81.6577944,174.643491 C81.0245313,175.504225 80.44822,176.374871 80.174433,177.505823 C79.7632299,179.20799 78.59441,180.547606 77.2369697,181.667082 C77.113661,181.768805 76.8330815,181.721856 76.8200192,181.958688 C76.743735,183.361946 75.6125347,184.034883 74.7593014,184.870578 C73.9447327,185.668192 72.9404986,186.250883 72.1750444,187.126745 C70.865151,188.62703 69.3917169,189.869096 67.5964263,190.868069 C66.7677503,191.329214 65.9260119,192.205076 65.0032868,192.566063 C61.5940111,193.900462 58.2510923,195.393444 54.7979271,196.637075 C48.9632326,198.738831 43.2189296,198.122233 37.4281247,196.719497 C34.0214615,195.894235 30.9418797,194.372561 28.1266801,192.282803 C27.0503418,191.483625 26.1793437,190.510734 25.2947607,189.523237 C21.9147447,185.752178 19.5452328,181.434944 18.3549907,176.527195 C17.5926714,173.384211 18.0733662,170.311129 19.6502542,167.481661 C20.0651147,166.737256 20.3843588,165.761236 21.7841211,165.929731 C22.3938721,166.003285 22.9989205,164.870767 23.4717779,164.151924 C26.8152193,159.070462 29.5337574,153.672877 31.7230088,148.002464 C34.0277314,142.033664 36.0388122,136.002265 36.8152388,129.594751 C37.3790102,124.943657 36.7494045,120.482967 35.6140243,115.99463 C34.7048841,112.399891 32.8259944,109.394624 30.6806325,106.468128 C29.0729174,104.275604 27.6350129,101.959968 26.0476751,99.7517934 C25.4849487,98.9693078 26.1950185,98.470082 26.3616942,97.4638055 C25.4927861,98.6432721 25.3501451,98.4064398 24.9802191,97.4361577 C24.6102931,96.4663972 23.9320954,95.5608005 23.3965387,94.6207745 C22.2512311,92.6082215 21.5965457,90.4141318 21.5746009,88.1532701 C21.566241,87.2956658 21.1174183,86.5799523 21.2334121,85.7682539 C21.379188,84.7447628 21.4507697,83.6951887 21.7407541,82.7108218 C22.2527986,80.9700522 22.5741326,79.1348626 24.2785092,77.9527877 C24.7492766,77.6262304 24.4697421,76.6131723 25.0047764,76.0398712 C27.2943466,73.5854747 29.4501583,70.9698861 32.3134274,69.1498246 C39.1257088,64.8190276 46.2608918,61.1303904 53.7351735,58.0223576 C58.9392173,55.8580024 63.9076162,53.1239977 68.0091969,49.103065 C74.0450517,43.1864304 80.3938806,37.6172195 86.9255825,32.2582364 C93.1176631,27.1783399 99.7522965,22.8188517 107.360859,20.0911069 C110.55539,18.9460696 113.830907,18.2663504 117.216148,18.0331697 C122.048176,17.7003525 125.666449,19.8960071 128.473811,23.5429117 C133.864908,30.5472012 135.130389,38.4299613 133.056087,46.9068887 C131.661549,52.6080788 129.607624,58.0750449 126.710915,63.1925008 C125.350862,65.59421 124.055076,68.0251319 121.812008,69.8524967 C120.74194,70.7241856 120.168763,72.1963019 119.346357,73.3794201 C116.53377,77.4243491 112.995438,80.8928469 110.195914,84.9622938 C108.949242,86.7740088 107.895371,88.6853603 106.720281,90.5299397 C104.155879,94.5555673 102.405,98.9985206 100.476996,103.330883 C98.7851594,107.132198 98.1733185,111.286153 97.5635676,115.403071 C96.9073147,119.838721 96.2123972,124.270197 95.4558254,128.689676 C95.0190201,131.242666 94.7144059,133.878599 93.8047432,136.270397 C93.1730475,137.932396 93.1495353,139.702379 92.393486,141.313256 C91.9592932,142.23711 92.4258806,143.50265 91.3427498,144.263748 L91.3427498,144.263748 Z" id="Fill-219"></path>
                <path d="M75.1541336,126.852906 C75.2944993,126.927116 75.4353811,127.001844 75.5757468,127.076054 C76.0267748,125.87261 77.3086441,125.016863 76.7187985,123.37335 C76.1970715,124.533202 75.6758606,125.693054 75.1541336,126.852906 L75.1541336,126.852906 Z M48.2792598,81.5942886 C45.3527378,82.1469697 42.3513886,84.9181596 42.6563744,86.7957186 C44.0734488,84.4687494 46.1273295,82.9778077 48.2792598,81.5942886 L48.2792598,81.5942886 Z M73.0770306,63.807297 C72.9913663,63.6926092 72.9051858,63.5784403 72.8195215,63.4647904 C68.9202445,66.8633902 65.0204515,70.2625089 61.1216905,73.6616276 C61.2042586,73.7586712 61.2873427,73.8557147 61.3704268,73.9532772 L73.0770306,63.807297 Z M84.3341545,52.9929099 C87.9996607,50.2710202 91.7668287,47.7068911 95.8157603,45.5740089 C99.9085562,43.4177741 104.048829,41.3674049 108.247415,39.4550763 C99.7171015,42.9585038 91.2879339,46.650829 84.3341545,52.9929099 L84.3341545,52.9929099 Z M57.9959731,163.059488 C58.9821455,161.442961 60.1788664,160.017407 60.983389,158.249865 C62.804531,154.250841 64.9182735,150.384668 66.6511708,146.335824 C69.2340031,140.303556 71.9520407,134.335119 75.1386521,128.5945 C75.3378475,128.234868 75.5231096,127.87316 74.9941579,127.351616 C68.6560267,139.031611 64.1498744,151.445919 57.9959731,163.059488 L57.9959731,163.059488 Z M84.7041627,59.2239357 C83.0517692,59.9675902 82.2348614,61.5747766 81.0489775,62.8010541 C79.4915374,63.7112914 78.6302492,65.3506526 77.2441378,66.4503064 C74.8543083,68.3460287 72.4010046,70.1810338 70.1654742,72.2506041 C65.5390821,76.5345317 60.430699,80.0332887 54.7660135,82.7868343 C52.6631081,83.8096836 50.2098044,84.0281614 48.4129168,85.796741 C47.3137294,86.8782316 45.9776749,87.7526614 45.8785932,89.4465123 C45.7315188,91.9561517 46.1216529,94.3812024 47.3240504,96.6370755 C49.5471956,100.807353 52.5418362,104.452973 55.159244,108.354954 C57.8793457,112.410024 60.3099432,116.536191 60.9292037,121.586088 C61.5205975,126.416469 61.1645227,131.204297 60.8822431,136.000427 C60.8249615,136.971901 60.1711257,137.898225 60.1355182,139.023308 C60.0864934,140.594687 60.0704958,142.34147 59.0781309,143.628984 C57.287952,145.952839 56.694494,148.787341 55.5225435,151.36652 C55.1386019,152.212407 55.3739209,153.458924 54.6354528,154.106054 C53.6497965,154.970105 53.3845466,156.107642 52.9128765,157.193803 C52.7291625,157.617785 52.4737176,158.043842 52.150154,158.367148 C51.0824456,159.434627 50.4100319,160.844093 49.6664033,162.062067 C48.2064966,164.453905 46.5814539,166.571219 44.5306695,168.44774 C43.9397918,168.989004 43.0062566,168.923098 42.6512139,169.76691 C42.2961712,170.609165 41.6433674,171.232423 40.9590845,171.813127 C40.2603523,172.406286 39.9032454,173.182116 39.6256102,174.089758 C40.1380483,174.237659 40.4688366,174.027484 40.8063336,173.902937 C42.929365,173.12088 44.7448304,171.741512 46.7950987,170.803771 C50.3914541,169.158701 53.4253146,166.772052 55.8275293,163.581551 C57.6249329,161.194384 58.8448761,158.493252 60.1313898,155.828966 C62.6806789,150.548656 65.271252,145.284952 67.6621136,139.931469 C69.0012644,136.932461 70.3940845,133.96407 71.8761813,131.040309 C74.3387739,126.182942 76.5330203,121.201028 78.6715332,116.199912 C80.3843046,112.19466 81.8018951,108.06538 82.7297538,103.784047 C83.5389208,100.046054 84.9498027,96.5031866 86.3292054,92.9540915 C88.955386,86.1963321 91.6269791,79.465558 95.9566421,73.555762 C99.8466302,68.2458714 103.786675,62.9717884 107.302011,57.3930821 C109.925611,53.2290319 112.202941,48.9191569 113.320707,44.0778777 C113.44043,43.5584094 113.82334,42.8770288 113.384181,42.495082 C113.012109,42.1712576 112.405233,42.5967961 111.935111,42.7836179 C107.005798,44.7452467 102.260714,47.0810381 97.6694134,49.7531087 C96.8401204,50.2357316 96.1032004,51.3270823 94.8342324,50.7936023 C94.6551629,50.7183546 94.2810264,50.971083 94.389913,51.1874849 C94.7743706,51.9524163 94.0281617,51.9430752 93.7422697,52.1330107 C91.9366093,53.3333407 90.1541712,54.5627319 88.3928911,55.8294875 C87.0150365,56.8201619 86.0577629,58.2322233 84.7041627,59.2239357 L84.7041627,59.2239357 Z M48.3195117,157.096759 C48.7173866,157.068736 48.8314337,156.744393 48.977476,156.456376 C50.8249365,152.810237 52.1950503,148.952367 53.8727303,145.232538 C54.6772529,143.446833 54.402198,141.304609 55.7537341,139.716624 C55.9849246,139.444695 55.9121615,139.176917 55.58963,139.037838 C55.1664687,138.855168 54.9388904,139.139033 54.8914138,139.48673 C54.7076998,140.842744 54.0636689,142.032177 53.6162532,143.29478 C52.4633966,146.547037 51.4756761,149.845998 49.9332014,152.964884 C49.2922667,154.261739 48.5816653,155.627095 48.3520229,157.127896 C47.2120675,158.646861 46.398256,160.338118 45.7619658,162.122266 C46.5602958,160.419593 48.0914174,159.094715 48.3195117,157.096759 L48.3195117,157.096759 Z M98.3893038,78.0509019 C98.8898727,78.9030168 98.7200921,79.4380537 98.3836272,80.2631833 C97.5636231,82.2751502 95.8890395,83.8558701 95.5727006,86.1003264 C95.4602016,86.9015843 94.8414571,87.5066794 94.4626761,88.1807947 C93.4981779,89.8964415 93.3129158,91.8928399 92.445435,93.564376 C91.6223346,95.1502854 91.2693561,96.8872092 90.4302581,98.43783 C89.9843906,99.2608838 90.1412699,100.285809 89.5607132,101.083953 C89.1690309,101.621585 88.2009203,104.96829 88.0884213,105.612306 C87.8061417,107.234542 87.4779337,108.848993 87.1523059,110.463445 C87.0965724,110.740564 86.9727203,111.025467 86.5975517,110.965788 C86.2105138,110.904552 86.0231875,111.081514 86.1718101,111.427134 C86.7281124,112.722432 86.0639555,113.882803 85.5690632,114.899944 C84.1297985,117.85588 82.8799244,120.894329 81.6161169,123.920323 C81.3658325,124.520228 80.2031709,124.357278 80.6175594,125.552419 C80.8265598,126.155957 80.1510498,127.20164 79.6835081,127.98214 C79.2283516,128.743958 78.9223337,129.593997 78.5100095,130.383838 C75.4730527,136.205931 72.6822521,142.143751 70.0380097,148.157856 C68.5713944,151.493662 66.8209514,154.701808 65.2758964,158.004402 C64.8857623,158.838873 64.6303173,159.775576 64.3681637,160.668169 C64.1271682,161.488109 63.7736736,162.664049 62.7776963,163.179366 C62.5929503,163.274852 62.477871,163.359441 62.4174931,163.549895 C61.1996141,167.406728 57.9278545,169.423884 55.0101054,171.682871 C52.9211333,173.300436 50.3733924,174.255822 48.0031728,175.373639 C46.5365575,176.06488 45.1876017,177.165053 43.4789587,177.407921 C41.7661874,177.651827 40.0647692,177.962678 38.3282595,177.997966 C36.6438709,178.032217 35.0864307,177.63574 33.6915465,176.662191 C32.9608191,176.152582 32.8498682,175.504933 33.1687874,174.68655 C33.9588606,172.656939 35.150421,170.957899 36.9854963,169.751341 C37.688357,169.288438 38.4397264,168.887809 38.9077841,168.132219 C39.2416687,167.59303 39.80726,168.271816 40.4275526,167.658418 C42.622315,165.487653 43.9893326,162.847757 45.3971182,160.194369 C48.312803,154.698175 50.4833111,148.886979 52.5733153,143.043609 C53.4774356,140.514768 53.9480736,137.878505 54.3593658,135.227712 C54.6194552,133.5541 54.7943963,131.87945 54.9058632,130.191826 C54.9569522,129.409251 55.2701948,128.766272 56.2254041,129.242668 C56.7951238,129.527052 56.9705809,129.110336 57.2378951,128.815573 C57.4278016,128.605917 57.3890978,128.366162 57.206416,128.18972 C56.8730474,127.869009 56.5835431,128.203212 56.3229377,128.330874 C55.2536812,128.853975 54.9043151,128.542086 54.9585004,127.366147 C55.1091871,124.125827 55.190723,120.884468 54.3536893,117.699157 C53.9372366,116.111691 53.3525514,114.588574 52.590345,113.150046 C50.3625553,108.942923 47.4850582,105.15096 44.9404135,101.145189 C43.0790197,98.2131249 41.1644726,95.2815796 40.7733064,91.7029044 C40.6819655,90.8699906 40.0245172,89.8549255 41.1701492,89.1787344 C41.2336234,89.141889 41.2893568,89.0235685 41.2841963,88.9478019 C41.0622946,85.6742689 41.1629245,85.5922749 43.3752326,83.2979995 C44.8108849,81.8091336 46.561844,80.7733106 48.3458303,79.9486999 C54.9099916,76.9133647 60.4415361,72.4971051 65.8564531,67.7710327 C72.4479652,62.0174404 78.4532439,55.598036 85.301233,50.170344 C92.803574,44.2252594 101.384976,40.1515064 110.493782,37.3372437 C115.301824,35.8520104 118.86412,39.4602658 117.816022,44.4779878 C116.769472,49.4879255 114.880211,54.1771525 112.370658,58.6385607 C109.489548,63.7595537 106.188374,68.6112118 102.994022,73.5267008 C102.117768,74.8754503 101.374655,76.3383688 100.305915,77.5828095 C99.7516769,78.2278636 99.3403847,78.7945564 98.3893038,78.0509019 L98.3893038,78.0509019 Z" id="Fill-221"></path>
                <path d="M85,58 C84.3202033,59.3374438 83.2503177,60.2644712 82,61 C82.9733164,59.9715654 83.643795,58.6236762 85,58" id="Fill-223"></path>
            </g>
        </g>
    </g>
</svg>