<?xml version="1.0" encoding="UTF-8"?>
<svg width="143px" height="81px" viewBox="0 0 143 81" version="1.1" xmlns="http://www.w3.org/2000/svg" xmlns:xlink="http://www.w3.org/1999/xlink">
    <title>Logo</title>
    <defs>
        <radialGradient cx="86.8562758%" cy="57.8778864%" fx="86.8562758%" fy="57.8778864%" r="94.4938532%" id="radialGradient-1">
            <stop stop-color="#4D8AA5" offset="0%"></stop>
            <stop stop-color="#61A7C7" offset="100%"></stop>
        </radialGradient>
    </defs>
    <g id="Logo" stroke="none" stroke-width="1" fill="none" fill-rule="evenodd">
        <path d="M56.188656,13.0911253 L58.2304565,5.39151138 L60.2410844,13.0911253 L62.8128178,13.0911253 L65.5248275,1.94694726 L63.1868881,1.94694726 L61.3788816,9.69331997 L59.3994262,1.94694726 L57.2485219,1.94694726 L55.3469978,9.64656118 L53.6013364,1.94694726 L51.0451892,1.94694726 L53.757199,13.0911253 L56.188656,13.0911253 Z M69.5832675,13.2625742 C70.6950875,13.2625742 71.5887,13.0261825 72.2641047,12.5533992 C72.9395094,12.0806159 73.3447523,11.4026135 73.4798332,10.5193919 L73.4798332,10.5193919 L71.3445152,10.5193919 C71.1886525,11.2779234 70.6223517,11.6571891 69.6456125,11.6571891 C69.0325528,11.6571891 68.5493787,11.470154 68.19609,11.0960836 C67.8428014,10.7220133 67.6505708,10.1972758 67.6193983,9.52187108 L67.6193983,9.52187108 L73.4954195,9.52187108 L73.4954195,8.89842056 C73.4954195,7.52682941 73.1187514,6.49294064 72.3654154,5.79675422 C71.6120794,5.10056781 70.663915,4.7524746 69.5209224,4.7524746 C68.3155847,4.7524746 67.3154662,5.14213118 66.5205668,5.92144433 C65.7256674,6.70075748 65.3282177,7.72425541 65.3282177,8.99193814 L65.3282177,8.99193814 L65.3282177,9.11662824 C65.3282177,10.3947018 65.7230697,11.4052112 66.5127736,12.1481564 C67.3024776,12.8911016 68.3259756,13.2625742 69.5832675,13.2625742 Z M71.2977564,8.13469367 L67.6505708,8.13469367 C67.7336976,7.55280652 67.9389167,7.1034026 68.2662282,6.78648192 C68.5935398,6.46956124 69.0117711,6.3111009 69.5209224,6.3111009 C70.6327425,6.3111009 71.2250205,6.91896516 71.2977564,8.13469367 L71.2977564,8.13469367 Z M80.7706411,13.2469879 C81.2694015,13.2469879 81.7265985,13.174252 82.1422322,13.0287803 L82.1422322,13.0287803 L82.1422322,11.2831188 C81.892852,11.3870272 81.6071039,11.4389814 81.2849878,11.4389814 C80.6823189,11.4389814 80.3809845,11.1168653 80.3809845,10.4726331 L80.3809845,10.4726331 L80.3809845,6.54489485 L82.0954734,6.54489485 L82.0954734,4.93950976 L80.3809845,4.93950976 L80.3809845,3.17826204 L78.1365626,3.17826204 L78.1365626,4.93950976 L77.092283,4.93950976 L77.092283,6.54489485 L78.1365626,6.54489485 L78.1365626,10.6752545 C78.1365626,11.5169127 78.3599657,12.1559495 78.8067719,12.5923649 C79.2535781,13.0287803 79.9082012,13.2469879 80.7706411,13.2469879 Z M85.6239804,13.2625742 C86.7150188,13.2625742 87.5358953,12.878113 88.0866099,12.1091907 L88.0866099,12.1091907 L88.0866099,13.0911253 L90.284273,13.0911253 L90.284273,7.77620962 C90.284273,5.76038627 89.1464758,4.7524746 86.8708814,4.7524746 C85.8214064,4.7524746 84.9641619,4.98626855 84.299148,5.45385644 C83.6341342,5.92144433 83.2704547,6.61763074 83.2081096,7.54241568 L83.2081096,7.54241568 L85.3434277,7.54241568 C85.4473361,6.77349337 85.9097285,6.38903222 86.7306051,6.38903222 C87.2189746,6.38903222 87.5618724,6.51112461 87.7592984,6.7553094 C87.9567244,6.99949418 88.0554374,7.37616221 88.0554374,7.88531346 L88.0554374,7.88531346 L88.0554374,8.21262499 L87.1358479,8.21262499 C84.3095389,8.21262499 82.8963844,9.08545571 82.8963844,10.8311172 C82.8963844,11.6416028 83.15096,12.2494671 83.6601113,12.6547099 C84.1692625,13.0599528 84.8238856,13.2625742 85.6239804,13.2625742 Z M86.2941897,11.6883616 C85.5044857,11.6883616 85.1096337,11.3610501 85.1096337,10.7064271 C85.1096337,10.2907934 85.2836803,9.99465439 85.6317735,9.81801008 C85.9798667,9.64136576 86.4968111,9.5530436 87.1826067,9.5530436 L87.1826067,9.5530436 L88.0554374,9.5530436 L88.0554374,10.2388392 C88.0554374,10.6856454 87.8891839,11.038934 87.556677,11.2987051 C87.2241701,11.5584761 86.803341,11.6883616 86.2941897,11.6883616 Z M94.1556778,13.0911253 L94.1556778,9.24131834 L96.8521013,13.0911253 L99.4082484,13.0911253 L96.2130645,8.64904035 L99.1744545,4.93950976 L96.77417,4.93950976 L94.1556778,8.38407388 L94.1556778,1.24556543 L91.8956696,1.24556543 L91.8956696,13.0911253 L94.1556778,13.0911253 Z M103.591378,13.2625742 C104.703199,13.2625742 105.596811,13.0261825 106.272216,12.5533992 C106.94762,12.0806159 107.352863,11.4026135 107.487944,10.5193919 L107.487944,10.5193919 L105.352626,10.5193919 C105.196764,11.2779234 104.630463,11.6571891 103.653723,11.6571891 C103.040664,11.6571891 102.55749,11.470154 102.204201,11.0960836 C101.850912,10.7220133 101.658682,10.1972758 101.627509,9.52187108 L101.627509,9.52187108 L107.50353,9.52187108 L107.50353,8.89842056 C107.50353,7.52682941 107.126862,6.49294064 106.373526,5.79675422 C105.62019,5.10056781 104.672026,4.7524746 103.529033,4.7524746 C102.323696,4.7524746 101.323577,5.14213118 100.528678,5.92144433 C99.7337783,6.70075748 99.3363286,7.72425541 99.3363286,8.99193814 L99.3363286,8.99193814 L99.3363286,9.11662824 C99.3363286,10.3947018 99.7311806,11.4052112 100.520885,12.1481564 C101.310589,12.8911016 102.334087,13.2625742 103.591378,13.2625742 Z M105.305867,8.13469367 L101.658682,8.13469367 C101.741809,7.55280652 101.947028,7.1034026 102.274339,6.78648192 C102.601651,6.46956124 103.019882,6.3111009 103.529033,6.3111009 C104.640853,6.3111009 105.233131,6.91896516 105.305867,8.13469367 L105.305867,8.13469367 Z M60.668148,37.9984435 C62.9125699,37.9984435 64.7538271,37.4248691 66.1919196,36.2777201 C67.6300121,35.1305711 68.4571232,33.4763491 68.6732527,31.315054 L68.6732527,31.315054 L64.7081074,31.315054 C64.5418539,32.4455776 64.1012822,33.2976266 63.3863923,33.8712011 C62.6715023,34.4447756 61.7487956,34.7315628 60.618272,34.7315628 C59.1552414,34.7315628 58.0164051,34.2203334 57.2017631,33.1978745 C56.3871211,32.1754157 55.9798001,30.7414795 55.9798001,28.8960659 L55.9798001,28.8960659 L55.9798001,28.6965618 C55.9798001,26.8677736 56.3954338,25.4296811 57.2267011,24.3822842 C58.0579685,23.3348873 59.1801794,22.8111889 60.5933339,22.8111889 C62.7878798,22.8111889 64.0347808,23.9084618 64.3340371,26.1030076 L64.3340371,26.1030076 L68.4737485,26.1030076 C68.2742443,23.9749632 67.4637587,22.3623045 66.0422915,21.2650316 C64.6208243,20.1677587 62.7961924,19.6191222 60.5683959,19.6191222 C58.0080924,19.6191222 55.892517,20.4670149 54.2216696,22.1628003 C52.5508222,23.8585857 51.7153985,26.0448189 51.7153985,28.7214998 L51.7153985,28.7214998 L51.7153985,28.921004 C51.7153985,31.7140623 52.4926335,33.9252335 54.0471035,35.5545175 C55.6015734,37.1838015 57.8085883,37.9984435 60.668148,37.9984435 Z M74.3370777,37.7241253 L74.3370777,18.7712295 L70.7460027,18.7712295 L70.7460027,37.7241253 L74.3370777,37.7241253 Z M79.177948,22.9109409 C79.7598351,22.9109409 80.2502829,22.7280621 80.6492912,22.3623045 C81.0482995,21.9799215 81.2478037,21.5060991 81.2478037,20.9408373 C81.2478037,20.3755755 81.0482995,19.9059094 80.6492912,19.5318391 C80.2502829,19.1577688 79.7598351,18.9707337 79.177948,18.9707337 C78.5960608,18.9707337 78.1097694,19.1577688 77.7190738,19.5318391 C77.3283781,19.9059094 77.1330303,20.3755755 77.1330303,20.9408373 C77.1330303,21.5060991 77.3283781,21.9757652 77.7190738,22.3498355 C78.1097694,22.7239058 78.5960608,22.9109409 79.177948,22.9109409 Z M80.9984235,37.7241253 L80.9984235,24.6815404 L77.4073485,24.6815404 L77.4073485,37.7241253 L80.9984235,37.7241253 Z M87.6098933,37.7241253 L87.6098933,30.0182769 C87.6098933,29.1703842 87.8468045,28.513683 88.3206269,28.0481732 C88.7944493,27.5826635 89.3971181,27.3499087 90.1286334,27.3499087 C91.4919119,27.3499087 92.1735511,28.156238 92.1735511,29.7688967 L92.1735511,29.7688967 L92.1735511,37.7241253 L95.7646261,37.7241253 L95.7646261,30.0182769 C95.7646261,29.1703842 96.0015373,28.513683 96.4753597,28.0481732 C96.9491821,27.5826635 97.5518509,27.3499087 98.2833662,27.3499087 C99.6466447,27.3499087 100.328284,28.156238 100.328284,29.7688967 L100.328284,29.7688967 L100.328284,37.7241253 L103.919359,37.7241253 L103.919359,29.3698883 C103.919359,27.7073536 103.524507,26.4604526 102.734803,25.6291852 C101.945099,24.7979179 100.910171,24.3822842 99.6300193,24.3822842 C97.7181044,24.3822842 96.2550738,25.1387375 95.2409276,26.6516441 C94.6257898,25.1387375 93.4121395,24.3822842 91.5999766,24.3822842 C90.6855825,24.3822842 89.8792532,24.5984137 89.1809886,25.0306727 C88.482724,25.4629317 87.9590256,26.0115682 87.6098933,26.6765821 L87.6098933,26.6765821 L87.6098933,24.6815404 L83.9938803,24.6815404 L83.9938803,37.7241253 L87.6098933,37.7241253 Z M110.206634,37.9984435 C111.952296,37.9984435 113.265698,37.3833057 114.146842,36.15303 L114.146842,36.15303 L114.146842,37.7241253 L117.663103,37.7241253 L117.663103,29.2202602 C117.663103,25.9949429 115.842627,24.3822842 112.201676,24.3822842 C110.522516,24.3822842 109.150925,24.7563545 108.086903,25.5044951 C107.02288,26.2526357 106.440993,27.366534 106.341241,28.8461899 L106.341241,28.8461899 L109.75775,28.8461899 C109.924003,27.6159142 110.663831,27.0007764 111.977234,27.0007764 C112.758625,27.0007764 113.307262,27.1961242 113.623143,27.5868198 C113.939025,27.9775155 114.096966,28.5801843 114.096966,29.3948264 L114.096966,29.3948264 L114.096966,29.9185248 L112.625622,29.9185248 C108.103528,29.9185248 105.842481,31.315054 105.842481,34.1081123 C105.842481,35.4048894 106.249802,36.3774722 107.064444,37.0258607 C107.879086,37.6742493 108.926483,37.9984435 110.206634,37.9984435 Z M111.278969,35.4797034 C110.015443,35.4797034 109.38368,34.956005 109.38368,33.9086081 C109.38368,33.2435942 109.662154,32.7697718 110.219103,32.4871409 C110.776053,32.20451 111.603164,32.0631946 112.700436,32.0631946 L112.700436,32.0631946 L114.096966,32.0631946 L114.096966,33.1604675 C114.096966,33.8753574 113.83096,34.4406192 113.298949,34.8562529 C112.766938,35.2718866 112.093611,35.4797034 111.278969,35.4797034 Z M125.197279,37.9735055 C125.995296,37.9735055 126.726811,37.8571281 127.391825,37.6243732 L127.391825,37.6243732 L127.391825,34.8313149 C126.992817,34.9975684 126.53562,35.0806951 126.020234,35.0806951 C125.055964,35.0806951 124.573829,34.5653093 124.573829,33.5345378 L124.573829,33.5345378 L124.573829,27.2501566 L127.317011,27.2501566 L127.317011,24.6815404 L124.573829,24.6815404 L124.573829,21.8635441 L120.982754,21.8635441 L120.982754,24.6815404 L119.311906,24.6815404 L119.311906,27.2501566 L120.982754,27.2501566 L120.982754,33.8587321 C120.982754,35.2053852 121.340199,36.2278441 122.055089,36.9261086 C122.769978,37.6243732 123.817375,37.9735055 125.197279,37.9735055 Z M135.524514,37.9984435 C137.303426,37.9984435 138.733206,37.6202169 139.813854,36.8637636 C140.894501,36.1073103 141.54289,35.0225064 141.759019,33.6093519 L141.759019,33.6093519 L138.34251,33.6093519 C138.09313,34.8230022 137.187049,35.4298274 135.624266,35.4298274 C134.643371,35.4298274 133.870292,35.1305711 133.30503,34.5320586 C132.739768,33.9335461 132.432199,33.0939661 132.382323,32.0133185 L132.382323,32.0133185 L141.783957,32.0133185 L141.783957,31.0157977 C141.783957,28.8212519 141.181288,27.1670298 139.975951,26.0531316 C138.770613,24.9392333 137.25355,24.3822842 135.424762,24.3822842 C133.496222,24.3822842 131.896032,25.0057347 130.624193,26.2526357 C129.352354,27.4995368 128.716434,29.1371335 128.716434,31.1654258 L128.716434,31.1654258 L128.716434,31.36493 C128.716434,33.4098477 129.348198,35.0266627 130.611724,36.215375 C131.87525,37.4040874 133.512847,37.9984435 135.524514,37.9984435 Z M138.267696,29.7938347 L132.432199,29.7938347 C132.565202,28.8628152 132.893553,28.143769 133.417251,27.6366959 C133.94095,27.1296228 134.61012,26.8760863 135.424762,26.8760863 C137.203674,26.8760863 138.151319,27.8486691 138.267696,29.7938347 L138.267696,29.7938347 Z M55.0321553,62.3571253 L56.2541183,58.39198 L62.7130657,58.39198 L63.9350287,62.3571253 L68.1495542,62.3571253 L62.3639334,44.5264404 L57.102011,44.5264404 L51.2415761,62.3571253 L55.0321553,62.3571253 Z M61.840235,55.5241076 L57.126949,55.5241076 L59.496061,47.8182592 L61.840235,55.5241076 Z M75.4842266,62.6314435 C77.3462655,62.6314435 78.8259214,62.1534648 79.9231943,61.1975073 C81.0204672,60.2415499 81.6189797,58.9738671 81.7187318,57.3944592 L81.7187318,57.3944592 L78.4518511,57.3944592 C78.3687244,58.2091012 78.0694681,58.8325517 77.5540824,59.2648107 C77.0386966,59.6970698 76.4069334,59.9131993 75.6587928,59.9131993 C74.6446466,59.9131993 73.8590989,59.576536 73.3021498,58.9032094 C72.7452007,58.2298829 72.4667261,57.244831 72.4667261,55.948054 L72.4667261,55.948054 L72.4667261,55.7485498 C72.4667261,54.5182741 72.749357,53.5623166 73.3146188,52.8806774 C73.8798806,52.1990382 74.6363339,51.8582185 75.5839787,51.8582185 C77.0968853,51.8582185 77.9780287,52.5980465 78.2274089,54.0777024 L78.2274089,54.0777024 L81.6439178,54.0777024 C81.4942896,52.3320409 80.8500574,51.0518892 79.7112212,50.2372472 C78.5723849,49.4226052 77.1716994,49.0152842 75.5091646,49.0152842 C73.5972497,49.0152842 71.99706,49.6345784 70.7085956,50.8731667 C69.4201312,52.1117551 68.775899,53.7535081 68.775899,55.7984258 L68.775899,55.7984258 L68.775899,55.99793 C68.775899,58.0760984 69.4035059,59.7012261 70.6587196,60.8733131 C71.9139333,62.0454 73.5224357,62.6314435 75.4842266,62.6314435 Z M88.4299537,62.6065055 C89.2279704,62.6065055 89.9594856,62.4901281 90.6244995,62.2573732 L90.6244995,62.2573732 L90.6244995,59.4643149 C90.2254912,59.6305684 89.7682941,59.7136951 89.2529084,59.7136951 C88.2886382,59.7136951 87.8065032,59.1983093 87.8065032,58.1675378 L87.8065032,58.1675378 L87.8065032,51.8831566 L90.5496855,51.8831566 L90.5496855,49.3145404 L87.8065032,49.3145404 L87.8065032,46.4965441 L84.2154282,46.4965441 L84.2154282,49.3145404 L82.5445808,49.3145404 L82.5445808,51.8831566 L84.2154282,51.8831566 L84.2154282,58.4917321 C84.2154282,59.8383852 84.5728731,60.8608441 85.2877631,61.5591086 C86.002653,62.2573732 87.0500499,62.6065055 88.4299537,62.6065055 Z M94.6174771,47.5439409 C95.1993643,47.5439409 95.689812,47.3610621 96.0888204,46.9953045 C96.4878287,46.6129215 96.6873329,46.1390991 96.6873329,45.5738373 C96.6873329,45.0085755 96.4878287,44.5389094 96.0888204,44.1648391 C95.689812,43.7907688 95.1993643,43.6037337 94.6174771,43.6037337 C94.03559,43.6037337 93.5492986,43.7907688 93.1586029,44.1648391 C92.7679072,44.5389094 92.5725594,45.0085755 92.5725594,45.5738373 C92.5725594,46.1390991 92.7679072,46.6087652 93.1586029,46.9828355 C93.5492986,47.3569058 94.03559,47.5439409 94.6174771,47.5439409 Z M96.4379526,62.3571253 L96.4379526,49.3145404 L92.8468776,49.3145404 L92.8468776,62.3571253 L96.4379526,62.3571253 Z M105.493348,62.6314435 C107.48839,62.6314435 109.1343,62.0163057 110.431077,60.78603 C111.727854,59.5557543 112.376242,57.9264703 112.376242,55.8981779 L112.376242,55.8981779 L112.376242,55.6986738 C112.376242,53.6870067 111.73201,52.0701917 110.443546,50.8482287 C109.155081,49.6262657 107.513328,49.0152842 105.518286,49.0152842 C103.523245,49.0152842 101.877335,49.6387347 100.580558,50.8856357 C99.2837813,52.1325368 98.6353927,53.7618208 98.6353927,55.7734878 L98.6353927,55.7734878 L98.6353927,55.972992 C98.6353927,57.9680336 99.2837813,59.576536 100.580558,60.798499 C101.877335,62.020462 103.514932,62.6314435 105.493348,62.6314435 Z M105.518286,59.8882612 C104.50414,59.8882612 103.714436,59.539129 103.149175,58.8408644 C102.600538,58.1259744 102.32622,57.145079 102.32622,55.8981779 L102.32622,55.8981779 L102.32622,55.6986738 C102.32622,54.4517727 102.608851,53.4833462 103.174113,52.7933943 C103.739374,52.1034424 104.520766,51.7584665 105.518286,51.7584665 C106.532433,51.7584665 107.31798,52.1117551 107.874929,52.8183323 C108.431879,53.5249096 108.710353,54.5016488 108.710353,55.7485498 L108.710353,55.7485498 L108.710353,55.9231159 C108.710353,57.170017 108.431879,58.1425998 107.874929,58.8408644 C107.31798,59.539129 106.532433,59.8882612 105.518286,59.8882612 Z M118.089943,62.3571253 L118.089943,54.825843 C118.089943,53.8948236 118.339323,53.18409 118.838084,52.6936422 C119.336844,52.2031945 119.993545,51.9579706 120.808188,51.9579706 C121.606204,51.9579706 122.188091,52.1699438 122.553849,52.5938902 C122.919607,53.0178365 123.102485,53.6786941 123.102485,54.5764628 L123.102485,54.5764628 L123.102485,62.3571253 L126.718498,62.3571253 L126.718498,54.0527644 C126.718498,52.3736043 126.323646,51.1142343 125.533942,50.2746542 C124.744238,49.4350742 123.67606,49.0152842 122.329407,49.0152842 C121.298635,49.0152842 120.421648,49.23557 119.698446,49.6761417 C118.975243,50.1167134 118.439076,50.6861316 118.089943,51.3843962 L118.089943,51.3843962 L118.089943,49.3145404 L114.47393,49.3145404 L114.47393,62.3571253 L118.089943,62.3571253 Z" id="WetakeClimateAction" fill="#181819" fill-rule="nonzero"></path>
        <path d="M54.66424,78.65639 C55.42822,78.65639 56.044045,78.390425 56.511715,77.858495 C56.979385,77.326565 57.21322,76.62863 57.21322,75.76469 L57.21322,75.76469 L57.21322,75.67901 C57.21322,74.82221 56.975815,74.138555 56.501005,73.628045 C56.026195,73.117535 55.41394,72.86228 54.66424,72.86228 C54.27154,72.86228 53.90026,72.964025 53.5504,73.167515 C53.20054,73.371005 52.93993,73.61555 52.76857,73.90115 L52.76857,73.90115 L52.76857,70.28117 L51.87964,70.28117 L51.87964,78.56 L52.76857,78.56 L52.76857,77.63894 C52.93993,77.93882 53.18983,78.183365 53.51827,78.372575 C53.84671,78.561785 54.2287,78.65639 54.66424,78.65639 Z M54.57856,77.9174 C54.0145,77.9174 53.566465,77.7389 53.234455,77.3819 C52.902445,77.0249 52.73644,76.50011 52.73644,75.80753 L52.73644,75.80753 L52.73644,75.72185 C52.73644,75.02927 52.906015,74.502695 53.245165,74.142125 C53.584315,73.781555 54.02521,73.60127 54.56785,73.60127 C55.06765,73.60127 55.479985,73.785125 55.804855,74.152835 C56.129725,74.520545 56.29216,75.04355 56.29216,75.72185 L56.29216,75.72185 L56.29216,75.80753 C56.29216,76.48583 56.14579,77.00705 55.85305,77.37119 C55.56031,77.73533 55.13548,77.9174 54.57856,77.9174 Z M59.7226686,80.50922 L62.8178586,72.95867 L61.9075086,72.95867 L60.3545586,76.97492 L58.6409586,72.95867 L57.6877686,72.95867 L59.8833186,77.98166 L58.8230286,80.50922 L59.7226686,80.50922 Z M67.4083558,78.56 L67.4083558,70.28117 L66.5087158,70.28117 L66.5087158,78.56 L67.4083558,78.56 Z M70.1427144,78.56 L70.1427144,73.70837 L71.5135944,73.70837 L71.5135944,72.95867 L70.1427144,72.95867 L70.1427144,71.95193 C70.1427144,71.30933 70.4140344,70.98803 70.9566744,70.98803 C71.1780144,70.98803 71.3886444,71.0273 71.5885644,71.10584 L71.5885644,71.10584 L71.5885644,70.35614 C71.3743644,70.28474 71.1530244,70.24904 70.9245444,70.24904 C70.3747644,70.24904 69.9588594,70.404335 69.6768294,70.714925 C69.3947994,71.025515 69.2537844,71.46998 69.2537844,72.04832 L69.2537844,72.04832 L69.2537844,72.95867 L68.4505344,72.95867 L68.4505344,73.70837 L69.2537844,73.70837 L69.2537844,78.56 L70.1427144,78.56 Z M74.654933,78.65639 C75.318953,78.65639 75.877658,78.458255 76.331048,78.061985 C76.784438,77.665715 77.039693,77.16056 77.096813,76.54652 L77.096813,76.54652 L76.272143,76.54652 C76.229303,76.98206 76.056158,77.319425 75.752708,77.558615 C75.449258,77.797805 75.086903,77.9174 74.665643,77.9174 C74.108723,77.9174 73.664258,77.73533 73.332248,77.37119 C73.000238,77.00705 72.834233,76.4894 72.834233,75.81824 L72.834233,75.81824 L72.834233,75.73256 C72.834233,75.08996 73.003808,74.574095 73.342958,74.184965 C73.682108,73.795835 74.112293,73.60127 74.633513,73.60127 C75.540293,73.60127 76.057943,74.00825 76.186463,74.82221 L76.186463,74.82221 L77.064683,74.82221 C76.986143,74.15105 76.721963,73.656605 76.272143,73.338875 C75.822323,73.021145 75.276113,72.86228 74.633513,72.86228 C73.869533,72.86228 73.225148,73.13003 72.700358,73.66553 C72.175568,74.20103 71.913173,74.89004 71.913173,75.73256 L71.913173,75.73256 L71.913173,75.81824 C71.913173,76.67504 72.171998,77.362265 72.689648,77.879915 C73.207298,78.397565 73.862393,78.65639 74.654933,78.65639 Z M79.6705215,78.65639 C80.4059415,78.65639 80.9878515,78.38864 81.4162515,77.85314 L81.4162515,77.85314 L81.4162515,78.56 L82.3051815,78.56 L82.3051815,74.86505 C82.3051815,73.52987 81.6233115,72.86228 80.2595715,72.86228 C79.6669515,72.86228 79.1635815,73.003295 78.7494615,73.285325 C78.3353415,73.567355 78.0997215,74.00825 78.0426015,74.60801 L78.0426015,74.60801 L78.9315315,74.60801 C79.0172115,73.93685 79.4456115,73.60127 80.2167315,73.60127 C80.6451315,73.60127 80.9521515,73.699445 81.1377915,73.895795 C81.3234315,74.092145 81.4162515,74.41523 81.4162515,74.86505 L81.4162515,74.86505 L81.4162515,75.27203 L80.6130015,75.27203 C79.8061815,75.27203 79.1368065,75.41126 78.6048765,75.68972 C78.0729465,75.96818 77.8069815,76.40729 77.8069815,77.00705 C77.8069815,77.55683 77.9801265,77.969165 78.3264165,78.244055 C78.6727065,78.518945 79.1207415,78.65639 79.6705215,78.65639 Z M79.7562015,77.94953 C79.0493415,77.94953 78.6959115,77.63537 78.6959115,77.00705 C78.6959115,76.27163 79.3456515,75.90392 80.6451315,75.90392 L80.6451315,75.90392 L81.4162515,75.90392 L81.4162515,76.60007 C81.4162515,77.02133 81.2609565,77.351555 80.9503665,77.590745 C80.6397765,77.829935 80.2417215,77.94953 79.7562015,77.94953 Z M84.4933301,78.61355 C84.6789701,78.61355 84.8396201,78.54929 84.9752801,78.42077 C85.1109401,78.28511 85.1787701,78.12089 85.1787701,77.92811 C85.1787701,77.73533 85.1109401,77.572895 84.9752801,77.440805 C84.8396201,77.308715 84.6789701,77.24267 84.4933301,77.24267 C84.3076901,77.24267 84.1470401,77.308715 84.0113801,77.440805 C83.8757201,77.572895 83.8078901,77.73533 83.8078901,77.92811 C83.8078901,78.12089 83.8757201,78.283325 84.0113801,78.415415 C84.1470401,78.547505 84.3076901,78.61355 84.4933301,78.61355 Z M88.7592187,78.65639 C89.4018187,78.65639 89.9373187,78.508235 90.3657187,78.211925 C90.7941187,77.915615 91.0547287,77.49257 91.1475487,76.94279 L91.1475487,76.94279 L90.2586187,76.94279 C90.1443787,77.59253 89.6481487,77.9174 88.7699287,77.9174 C88.1987287,77.9174 87.7614037,77.747825 87.4579537,77.408675 C87.1545037,77.069525 86.9920687,76.57865 86.9706487,75.93605 L86.9706487,75.93605 L91.1903887,75.93605 L91.1903887,75.64688 C91.1903887,74.71154 90.9494137,74.013605 90.4674637,73.553075 C89.9855137,73.092545 89.3875387,72.86228 88.6735387,72.86228 C87.9024187,72.86228 87.2723137,73.13003 86.7832237,73.66553 C86.2941337,74.20103 86.0495887,74.89004 86.0495887,75.73256 L86.0495887,75.73256 L86.0495887,75.81824 C86.0495887,76.67504 86.3012737,77.362265 86.8046437,77.879915 C87.3080137,78.397565 87.9595387,78.65639 88.7592187,78.65639 Z M90.2800387,75.21848 L87.0027787,75.21848 C87.0813187,74.71868 87.2669587,74.324195 87.5596987,74.035025 C87.8524387,73.745855 88.2237187,73.60127 88.6735387,73.60127 C89.6659987,73.60127 90.2014987,74.14034 90.2800387,75.21848 L90.2800387,75.21848 Z M93.8390673,78.65639 C94.5744873,78.65639 95.1563973,78.38864 95.5847973,77.85314 L95.5847973,77.85314 L95.5847973,78.56 L96.4737273,78.56 L96.4737273,74.86505 C96.4737273,73.52987 95.7918573,72.86228 94.4281173,72.86228 C93.8354973,72.86228 93.3321273,73.003295 92.9180073,73.285325 C92.5038873,73.567355 92.2682673,74.00825 92.2111473,74.60801 L92.2111473,74.60801 L93.1000773,74.60801 C93.1857573,73.93685 93.6141573,73.60127 94.3852773,73.60127 C94.8136773,73.60127 95.1206973,73.699445 95.3063373,73.895795 C95.4919773,74.092145 95.5847973,74.41523 95.5847973,74.86505 L95.5847973,74.86505 L95.5847973,75.27203 L94.7815473,75.27203 C93.9747273,75.27203 93.3053523,75.41126 92.7734223,75.68972 C92.2414923,75.96818 91.9755273,76.40729 91.9755273,77.00705 C91.9755273,77.55683 92.1486723,77.969165 92.4949623,78.244055 C92.8412523,78.518945 93.2892873,78.65639 93.8390673,78.65639 Z M93.9247473,77.94953 C93.2178873,77.94953 92.8644573,77.63537 92.8644573,77.00705 C92.8644573,76.27163 93.5141973,75.90392 94.8136773,75.90392 L94.8136773,75.90392 L95.5847973,75.90392 L95.5847973,76.60007 C95.5847973,77.02133 95.4295023,77.351555 95.1189123,77.590745 C94.8083223,77.829935 94.4102673,77.94953 93.9247473,77.94953 Z M98.9403359,78.56 L98.9403359,75.48623 C98.9403359,74.83649 99.0938459,74.3831 99.4008659,74.12606 C99.7078859,73.86902 100.168416,73.72622 100.782456,73.69766 L100.782456,73.69766 L100.782456,72.86228 C100.311216,72.87656 99.9345809,72.97652 99.6525509,73.16216 C99.3705209,73.3478 99.1331159,73.61555 98.9403359,73.96541 L98.9403359,73.96541 L98.9403359,72.95867 L98.0514059,72.95867 L98.0514059,78.56 L98.9403359,78.56 Z M103.666755,78.63497 C103.952355,78.63497 104.205825,78.5957 104.427165,78.51716 L104.427165,78.51716 L104.427165,77.76746 C104.227245,77.846 103.998765,77.88527 103.741725,77.88527 C103.277625,77.88527 103.045575,77.61395 103.045575,77.07131 L103.045575,77.07131 L103.045575,73.70837 L104.352195,73.70837 L104.352195,72.95867 L103.045575,72.95867 L103.045575,71.68418 L102.156645,71.68418 L102.156645,72.95867 L101.353395,72.95867 L101.353395,73.70837 L102.156645,73.70837 L102.156645,77.15699 C102.156645,77.61395 102.285165,77.97452 102.542205,78.2387 C102.799245,78.50288 103.174095,78.63497 103.666755,78.63497 Z M106.486793,78.56 L106.486793,75.16493 C106.486793,74.68655 106.638518,74.3117 106.941968,74.04038 C107.245418,73.76906 107.614913,73.6334 108.050453,73.6334 C108.500273,73.6334 108.832283,73.74764 109.046483,73.97612 C109.260683,74.2046 109.367783,74.56517 109.367783,75.05783 L109.367783,75.05783 L109.367783,78.56 L110.256713,78.56 L110.256713,75.12209 C110.256713,74.34383 110.081783,73.77263 109.731923,73.40849 C109.382063,73.04435 108.900113,72.86228 108.286073,72.86228 C107.850533,72.86228 107.475683,72.9551 107.161523,73.14074 C106.847363,73.32638 106.622453,73.562 106.486793,73.8476 L106.486793,73.8476 L106.486793,70.28117 L105.597863,70.28117 L105.597863,78.56 L106.486793,78.56 Z" id="bylfca.earth" fill="#000000" fill-rule="nonzero" opacity="0.701915923"></path>
        <path d="M20.6812079,-4.26325641e-14 C23.7494059,-4.26325641e-14 26.5457382,0.588424359 29.0702049,1.76527308 C31.5946716,2.94212179 33.7501778,4.49859913 35.5367235,6.43470508 C37.3232691,8.37081104 38.7020163,10.572657 39.6729651,13.040243 C40.3134573,14.6680012 40.7426972,16.3122787 40.9606849,17.9730756 L35.0000616,25.9633114 L32.7910031,21.4384038 C32.791208,21.4099991 32.7913104,21.3815752 32.7913104,21.353132 C32.7913104,19.915696 32.5219527,18.4997143 31.9832373,17.1051869 C31.4445219,15.7106594 30.6795461,14.4663118 29.6883098,13.3721441 C28.6970735,12.2779764 27.5011253,11.3983514 26.1004653,10.7332691 C24.6998053,10.0681868 23.148305,9.7356456 21.4459644,9.7356456 C19.786721,9.7356456 18.2567693,10.0520961 16.8561093,10.684997 C15.4554493,11.3178979 14.2433397,12.1653415 13.2197804,13.2273278 C12.1962212,14.2893141 11.3989224,15.517571 10.8278841,16.9120984 C10.2568458,18.3066259 9.97132668,19.754789 9.97132668,21.2565878 C9.97132668,22.7369324 10.2460715,24.1743683 10.7955612,25.5688958 C11.3450509,26.9634233 12.1154139,28.2024073 13.1066502,29.2858478 C14.0978865,30.3692884 15.2938347,31.2435498 16.6944947,31.9086322 C18.0951547,32.5737145 19.646655,32.9062557 21.3489956,32.9062557 C23.008239,32.9062557 24.5381907,32.5844416 25.9388507,31.9408136 C27.3395107,31.2971855 28.5462331,30.4443783 29.5590181,29.382392 C30.571803,28.3204057 31.3637146,27.0921489 31.9347529,25.6976214 L31.965,25.617 L34.4494978,30.5246175 L41.0000126,22.8408792 C40.7883211,24.6899544 40.3168435,26.4911177 39.5855797,28.2443692 C38.556374,30.7119552 37.1290794,32.8853291 35.3036958,34.7644907 C33.4783122,36.6436524 31.303387,38.1526761 28.7789203,39.291562 C26.2544536,40.4304479 23.4969592,40.9998908 20.5064372,40.9998908 C17.4382392,40.9998908 14.6419068,40.4114664 12.1174401,39.2346177 C9.59297344,38.057769 7.43746726,36.5107824 5.6509216,34.5936579 C3.86437594,32.6765333 2.47591926,30.4841781 1.48555155,28.016592 C0.495183852,25.549006 1.69109171e-12,23.0054943 1.69109171e-12,20.3860568 C1.69109171e-12,17.7286565 0.514602826,15.1661633 1.54380848,12.6985773 C2.57301413,10.2309913 4.01001825,8.05761743 5.85482083,6.17845576 C7.69962342,4.2992941 9.88425806,2.79976106 12.4087248,1.67985664 C14.9331914,0.559952212 17.6906858,-4.26325641e-14 20.6812079,-4.26325641e-14 Z" id="O" fill="url(#radialGradient-1)"></path>
    </g>
</svg>