<?xml version="1.0" encoding="UTF-8"?>
<svg width="41px" height="41px" viewBox="0 0 41 41" version="1.1" xmlns="http://www.w3.org/2000/svg" xmlns:xlink="http://www.w3.org/1999/xlink">
    <title>O</title>
    <defs>
        <radialGradient cx="86.8562758%" cy="57.8778864%" fx="86.8562758%" fy="57.8778864%" r="94.4936416%" id="radialGradient-1">
            <stop stop-color="#4D8AA5" offset="0%"></stop>
            <stop stop-color="#61A7C7" offset="100%"></stop>
        </radialGradient>
    </defs>
    <g id="Basic-Flow" stroke="none" stroke-width="1" fill="none" fill-rule="evenodd">
        <g id="Artboard" transform="translate(-16.000000, -58.000000)" fill="url(#radialGradient-1)">
            <path d="M36.6812079,58 C39.7494059,58 42.5457382,58.5884259 45.0702049,59.7652778 C47.5946716,60.9421296 49.7501778,62.4986111 51.5367235,64.4347222 C53.3232691,66.3708333 54.7020163,68.5726852 55.6729651,71.0402778 C56.3134573,72.6680402 56.7426972,74.3123222 56.9606849,75.9731235 L51.0000587,83.9633824 L48.7910031,79.4384609 C48.791208,79.4100561 48.7913104,79.3816321 48.7913104,79.3531889 C48.7913104,77.9157491 48.5219527,76.4997636 47.9832373,75.1052324 C47.4445219,73.7107012 46.6795461,72.4663504 45.6883098,71.3721797 C44.6970735,70.2780091 43.5011253,69.3983818 42.1004653,68.7332977 C40.6998053,68.0682136 39.148305,67.7356715 37.4459644,67.7356715 C35.786721,67.7356715 34.2567693,68.0521228 32.8561093,68.6850254 C31.4554493,69.3179281 30.2433397,70.1653739 29.2197804,71.227363 C28.1962212,72.2893522 27.3989224,73.5176123 26.8278841,74.9121435 C26.2568458,76.3066747 25.9713267,77.7548416 25.9713267,79.2566444 C25.9713267,80.7369929 26.2460715,82.1744327 26.7955612,83.5689639 C27.3450509,84.9634951 28.1154139,86.2024824 29.1066502,87.2859258 C30.0978865,88.3693693 31.2938347,89.2436331 32.6944947,89.9087172 C34.0951547,90.5738013 35.646655,90.9063433 37.3489956,90.9063433 C39.008239,90.9063433 40.5381907,90.5845284 41.9388507,89.9408987 C43.3395107,89.2972689 44.5462331,88.4444594 45.5590181,87.3824703 C46.571803,86.3204812 47.3637146,85.092221 47.9347529,83.6976899 L47.965,83.617 L50.4494932,88.5247006 L57.0000126,80.84094 C56.7883211,82.6900201 56.3168435,84.4911883 55.5855797,86.2444444 C54.556374,88.712037 53.1290794,90.8854167 51.3036958,92.7645833 C49.4783122,94.64375 47.303387,96.1527778 44.7789203,97.2916667 C42.2544536,98.4305556 39.4969592,99 36.5064372,99 C33.4382392,99 30.6419068,98.4115741 28.1174401,97.2347222 C25.5929734,96.0578704 23.4374673,94.5108796 21.6509216,92.59375 C19.8643759,90.6766204 18.4759193,88.4842593 17.4855516,86.0166667 C16.4951839,83.5490741 16,81.0055556 16,78.3861111 C16,75.7287037 16.5146028,73.1662037 17.5438085,70.6986111 C18.5730141,68.2310185 20.0100182,66.0576389 21.8548208,64.1784722 C23.6996234,62.2993056 25.8842581,60.7997685 28.4087248,59.6798611 C30.9331914,58.5599537 33.6906858,58 36.6812079,58 Z" id="O"></path>
        </g>
    </g>
</svg>