<?xml version="1.0" encoding="UTF-8"?>
<svg width="40px" height="42px" viewBox="0 0 40 42" version="1.1" xmlns="http://www.w3.org/2000/svg" xmlns:xlink="http://www.w3.org/1999/xlink">
    <title>logo_mobile</title>
    <g id="logo_mobile" stroke="none" stroke-width="1" fill="none" fill-rule="evenodd">
        <g id="Group-15-Copy" fill="#349FC3">
            <path d="M19.9380762,0.71 C22.8960256,0.71 25.5918781,1.29409167 28.0256339,2.462275 C30.4593897,3.63045833 32.5374427,5.175475 34.2597929,7.097325 C35.9821432,9.019175 37.3113483,11.2048083 38.2474082,13.654225 C38.7372245,14.9359422 39.0988865,16.2279778 39.3323945,17.5303316 L32.8854902,26.5172567 L30.7866679,21.9840074 C30.8088893,21.6888021 30.82,21.3914478 30.82,21.0919444 C30.82,19.6650926 30.5603211,18.259537 30.0409632,16.8752778 C29.5216053,15.4910185 28.7841171,14.2558333 27.8284986,13.1697222 C26.8728801,12.0836111 25.7199056,11.210463 24.3695751,10.5502778 C23.0192446,9.89009259 21.5234939,9.56 19.8823229,9.56 C18.2827007,9.56 16.8077243,9.87412037 15.4573938,10.5023611 C14.1070633,11.1306019 12.938508,11.9718056 11.951728,13.0259722 C10.9649481,14.0801389 10.1962984,15.2993519 9.64577904,16.6836111 C9.09525968,18.0678704 8.82,19.5053704 8.82,20.9961111 C8.82,22.4655556 9.08487252,23.8924074 9.61461756,25.2766667 C10.1443626,26.6609259 10.8870444,27.890787 11.8426629,28.96625 C12.7982814,30.041713 13.9512559,30.909537 15.3015864,31.5697222 C16.6519169,32.2299074 18.1476676,32.56 19.7888385,32.56 C21.3884608,32.56 22.8634372,32.2405556 24.2137677,31.6016667 C25.5640982,30.9627778 26.7274599,30.11625 27.7038527,29.0620833 C28.5852258,28.1105051 29.2930903,27.0244411 29.8274462,25.8038914 L32.3368053,31.0305552 L39.6273106,22.1197522 C39.516946,24.4003546 39.0288967,26.6092372 38.1631628,28.7464 C37.1709393,31.1958167 35.7949312,33.3531875 34.0351386,35.2185125 C32.2753459,37.0838375 30.1785717,38.58175 27.7448159,39.71225 C25.3110601,40.84275 22.65265,41.408 19.7695854,41.408 C16.8116361,41.408 14.1157835,40.8239083 11.6820278,39.655725 C9.24827198,38.4875417 7.17021896,36.9519458 5.44786871,35.0489375 C3.72551847,33.1459292 2.38695279,30.9697167 1.43217167,28.5203 C0.477390557,26.0708833 4.8316906e-13,23.5461 4.8316906e-13,20.94595 C4.8316906e-13,18.3081167 0.496111756,15.7644917 1.48833527,13.315075 C2.48055878,10.8656583 3.86592746,8.7082875 5.6444413,6.8429625 C7.42295514,4.9776375 9.52908995,3.48914583 11.9628457,2.3774875 C14.3966015,1.26582917 17.0550117,0.71 19.9380762,0.71 Z" id="O"></path>
        </g>
    </g>
</svg>