<svg width="62" height="62" viewBox="0 0 62 62" fill="none" xmlns="http://www.w3.org/2000/svg">
<path fill-rule="evenodd" clip-rule="evenodd" d="M30.6448 61.8329C35.1139 61.8329 39.2347 60.982 43.0073 59.28C46.7798 57.5781 50.03 55.323 52.7579 52.5147C55.4857 49.7065 57.6187 46.4586 59.1567 42.771C60.2491 40.1521 60.9535 37.4617 61.27 34.6997L51.4854 46.1801L47.7719 38.8431C47.7551 38.885 47.7381 38.9269 47.721 38.9688C46.8676 41.0528 45.6842 42.8883 44.1707 44.4753C42.6572 46.0624 40.8538 47.3368 38.7607 48.2986C36.6675 49.2605 34.3812 49.7414 31.9016 49.7414C29.3576 49.7414 27.0391 49.2444 24.9459 48.2505C22.8528 47.2566 21.0655 45.9501 19.5842 44.331C18.1029 42.7119 16.9517 40.8604 16.1305 38.7764C15.3094 36.6924 14.8988 34.5443 14.8988 32.3321C14.8988 30.0878 15.3255 27.9236 16.1788 25.8396C17.0322 23.7557 18.2237 21.9201 19.7533 20.3331C21.2829 18.7461 23.0943 17.4796 25.1874 16.5338C27.2806 15.588 29.5669 15.1151 32.0465 15.1151C34.5905 15.1151 36.9091 15.6121 39.0022 16.606C41.0954 17.5999 42.8826 18.9144 44.3639 20.5495C45.8452 22.1847 46.9884 24.0442 47.7934 26.1282C48.5985 28.2122 49.001 30.3282 49.001 32.4764C49.001 32.5144 49.0009 32.5525 49.0006 32.5905L52.3082 39.3637L61.2123 27.4261C60.8867 24.9426 60.2451 22.4839 59.2873 20.0499C57.8363 16.3623 55.7759 13.0719 53.1061 10.1786C50.4363 7.28523 47.2151 4.95922 43.4425 3.20053C39.67 1.44184 35.4911 0.5625 30.906 0.5625C26.437 0.5625 22.3162 1.3993 18.5436 3.07289C14.771 4.74648 11.5063 6.98739 8.74945 9.79562C5.99258 12.6038 3.84512 15.8517 2.30707 19.5393C0.769023 23.2269 0 27.0563 0 31.0275C0 34.942 0.740003 38.7431 2.22001 42.4306C3.70002 46.1182 5.77493 49.3945 8.44474 52.2594C11.1146 55.1244 14.3358 57.4362 18.1083 59.1949C21.8809 60.9536 26.0597 61.8329 30.6448 61.8329Z" fill="#61A7C7"/>
</svg>
