<svg width="178" height="94" viewBox="0 0 178 94" fill="none" xmlns="http://www.w3.org/2000/svg">
<path fill-rule="evenodd" clip-rule="evenodd" d="M30.6448 70.8329C35.1139 70.8329 39.2347 69.982 43.0073 68.28C46.7798 66.5781 50.03 64.323 52.7579 61.5147C55.4857 58.7065 57.6187 55.4586 59.1567 51.771C60.2491 49.1521 60.9535 46.4617 61.27 43.6997L51.4854 55.1801L47.7719 47.8431C47.7551 47.885 47.7381 47.9269 47.721 47.9688C46.8676 50.0528 45.6842 51.8883 44.1707 53.4753C42.6572 55.0624 40.8538 56.3368 38.7607 57.2986C36.6675 58.2605 34.3812 58.7414 31.9016 58.7414C29.3576 58.7414 27.0391 58.2444 24.9459 57.2505C22.8528 56.2566 21.0655 54.9501 19.5842 53.331C18.1029 51.7119 16.9517 49.8604 16.1305 47.7764C15.3094 45.6924 14.8988 43.5443 14.8988 41.3321C14.8988 39.0878 15.3255 36.9236 16.1788 34.8396C17.0322 32.7557 18.2237 30.9201 19.7533 29.3331C21.2829 27.7461 23.0943 26.4796 25.1874 25.5338C27.2806 24.588 29.5669 24.1151 32.0465 24.1151C34.5905 24.1151 36.9091 24.6121 39.0022 25.606C41.0954 26.5999 42.8826 27.9144 44.3639 29.5495C45.8452 31.1847 46.9884 33.0442 47.7934 35.1282C48.5985 37.2122 49.001 39.3282 49.001 41.4764C49.001 41.5144 49.0009 41.5525 49.0006 41.5905L52.3082 48.3637L61.2123 36.4261C60.8867 33.9426 60.2451 31.4839 59.2873 29.0499C57.8363 25.3623 55.7759 22.0719 53.1061 19.1786C50.4363 16.2852 47.2151 13.9592 43.4425 12.2005C39.67 10.4418 35.4911 9.5625 30.906 9.5625C26.437 9.5625 22.3162 10.3993 18.5436 12.0729C14.771 13.7465 11.5063 15.9874 8.74945 18.7956C5.99258 21.6038 3.84512 24.8517 2.30707 28.5393C0.769023 32.2269 0 36.0563 0 40.0275C0 43.942 0.740003 47.7431 2.22001 51.4306C3.70002 55.1182 5.77493 58.3945 8.44474 61.2594C11.1146 64.1244 14.3358 66.4362 18.1083 68.1949C21.8809 69.9536 26.0597 70.8329 30.6448 70.8329Z" fill="#61A7C7"/>
<path d="M80.9015 46.3197C77.5687 46.3197 74.9917 45.3703 73.1703 43.4714C71.3683 41.5725 70.4673 38.9954 70.4673 35.7402V35.5077C70.4673 32.3881 71.4361 29.8401 73.3737 27.8637C75.3307 25.8873 77.8012 24.8991 80.7852 24.8991C83.3816 24.8991 85.5034 25.5385 87.1503 26.8174C88.8167 28.0962 89.7662 29.9757 89.9987 32.4559H85.174C84.8252 29.8982 83.372 28.6194 80.8143 28.6194C79.1673 28.6194 77.8594 29.2297 76.8905 30.4504C75.9217 31.6712 75.4373 33.3472 75.4373 35.4786V35.7111C75.4373 37.8619 75.912 39.538 76.8615 40.7393C77.8109 41.9213 79.1382 42.5122 80.8433 42.5122C82.1609 42.5122 83.2363 42.1828 84.0695 41.5241C84.9027 40.8459 85.4162 39.848 85.6099 38.5304H90.2312C89.9793 41.0493 89.0105 42.9773 87.3247 44.3143C85.6584 45.6512 83.5173 46.3197 80.9015 46.3197ZM92.6483 46V23.9109H96.8336V46H92.6483ZM100.42 46V30.7992H104.605V46H100.42ZM104.198 28.0962C103.733 28.5225 103.162 28.7356 102.483 28.7356C101.805 28.7356 101.234 28.5225 100.769 28.0962C100.323 27.6506 100.1 27.0983 100.1 26.4395C100.1 25.7807 100.323 25.2382 100.769 24.8119C101.234 24.3663 101.805 24.1434 102.483 24.1434C103.162 24.1434 103.733 24.3663 104.198 24.8119C104.663 25.2382 104.896 25.7807 104.896 26.4395C104.896 27.0983 104.663 27.6506 104.198 28.0962ZM108.104 46V30.7992H112.318V33.1244C112.725 32.3493 113.335 31.7099 114.149 31.2061C114.963 30.7023 115.903 30.4504 116.968 30.4504C119.08 30.4504 120.495 31.3321 121.212 33.0953C122.394 31.3321 124.099 30.4504 126.327 30.4504C127.819 30.4504 129.02 30.9349 129.931 31.9037C130.861 32.8725 131.326 34.3257 131.326 36.2634V46H127.141V36.7284C127.141 34.8489 126.346 33.9091 124.758 33.9091C123.905 33.9091 123.198 34.1804 122.636 34.7229C122.093 35.2655 121.822 36.0308 121.822 37.019V46H117.637V36.7284C117.637 34.8489 116.842 33.9091 115.253 33.9091C114.401 33.9091 113.694 34.1804 113.132 34.7229C112.589 35.2655 112.318 36.0308 112.318 37.019V46H108.104ZM138.649 46.3197C137.158 46.3197 135.937 45.9419 134.987 45.1862C134.038 44.4305 133.563 43.297 133.563 41.7856C133.563 38.5304 136.198 36.9028 141.469 36.9028H143.184V36.2924C143.184 35.343 142.999 34.6454 142.631 34.1998C142.263 33.7347 141.624 33.5022 140.713 33.5022C139.182 33.5022 138.32 34.2192 138.126 35.653H134.144C134.261 33.9285 134.939 32.6303 136.179 31.7583C137.419 30.8864 139.018 30.4504 140.975 30.4504C145.218 30.4504 147.34 32.33 147.34 36.089V46H143.242V44.1689C142.215 45.6028 140.684 46.3197 138.649 46.3197ZM139.899 43.3842C140.849 43.3842 141.633 43.142 142.254 42.6576C142.874 42.1732 143.184 41.5144 143.184 40.6812V39.4023H141.556C140.277 39.4023 139.308 39.567 138.649 39.8964C138.01 40.2258 137.69 40.7781 137.69 41.5531C137.69 42.7738 138.427 43.3842 139.899 43.3842ZM156.134 46.2906C154.526 46.2906 153.305 45.8837 152.472 45.0699C151.639 44.2561 151.222 43.0645 151.222 41.495V33.7929H149.275V30.7992H151.222V27.5149H155.407V30.7992H158.604V33.7929H155.407V41.1171C155.407 42.3185 155.969 42.9192 157.093 42.9192C157.694 42.9192 158.227 42.8223 158.692 42.6285V45.8837C157.916 46.155 157.064 46.2906 156.134 46.2906ZM168.169 46.3197C165.824 46.3197 163.915 45.6318 162.443 44.2561C160.97 42.861 160.234 40.9718 160.234 38.5885V38.356C160.234 35.9921 160.97 34.0835 162.443 32.6303C163.935 31.1771 165.805 30.4504 168.052 30.4504C170.184 30.4504 171.947 31.0996 173.342 32.3978C174.757 33.696 175.464 35.6239 175.464 38.1816V39.3442H164.506C164.565 40.6037 164.923 41.5822 165.582 42.2797C166.241 42.9773 167.142 43.3261 168.285 43.3261C170.106 43.3261 171.162 42.6188 171.453 41.2043H175.435C175.183 42.8513 174.427 44.1205 173.168 45.0118C171.908 45.8837 170.242 46.3197 168.169 46.3197ZM164.565 36.7575H171.366C171.23 34.4904 170.126 33.3569 168.052 33.3569C167.103 33.3569 166.318 33.6572 165.698 34.2579C165.097 34.8392 164.72 35.6724 164.565 36.7575ZM69.915 71L76.7452 50.2188H82.8779L89.6208 71H84.7089L83.2848 66.3787H75.757L74.3329 71H69.915ZM79.5354 54.0553L76.7743 63.0363H82.2675L79.5354 54.0553ZM98.1715 71.3197C95.8851 71.3197 94.0055 70.6415 92.5329 69.2852C91.0797 67.9095 90.3531 66.0106 90.3531 63.5885V63.356C90.3531 60.9727 91.0991 59.0641 92.5911 57.6303C94.1024 56.1771 95.9723 55.4504 98.2005 55.4504C100.138 55.4504 101.766 55.9252 103.083 56.8746C104.42 57.8241 105.176 59.316 105.35 61.3506H101.369C101.078 59.6261 100.051 58.7638 98.2877 58.7638C97.1833 58.7638 96.3016 59.161 95.6429 59.9555C94.9841 60.7499 94.6547 61.864 94.6547 63.2979V63.5304C94.6547 65.0418 94.9744 66.1947 95.6138 66.9891C96.2726 67.7641 97.193 68.1517 98.3749 68.1517C99.2469 68.1517 99.9832 67.8998 100.584 67.396C101.185 66.8922 101.533 66.1656 101.63 65.2161H105.438C105.321 67.0569 104.624 68.5392 103.345 69.663C102.066 70.7675 100.342 71.3197 98.1715 71.3197ZM113.263 71.2906C111.655 71.2906 110.434 70.8837 109.601 70.0699C108.768 69.2561 108.351 68.0645 108.351 66.495V58.7929H106.404V55.7992H108.351V52.5149H112.536V55.7992H115.733V58.7929H112.536V66.1171C112.536 67.3185 113.098 67.9192 114.222 67.9192C114.823 67.9192 115.356 67.8223 115.821 67.6285V70.8837C115.046 71.155 114.193 71.2906 113.263 71.2906ZM118.409 71V55.7992H122.595V71H118.409ZM122.188 53.0962C121.723 53.5225 121.151 53.7356 120.473 53.7356C119.795 53.7356 119.223 53.5225 118.758 53.0962C118.313 52.6506 118.09 52.0983 118.09 51.4395C118.09 50.7807 118.313 50.2382 118.758 49.8119C119.223 49.3663 119.795 49.1434 120.473 49.1434C121.151 49.1434 121.723 49.3663 122.188 49.8119C122.653 50.2382 122.885 50.7807 122.885 51.4395C122.885 52.0983 122.653 52.6506 122.188 53.0962ZM130.424 66.9019C131.083 67.7157 132.003 68.1226 133.185 68.1226C134.367 68.1226 135.278 67.7157 135.917 66.9019C136.576 66.0881 136.905 64.9546 136.905 63.5013V63.2979C136.905 61.8447 136.576 60.7111 135.917 59.8973C135.278 59.0641 134.367 58.6475 133.185 58.6475C132.022 58.6475 131.112 59.0545 130.453 59.8683C129.794 60.6627 129.465 61.7865 129.465 63.2398V63.4723C129.465 64.9255 129.784 66.0687 130.424 66.9019ZM133.156 71.3197C130.85 71.3197 128.941 70.6125 127.43 69.198C125.919 67.7641 125.163 65.8846 125.163 63.5595V63.3269C125.163 60.9824 125.919 59.0835 127.43 57.6303C128.941 56.1771 130.86 55.4504 133.185 55.4504C135.51 55.4504 137.419 56.1674 138.911 57.6012C140.422 59.0157 141.178 60.8952 141.178 63.2398V63.4723C141.178 65.8362 140.422 67.7351 138.911 69.1689C137.399 70.6028 135.481 71.3197 133.156 71.3197ZM143.629 71V55.7992H147.843V58.2116C148.25 57.3978 148.87 56.739 149.703 56.2352C150.556 55.712 151.583 55.4504 152.784 55.4504C154.353 55.4504 155.594 55.9445 156.504 56.9327C157.434 57.9016 157.899 59.3645 157.899 61.3215V71H153.685V61.9318C153.685 60.8855 153.472 60.1202 153.046 59.6357C152.619 59.132 151.941 58.8801 151.011 58.8801C150.062 58.8801 149.296 59.1707 148.715 59.752C148.134 60.3139 147.843 61.1374 147.843 62.2225V71H143.629Z" fill="#1E1C1C"/>
<path d="M71.8338 20L69.5771 10.7264H71.7041L73.1568 17.1336L74.7391 10.7264H76.529L78.1762 17.1725L79.6807 10.7264H81.6262L79.3694 20H77.2294L75.5562 13.5928L73.8572 20H71.8338ZM84.8935 20.1427C83.8472 20.1427 82.9955 19.8357 82.3384 19.2218C81.6812 18.5992 81.3526 17.7562 81.3526 16.6926V16.5889C81.3526 15.534 81.6812 14.6823 82.3384 14.0338C83.0042 13.3853 83.8386 13.061 84.8416 13.061C85.7927 13.061 86.5796 13.3507 87.2021 13.93C87.8333 14.5094 88.1489 15.3697 88.1489 16.5111V17.0299H83.2592C83.2852 17.5919 83.4451 18.0286 83.7391 18.3398C84.0331 18.6511 84.4352 18.8068 84.9453 18.8068C85.7581 18.8068 86.2294 18.4912 86.3591 17.8599H88.136C88.0235 18.5949 87.6863 19.1613 87.1243 19.559C86.5623 19.9481 85.8186 20.1427 84.8935 20.1427ZM83.2852 15.8755H86.3202C86.2596 14.8639 85.7668 14.358 84.8416 14.358C84.4179 14.358 84.0677 14.4921 83.791 14.7601C83.523 15.0195 83.3543 15.3913 83.2852 15.8755ZM93.9835 20.1297C93.2658 20.1297 92.7211 19.9481 92.3493 19.585C91.9775 19.2218 91.7916 18.69 91.7916 17.9896V14.5526H90.9226V13.2167H91.7916V11.7511H93.6592V13.2167H95.0859V14.5526H93.6592V17.821C93.6592 18.3571 93.91 18.6252 94.4115 18.6252C94.6795 18.6252 94.9173 18.5819 95.1248 18.4955V19.9481C94.779 20.0692 94.3985 20.1297 93.9835 20.1297ZM97.9129 20.1427C97.2471 20.1427 96.7024 19.9741 96.2787 19.6368C95.855 19.2996 95.6432 18.7938 95.6432 18.1193C95.6432 16.6667 96.8191 15.9404 99.171 15.9404H99.9362V15.668C99.9362 15.2443 99.8541 14.9331 99.6898 14.7342C99.5255 14.5267 99.2402 14.4229 98.8338 14.4229C98.1507 14.4229 97.7659 14.7428 97.6795 15.3827H95.9026C95.9545 14.6131 96.2571 14.0338 96.8105 13.6447C97.3639 13.2556 98.0772 13.061 98.9505 13.061C100.844 13.061 101.791 13.8998 101.791 15.5772V20H99.9622V19.1829C99.5039 19.8227 98.8208 20.1427 97.9129 20.1427ZM98.4706 18.8327C98.8943 18.8327 99.2445 18.7246 99.5212 18.5084C99.7979 18.2923 99.9362 17.9983 99.9362 17.6265V17.0558H99.2099C98.6392 17.0558 98.2069 17.1293 97.9129 17.2763C97.6276 17.4233 97.4849 17.6697 97.4849 18.0156C97.4849 18.5603 97.8135 18.8327 98.4706 18.8327ZM103.031 20V10.1428H104.911V16.0831L107.09 13.2167H109.088L106.623 16.3035L109.282 20H107.155L104.911 16.7964V20H103.031ZM112.647 20.1427C111.601 20.1427 110.749 19.8357 110.092 19.2218C109.435 18.5992 109.106 17.7562 109.106 16.6926V16.5889C109.106 15.534 109.435 14.6823 110.092 14.0338C110.758 13.3853 111.592 13.061 112.595 13.061C113.546 13.061 114.333 13.3507 114.956 13.93C115.587 14.5094 115.902 15.3697 115.902 16.5111V17.0299H111.013C111.039 17.5919 111.199 18.0286 111.493 18.3398C111.787 18.6511 112.189 18.8068 112.699 18.8068C113.512 18.8068 113.983 18.4912 114.113 17.8599H115.889C115.777 18.5949 115.44 19.1613 114.878 19.559C114.316 19.9481 113.572 20.1427 112.647 20.1427ZM111.039 15.8755H114.074C114.013 14.8639 113.52 14.358 112.595 14.358C112.171 14.358 111.821 14.4921 111.544 14.7601C111.276 15.0195 111.108 15.3913 111.039 15.8755Z" fill="#1E1C1C"/>
<path opacity="0.701916" d="M73.4346 91.0689C72.9466 91.0689 72.5186 90.9649 72.1506 90.7569C71.7826 90.5409 71.5026 90.2649 71.3106 89.9289V90.9609H70.3146V81.6849H71.3106V85.7409C71.5026 85.4209 71.7946 85.1489 72.1866 84.9249C72.5786 84.6929 72.9946 84.5769 73.4346 84.5769C74.2746 84.5769 74.9586 84.8649 75.4866 85.4409C76.0226 86.0089 76.2906 86.7729 76.2906 87.7329V87.8289C76.2906 88.7969 76.0266 89.5809 75.4986 90.1809C74.9786 90.7729 74.2906 91.0689 73.4346 91.0689ZM73.3386 90.2409C73.9626 90.2409 74.4386 90.0369 74.7666 89.6289C75.0946 89.2209 75.2586 88.6369 75.2586 87.8769V87.7809C75.2586 87.0209 75.0746 86.4369 74.7066 86.0289C74.3466 85.6129 73.8866 85.4049 73.3266 85.4049C72.7186 85.4049 72.2226 85.6089 71.8386 86.0169C71.4626 86.4169 71.2746 87.0049 71.2746 87.7809V87.8769C71.2746 88.6529 71.4586 89.2409 71.8266 89.6409C72.2026 90.0409 72.7066 90.2409 73.3386 90.2409ZM78.089 93.1449L79.277 90.3129L76.817 84.6849H77.885L79.805 89.1849L81.545 84.6849H82.565L79.097 93.1449H78.089ZM86.6847 90.9609V81.6849H87.6927V90.9609H86.6847ZM89.7511 90.9609V85.5249H88.8511V84.6849H89.7511V83.6649C89.7511 83.0169 89.9071 82.5209 90.2191 82.1769C90.5391 81.8249 91.0071 81.6489 91.6231 81.6489C91.8791 81.6489 92.1271 81.6889 92.3671 81.7689V82.6089C92.1431 82.5209 91.9071 82.4769 91.6591 82.4769C91.0511 82.4769 90.7471 82.8369 90.7471 83.5569V84.6849H92.2831V85.5249H90.7471V90.9609H89.7511ZM95.787 91.0689C94.899 91.0689 94.163 90.7809 93.579 90.2049C93.003 89.6209 92.715 88.8489 92.715 87.8889V87.7929C92.715 86.8489 93.007 86.0769 93.591 85.4769C94.183 84.8769 94.907 84.5769 95.763 84.5769C96.483 84.5769 97.095 84.7569 97.599 85.1169C98.103 85.4689 98.399 86.0209 98.487 86.7729H97.503C97.359 85.8609 96.779 85.4049 95.763 85.4049C95.179 85.4049 94.695 85.6249 94.311 86.0649C93.935 86.4969 93.747 87.0729 93.747 87.7929V87.8889C93.747 88.6409 93.931 89.2209 94.299 89.6289C94.675 90.0369 95.175 90.2409 95.799 90.2409C96.271 90.2409 96.675 90.1089 97.011 89.8449C97.355 89.5729 97.551 89.1929 97.599 88.7049H98.523C98.459 89.3929 98.171 89.9609 97.659 90.4089C97.155 90.8489 96.531 91.0689 95.787 91.0689ZM101.403 91.0689C100.787 91.0689 100.283 90.9169 99.8909 90.6129C99.5069 90.3009 99.3149 89.8369 99.3149 89.2209C99.3149 88.5489 99.6109 88.0569 100.203 87.7449C100.803 87.4329 101.555 87.2769 102.459 87.2769H103.359V86.8209C103.359 86.3169 103.255 85.9569 103.047 85.7409C102.839 85.5169 102.495 85.4049 102.015 85.4049C101.151 85.4049 100.671 85.7809 100.575 86.5329H99.5789C99.6429 85.8609 99.9069 85.3689 100.371 85.0569C100.835 84.7369 101.399 84.5769 102.063 84.5769C103.591 84.5769 104.355 85.3249 104.355 86.8209V90.9609H103.359V90.1689C102.879 90.7689 102.227 91.0689 101.403 91.0689ZM101.499 90.2769C102.043 90.2769 102.487 90.1449 102.831 89.8809C103.183 89.6089 103.359 89.2369 103.359 88.7649V87.9849H102.495C101.039 87.9849 100.311 88.3969 100.311 89.2209C100.311 89.9249 100.707 90.2769 101.499 90.2769ZM107.339 90.8049C107.187 90.9489 107.007 91.0209 106.799 91.0209C106.591 91.0209 106.411 90.9489 106.259 90.8049C106.107 90.6529 106.031 90.4689 106.031 90.2529C106.031 90.0369 106.107 89.8569 106.259 89.7129C106.411 89.5609 106.591 89.4849 106.799 89.4849C107.007 89.4849 107.187 89.5609 107.339 89.7129C107.491 89.8569 107.567 90.0369 107.567 90.2529C107.567 90.4689 107.491 90.6529 107.339 90.8049ZM111.57 91.0689C110.674 91.0689 109.942 90.7809 109.374 90.2049C108.814 89.6209 108.534 88.8489 108.534 87.8889V87.7929C108.534 86.8489 108.806 86.0769 109.35 85.4769C109.902 84.8769 110.61 84.5769 111.474 84.5769C112.274 84.5769 112.942 84.8369 113.478 85.3569C114.022 85.8689 114.294 86.6489 114.294 87.6969V88.0209H109.566C109.59 88.7409 109.77 89.2929 110.106 89.6769C110.45 90.0529 110.942 90.2409 111.582 90.2409C112.566 90.2409 113.122 89.8769 113.25 89.1489H114.246C114.142 89.7649 113.85 90.2409 113.37 90.5769C112.89 90.9049 112.29 91.0689 111.57 91.0689ZM109.602 87.2169H113.274C113.186 86.0089 112.586 85.4049 111.474 85.4049C110.97 85.4049 110.554 85.5689 110.226 85.8969C109.898 86.2169 109.69 86.6569 109.602 87.2169ZM117.257 91.0689C116.641 91.0689 116.137 90.9169 115.745 90.6129C115.361 90.3009 115.169 89.8369 115.169 89.2209C115.169 88.5489 115.465 88.0569 116.057 87.7449C116.657 87.4329 117.409 87.2769 118.313 87.2769H119.213V86.8209C119.213 86.3169 119.109 85.9569 118.901 85.7409C118.693 85.5169 118.349 85.4049 117.869 85.4049C117.005 85.4049 116.525 85.7809 116.429 86.5329H115.433C115.497 85.8609 115.761 85.3689 116.225 85.0569C116.689 84.7369 117.253 84.5769 117.917 84.5769C119.445 84.5769 120.209 85.3249 120.209 86.8209V90.9609H119.213V90.1689C118.733 90.7689 118.081 91.0689 117.257 91.0689ZM117.353 90.2769C117.897 90.2769 118.341 90.1449 118.685 89.8809C119.037 89.6089 119.213 89.2369 119.213 88.7649V87.9849H118.349C116.893 87.9849 116.165 88.3969 116.165 89.2209C116.165 89.9249 116.561 90.2769 117.353 90.2769ZM121.969 90.9609V84.6849H122.965V85.8129C123.181 85.4209 123.445 85.1209 123.757 84.9129C124.077 84.7049 124.501 84.5929 125.029 84.5769V85.5129C124.341 85.5449 123.825 85.7049 123.481 85.9929C123.137 86.2809 122.965 86.7889 122.965 87.5169V90.9609H121.969ZM128.252 91.0449C127.7 91.0449 127.28 90.8969 126.992 90.6009C126.704 90.3049 126.56 89.9009 126.56 89.3889V85.5249H125.66V84.6849H126.56V83.2569H127.556V84.6849H129.02V85.5249H127.556V89.2929C127.556 89.9009 127.816 90.2049 128.336 90.2049C128.624 90.2049 128.88 90.1609 129.104 90.0729V90.9129C128.856 91.0009 128.572 91.0449 128.252 91.0449ZM130.414 90.9609V81.6849H131.41V85.6809C131.562 85.3609 131.814 85.0969 132.166 84.8889C132.518 84.6809 132.938 84.5769 133.426 84.5769C134.114 84.5769 134.654 84.7809 135.046 85.1889C135.438 85.5969 135.634 86.2369 135.634 87.1089V90.9609H134.638V87.0369C134.638 86.4849 134.518 86.0809 134.278 85.8249C134.038 85.5689 133.666 85.4409 133.162 85.4409C132.674 85.4409 132.258 85.5929 131.914 85.8969C131.578 86.2009 131.41 86.6209 131.41 87.1569V90.9609H130.414Z" fill="#1E1C1C"/>
</svg>
