<?xml version="1.0" encoding="UTF-8"?>
<svg width="18px" height="14px" viewBox="0 0 18 14" version="1.1" xmlns="http://www.w3.org/2000/svg" xmlns:xlink="http://www.w3.org/1999/xlink">
    <!-- Generator: Sketch 60.1 (88133) - https://sketch.com -->
    <title>au-AU</title>
    <desc>Created with Sketch.</desc>
    <g id="au-AU" stroke="none" stroke-width="1" fill="none" fill-rule="evenodd">
        <g id="australia" fill-rule="nonzero">
            <path d="M17.25,0 L0.75,0 C0.335786438,0 0,0.335786438 0,0.75 L0,12.75 C0,13.1642136 0.335786438,13.5 0.75,13.5 L17.25,13.5 C17.6642136,13.5 18,13.1642136 18,12.75 L18,0.75 C18,0.335786438 17.6642136,0 17.25,0 Z" id="Path" fill="#0F2E72"></path>
            <polygon id="Path" fill="#FF0000" points="7.125 4.875 6 4.875 6 4.96875 8.374875 6.75 9 6.75 9 6.28125"></polygon>
            <path d="M0.045,0.5025 L1.875,1.875 L3,1.875 L3,1.78125 L0.63975,0.01125 C0.36571139,0.051971469 0.136752113,0.241086635 0.045,0.5025 Z" id="Path" fill="#FF0000"></path>
            <polygon id="Path" fill="#FF0000" points="9 0 8.37525 0 6 1.78125 6 1.875 7.125375 1.875 9 0.46875"></polygon>
            <polygon id="Path" fill="#FF0000" points="0 6.28125 0 6.75 0.625125 6.75 3 4.96875 3 4.875 1.875 4.875"></polygon>
            <polygon id="Path" fill="#FF0000" points="9 2.625 5.25 2.625 5.25 0 3.75 0 3.75 2.625 0 2.625 0 4.125 3.75 4.125 3.75 6.75 5.25 6.75 5.25 4.125 9 4.125"></polygon>
            <polygon id="Path" fill="#FFFFFF" points="4.5645 9 4.839375 9.772125 5.579625 9.420375 5.227875 10.160625 6 10.4355 5.227875 10.710375 5.579625 11.450625 4.839375 11.0985 4.5645 11.871 4.289625 11.0985 3.549375 11.450625 3.9015 10.710375 3.129 10.4355 3.9015 10.160625 3.549375 9.420375 4.289625 9.772125"></polygon>
            <polygon id="Path" fill="#FFFFFF" points="11.683125 6.19575 11.814375 6.564375 12.168 6.396375 12 6.75 12.368625 6.88125 12 7.0125 12.168 7.36575 11.814375 7.19775 11.683125 7.56675 11.551875 7.19775 11.198625 7.36575 11.366625 7.0125 10.997625 6.88125 11.366625 6.75 11.198625 6.396375 11.551875 6.564375"></polygon>
            <polygon id="Path" fill="#FFFFFF" points="13.5645 2.754 13.69575 3.122625 14.049375 2.954625 13.881375 3.30825 14.25 3.4395 13.881375 3.57075 14.049375 3.924375 13.69575 3.756 13.5645 4.125 13.43325 3.756 13.079625 3.924375 13.248 3.57075 12.879 3.4395 13.248 3.30825 13.079625 2.954625 13.43325 3.122625"></polygon>
            <polygon id="Path" fill="#FFFFFF" points="16.0605 5.379 16.19175 5.747625 16.545375 5.579625 16.377375 5.93325 16.746 6.0645 16.377375 6.19575 16.545375 6.549375 16.19175 6.381 16.0605 6.75 15.92925 6.381 15.575625 6.549375 15.744 6.19575 15.375 6.0645 15.744 5.93325 15.575625 5.579625 15.92925 5.747625"></polygon>
            <polygon id="Path" fill="#FFFFFF" points="13.5645 9.375 13.69575 9.743625 14.049375 9.575625 13.881375 9.92925 14.25 10.0605 13.881375 10.19175 14.049375 10.545375 13.69575 10.377 13.5645 10.746 13.43325 10.377 13.079625 10.545375 13.248 10.19175 12.879 10.0605 13.248 9.92925 13.079625 9.575625 13.43325 9.743625"></polygon>
        </g>
    </g>
</svg>